<svg xmlns="http://www.w3.org/2000/svg" width="705" viewBox="0 0 705 591" height="591" version="1.0"><defs><clipPath id="a"><path d="M 316 39 L 450 39 L 450 295 L 316 295 Z M 316 39"/></clipPath><clipPath id="b"><path d="M 187.085938 31.894531 L 510.492188 26.25 L 518.003906 456.707031 L 194.601562 462.351562 Z M 187.085938 31.894531"/></clipPath><clipPath id="c"><path d="M 187.085938 31.894531 L 510.492188 26.25 L 518.003906 456.707031 L 194.601562 462.351562 Z M 187.085938 31.894531"/></clipPath><clipPath id="d"><path d="M 187.085938 31.894531 L 510.492188 26.25 L 518.003906 456.707031 L 194.601562 462.351562 Z M 187.085938 31.894531"/></clipPath><clipPath id="e"><path d="M 210 146 L 345 146 L 345 280 L 210 280 Z M 210 146"/></clipPath><clipPath id="f"><path d="M 187.085938 31.894531 L 510.492188 26.25 L 518.003906 456.707031 L 194.601562 462.351562 Z M 187.085938 31.894531"/></clipPath><clipPath id="g"><path d="M 187.085938 31.894531 L 510.492188 26.25 L 518.003906 456.707031 L 194.601562 462.351562 Z M 187.085938 31.894531"/></clipPath><clipPath id="h"><path d="M 187.085938 31.894531 L 510.492188 26.25 L 518.003906 456.707031 L 194.601562 462.351562 Z M 187.085938 31.894531"/></clipPath><clipPath id="i"><path d="M 230 351 L 435 351 L 435 460 L 230 460 Z M 230 351"/></clipPath><clipPath id="j"><path d="M 187.085938 31.894531 L 510.492188 26.25 L 518.003906 456.707031 L 194.601562 462.351562 Z M 187.085938 31.894531"/></clipPath><clipPath id="k"><path d="M 187.085938 31.894531 L 510.492188 26.25 L 518.003906 456.707031 L 194.601562 462.351562 Z M 187.085938 31.894531"/></clipPath><clipPath id="l"><path d="M 187.085938 31.894531 L 510.492188 26.25 L 518.003906 456.707031 L 194.601562 462.351562 Z M 187.085938 31.894531"/></clipPath><clipPath id="m"><path d="M 315 297 L 364 297 L 364 349 L 315 349 Z M 315 297"/></clipPath><clipPath id="n"><path d="M 187.085938 31.894531 L 510.492188 26.25 L 518.003906 456.707031 L 194.601562 462.351562 Z M 187.085938 31.894531"/></clipPath><clipPath id="o"><path d="M 187.085938 31.894531 L 510.492188 26.25 L 518.003906 456.707031 L 194.601562 462.351562 Z M 187.085938 31.894531"/></clipPath><clipPath id="p"><path d="M 187.085938 31.894531 L 510.492188 26.25 L 518.003906 456.707031 L 194.601562 462.351562 Z M 187.085938 31.894531"/></clipPath></defs><g fill="#5E7F38"><g><g><path d="M 7.8125 0 L 7.8125 -57.515625 L 24.234375 -57.515625 C 30.898438 -57.515625 36.203125 -56.382812 40.140625 -54.125 C 44.078125 -51.863281 46.046875 -48.472656 46.046875 -43.953125 C 46.046875 -40.773438 44.929688 -38.007812 42.703125 -35.65625 C 40.472656 -33.3125 37.359375 -31.53125 33.359375 -30.3125 C 38.628906 -29.332031 42.609375 -27.550781 45.296875 -24.96875 C 47.992188 -22.394531 49.34375 -19.570312 49.34375 -16.5 C 49.34375 -13.4375 48.5625 -10.816406 47 -8.640625 C 45.4375 -6.472656 43.4375 -4.8125 41 -3.65625 C 36.082031 -1.21875 31.046875 0 25.890625 0 Z M 16.25 -31.1875 L 22.5 -31.1875 C 27.769531 -31.1875 31.546875 -32.359375 33.828125 -34.703125 C 36.117188 -37.046875 37.265625 -39.988281 37.265625 -43.53125 C 37.265625 -45.90625 36.46875 -48.0625 34.875 -50 C 33.28125 -51.9375 30.835938 -53.398438 27.546875 -54.390625 C 23.597656 -54.390625 19.832031 -53.804688 16.25 -52.640625 Z M 16.25 -28.671875 L 16.25 -3.90625 C 18.101562 -3.332031 20.96875 -3.046875 24.84375 -3.046875 C 28.726562 -3.046875 32.175781 -4.113281 35.1875 -6.25 C 38.195312 -8.394531 39.703125 -11.378906 39.703125 -15.203125 C 39.703125 -19.023438 38.050781 -22.222656 34.75 -24.796875 C 31.445312 -27.378906 27.476562 -28.671875 22.84375 -28.671875 Z M 16.25 -28.671875" transform="translate(91.262 544.161)"/></g></g></g><g fill="#5E7F38"><g><g><path d="M 6.515625 0 L 6.515625 -39.265625 L 13.71875 -39.265625 L 13.71875 0 Z M 5.640625 -51.375 C 5.640625 -52.625 6.0625 -53.679688 6.90625 -54.546875 C 7.75 -55.421875 8.789062 -55.859375 10.03125 -55.859375 C 11.28125 -55.859375 12.351562 -55.421875 13.25 -54.546875 C 14.144531 -53.679688 14.59375 -52.640625 14.59375 -51.421875 C 14.59375 -50.210938 14.144531 -49.144531 13.25 -48.21875 C 12.351562 -47.289062 11.296875 -46.828125 10.078125 -46.828125 C 8.859375 -46.828125 7.8125 -47.273438 6.9375 -48.171875 C 6.070312 -49.066406 5.640625 -50.132812 5.640625 -51.375 Z M 5.640625 -51.375" transform="translate(147.207 544.161)"/></g></g></g><g fill="#5E7F38"><g><g><path d="M 23.28125 -40.3125 C 28.375 -40.3125 32.585938 -38.570312 35.921875 -35.09375 C 39.253906 -31.625 40.921875 -26.847656 40.921875 -20.765625 C 40.921875 -16.878906 40.253906 -13.457031 38.921875 -10.5 C 37.585938 -7.550781 35.847656 -5.269531 33.703125 -3.65625 C 29.597656 -0.519531 25.007812 1.046875 19.9375 1.046875 C 14.875 1.046875 10.675781 -0.6875 7.34375 -4.15625 C 4.007812 -7.632812 2.34375 -12.414062 2.34375 -18.5 C 2.34375 -22.382812 2.992188 -25.800781 4.296875 -28.75 C 5.597656 -31.707031 7.320312 -34 9.46875 -35.625 C 13.582031 -38.75 18.1875 -40.3125 23.28125 -40.3125 Z M 21.546875 -1.90625 C 24.097656 -1.90625 26.269531 -2.890625 28.0625 -4.859375 C 31.300781 -8.335938 32.921875 -12.957031 32.921875 -18.71875 C 32.921875 -24.476562 31.9375 -28.96875 29.96875 -32.1875 C 28 -35.40625 24.785156 -37.015625 20.328125 -37.015625 C 17.023438 -35.734375 14.519531 -33.484375 12.8125 -30.265625 C 11.101562 -27.054688 10.25 -23.175781 10.25 -18.625 C 10.25 -14.082031 11.175781 -10.160156 13.03125 -6.859375 C 14.882812 -3.554688 17.722656 -1.90625 21.546875 -1.90625 Z M 21.546875 -1.90625" transform="translate(167.448 544.161)"/></g></g></g><g fill="#5E7F38"><g><g><path d="M 9.125 -21.375 C 9.125 -15.113281 10.523438 -10.609375 13.328125 -7.859375 C 16.140625 -5.109375 19.554688 -3.734375 23.578125 -3.734375 C 27.609375 -3.734375 31.332031 -4.515625 34.75 -6.078125 L 34.75 -3.046875 C 30 -0.316406 25.453125 1.046875 21.109375 1.046875 C 15.492188 1.046875 10.945312 -0.660156 7.46875 -4.078125 C 4 -7.492188 2.265625 -12.445312 2.265625 -18.9375 C 2.265625 -25.425781 4.1875 -30.609375 8.03125 -34.484375 C 11.882812 -38.367188 16.535156 -40.3125 21.984375 -40.3125 C 26.210938 -40.3125 29.742188 -38.644531 32.578125 -35.3125 C 35.410156 -31.976562 36.828125 -27.332031 36.828125 -21.375 Z M 17.546875 -36.234375 C 15.523438 -35.242188 13.789062 -33.660156 12.34375 -31.484375 C 10.894531 -29.316406 9.9375 -26.816406 9.46875 -23.984375 L 29.796875 -23.984375 C 29.617188 -26.410156 29.050781 -28.492188 28.09375 -30.234375 C 27.144531 -31.972656 26.003906 -33.25 24.671875 -34.0625 C 22.296875 -35.507812 19.921875 -36.234375 17.546875 -36.234375 Z M 17.546875 -36.234375" transform="translate(210.884 544.161)"/></g></g></g><g fill="#5E7F38"><g><g><path d="M 14.6875 -36.65625 C 13.175781 -36.65625 11.941406 -36.085938 10.984375 -34.953125 C 10.035156 -33.828125 9.5625 -32.554688 9.5625 -31.140625 C 9.5625 -29.722656 10.238281 -28.363281 11.59375 -27.0625 C 12.957031 -25.757812 14.609375 -24.597656 16.546875 -23.578125 C 18.484375 -22.566406 20.40625 -21.507812 22.3125 -20.40625 C 24.226562 -19.3125 25.867188 -17.894531 27.234375 -16.15625 C 28.597656 -14.414062 29.28125 -12.476562 29.28125 -10.34375 C 29.28125 -7.09375 27.972656 -4.378906 25.359375 -2.203125 C 22.753906 -0.0351562 19.207031 1.046875 14.71875 1.046875 C 10.238281 1.046875 6.144531 0.00390625 2.4375 -2.078125 L 2.4375 -5.390625 C 6.375 -3.421875 9.929688 -2.4375 13.109375 -2.4375 C 16.296875 -2.4375 18.613281 -3.070312 20.0625 -4.34375 C 21.507812 -5.613281 22.234375 -7.070312 22.234375 -8.71875 C 22.234375 -10.375 21.582031 -11.851562 20.28125 -13.15625 C 18.976562 -14.457031 17.382812 -15.597656 15.5 -16.578125 C 13.625 -17.566406 11.757812 -18.613281 9.90625 -19.71875 C 8.050781 -20.820312 6.472656 -22.238281 5.171875 -23.96875 C 3.867188 -25.707031 3.21875 -27.804688 3.21875 -30.265625 C 3.21875 -32.734375 4.210938 -35.023438 6.203125 -37.140625 C 8.203125 -39.253906 11.285156 -40.3125 15.453125 -40.3125 C 19.628906 -40.3125 23.628906 -39.554688 27.453125 -38.046875 L 26.578125 -32.3125 C 22.296875 -34.632812 18.332031 -36.082031 14.6875 -36.65625 Z M 14.6875 -36.65625" transform="translate(251.627 544.161)"/></g></g></g><g fill="#5E7F38"><g><g><path d="M 15.203125 -7.640625 C 15.203125 -5.898438 15.546875 -4.597656 16.234375 -3.734375 C 16.929688 -2.867188 18.09375 -2.4375 19.71875 -2.4375 C 21.34375 -2.4375 23.285156 -2.867188 25.546875 -3.734375 L 25.546875 -1.296875 C 22.179688 0.265625 19.164062 1.046875 16.5 1.046875 C 13.84375 1.046875 11.742188 0.304688 10.203125 -1.171875 C 8.671875 -2.648438 7.90625 -4.953125 7.90625 -8.078125 L 7.90625 -36.140625 L 0.875 -37.53125 L 0.875 -39.265625 L 7.90625 -39.265625 L 7.90625 -42.390625 L 15.203125 -47.6875 L 15.203125 -39.265625 L 25.546875 -39.265625 L 25.546875 -36.140625 L 15.203125 -36.140625 Z M 15.203125 -7.640625" transform="translate(283.943 544.161)"/></g></g></g><g fill="#5E7F38"><g><g><path d="M 6.515625 0 L 6.515625 -39.265625 L 13.71875 -39.265625 L 13.71875 0 Z M 5.640625 -51.375 C 5.640625 -52.625 6.0625 -53.679688 6.90625 -54.546875 C 7.75 -55.421875 8.789062 -55.859375 10.03125 -55.859375 C 11.28125 -55.859375 12.351562 -55.421875 13.25 -54.546875 C 14.144531 -53.679688 14.59375 -52.640625 14.59375 -51.421875 C 14.59375 -50.210938 14.144531 -49.144531 13.25 -48.21875 C 12.351562 -47.289062 11.296875 -46.828125 10.078125 -46.828125 C 8.859375 -46.828125 7.8125 -47.273438 6.9375 -48.171875 C 6.070312 -49.066406 5.640625 -50.132812 5.640625 -51.375 Z M 5.640625 -51.375" transform="translate(312.524 544.161)"/></g></g></g><g fill="#5E7F38"><g><g><path d="M 51.078125 -40.3125 C 57.910156 -40.3125 61.328125 -35.128906 61.328125 -24.765625 L 61.328125 0 L 54.03125 0 L 54.03125 -25.453125 C 54.03125 -30.316406 53.101562 -33.269531 51.25 -34.3125 C 50.320312 -34.832031 49.035156 -35.09375 47.390625 -35.09375 C 45.742188 -35.09375 43.976562 -34.585938 42.09375 -33.578125 C 40.207031 -32.566406 38.832031 -31.421875 37.96875 -30.140625 L 37.96875 0 L 30.578125 0 L 30.578125 -25.890625 C 30.578125 -28.960938 30.113281 -31.265625 29.1875 -32.796875 C 28.257812 -34.328125 26.894531 -35.09375 25.09375 -35.09375 C 23.300781 -35.09375 21.582031 -34.6875 19.9375 -33.875 C 18.289062 -33.070312 16.972656 -32.265625 15.984375 -31.453125 C 15.003906 -30.640625 14.515625 -30.144531 14.515625 -29.96875 L 14.515625 0 L 7.203125 0 L 7.203125 -27.28125 C 7.203125 -31.21875 5.726562 -34.375 2.78125 -36.75 L 7.203125 -40.046875 L 14.15625 -33.703125 C 16.882812 -35.960938 19.257812 -37.628906 21.28125 -38.703125 C 23.3125 -39.773438 25.425781 -40.3125 27.625 -40.3125 C 32.664062 -40.3125 35.796875 -37.960938 37.015625 -33.265625 C 39.035156 -35.585938 41.347656 -37.34375 43.953125 -38.53125 C 46.566406 -39.71875 48.941406 -40.3125 51.078125 -40.3125 Z M 51.078125 -40.3125" transform="translate(332.765 544.161)"/></g></g></g><g fill="#5E7F38"><g><g><path d="M 34.484375 -11.640625 C 34.484375 -7.640625 35.988281 -4.484375 39 -2.171875 L 34.484375 1.046875 L 27.453125 -5.296875 C 25.078125 -3.035156 22.960938 -1.410156 21.109375 -0.421875 C 19.253906 0.554688 17.066406 1.046875 14.546875 1.046875 C 12.023438 1.046875 9.707031 0.078125 7.59375 -1.859375 C 5.488281 -3.804688 4.4375 -7.15625 4.4375 -11.90625 L 4.4375 -39.265625 L 11.8125 -39.265625 L 11.8125 -11.46875 C 11.8125 -8.6875 12.316406 -6.585938 13.328125 -5.171875 C 14.347656 -3.753906 16.113281 -3.046875 18.625 -3.046875 C 21.144531 -3.046875 23.972656 -4.894531 27.109375 -8.59375 L 27.109375 -39.265625 L 34.484375 -39.265625 Z M 34.484375 -11.640625" transform="translate(400.352 544.161)"/></g></g></g><g fill="#5E7F38"><g><g><path d="M 13.8125 -59.328125 L 13.8125 0 L 6.515625 0 L 6.515625 -59.328125 Z M 13.8125 -59.328125" transform="translate(442.05 544.161)"/></g></g></g><g fill="#5E7F38"><g><g><path d="M 24.765625 -9.203125 L 24.765625 -18.15625 C 20.585938 -17.863281 17.164062 -16.9375 14.5 -15.375 C 11.84375 -13.8125 10.515625 -12.128906 10.515625 -10.328125 C 10.515625 -8.535156 10.976562 -6.988281 11.90625 -5.6875 C 12.832031 -4.382812 14.019531 -3.472656 15.46875 -2.953125 C 17.375 -3.296875 19.398438 -4.25 21.546875 -5.8125 C 23.691406 -7.382812 24.765625 -8.515625 24.765625 -9.203125 Z M 31.890625 -11.546875 C 31.890625 -7.441406 33.394531 -4.316406 36.40625 -2.171875 L 31.890625 1.125 L 24.84375 -5.21875 C 20.269531 -1.039062 16.039062 1.046875 12.15625 1.046875 C 9.613281 1.046875 7.425781 0.234375 5.59375 -1.390625 C 3.769531 -3.015625 2.859375 -5.054688 2.859375 -7.515625 C 2.859375 -9.972656 3.597656 -12.015625 5.078125 -13.640625 C 6.554688 -15.265625 8.515625 -16.507812 10.953125 -17.375 C 15.117188 -18.9375 19.722656 -19.921875 24.765625 -20.328125 L 24.765625 -28.5 C 24.765625 -33.300781 21.984375 -35.703125 16.421875 -35.703125 C 13.234375 -35.703125 9.46875 -35.007812 5.125 -33.625 L 4.34375 -35.796875 C 5.5 -36.722656 7.507812 -37.707031 10.375 -38.75 C 13.25 -39.789062 15.988281 -40.3125 18.59375 -40.3125 C 21.195312 -40.3125 23.378906 -39.960938 25.140625 -39.265625 C 26.910156 -38.566406 28.210938 -37.785156 29.046875 -36.921875 C 29.890625 -36.054688 30.539062 -34.867188 31 -33.359375 C 31.46875 -31.847656 31.734375 -30.660156 31.796875 -29.796875 C 31.859375 -28.929688 31.890625 -27.773438 31.890625 -26.328125 Z M 31.890625 -11.546875" transform="translate(462.378 544.161)"/></g></g></g><g fill="#5E7F38"><g><g><path d="M 14.078125 -33.703125 C 16.503906 -36.023438 18.628906 -37.707031 20.453125 -38.75 C 22.285156 -39.789062 24.445312 -40.3125 26.9375 -40.3125 C 29.425781 -40.3125 31.726562 -39.328125 33.84375 -37.359375 C 35.957031 -35.390625 37.015625 -32 37.015625 -27.1875 L 37.015625 0 L 29.625 0 L 29.625 -26.328125 C 29.625 -29.160156 29.113281 -31.285156 28.09375 -32.703125 C 27.082031 -34.128906 25.347656 -34.84375 22.890625 -34.84375 C 20.429688 -34.84375 17.578125 -33.21875 14.328125 -29.96875 L 14.328125 0 L 6.953125 0 L 6.953125 -27.28125 C 6.953125 -31.21875 5.472656 -34.375 2.515625 -36.75 L 6.953125 -40.046875 Z M 14.078125 -33.703125" transform="translate(500.95 544.161)"/></g></g></g><g fill="#5E7F38"><g><g><path d="M 15.203125 -7.640625 C 15.203125 -5.898438 15.546875 -4.597656 16.234375 -3.734375 C 16.929688 -2.867188 18.09375 -2.4375 19.71875 -2.4375 C 21.34375 -2.4375 23.285156 -2.867188 25.546875 -3.734375 L 25.546875 -1.296875 C 22.179688 0.265625 19.164062 1.046875 16.5 1.046875 C 13.84375 1.046875 11.742188 0.304688 10.203125 -1.171875 C 8.671875 -2.648438 7.90625 -4.953125 7.90625 -8.078125 L 7.90625 -36.140625 L 0.875 -37.53125 L 0.875 -39.265625 L 7.90625 -39.265625 L 7.90625 -42.390625 L 15.203125 -47.6875 L 15.203125 -39.265625 L 25.546875 -39.265625 L 25.546875 -36.140625 L 15.203125 -36.140625 Z M 15.203125 -7.640625" transform="translate(544.385 544.161)"/></g></g></g><g fill="#5E7F38"><g><g><path d="M 9.125 -21.375 C 9.125 -15.113281 10.523438 -10.609375 13.328125 -7.859375 C 16.140625 -5.109375 19.554688 -3.734375 23.578125 -3.734375 C 27.609375 -3.734375 31.332031 -4.515625 34.75 -6.078125 L 34.75 -3.046875 C 30 -0.316406 25.453125 1.046875 21.109375 1.046875 C 15.492188 1.046875 10.945312 -0.660156 7.46875 -4.078125 C 4 -7.492188 2.265625 -12.445312 2.265625 -18.9375 C 2.265625 -25.425781 4.1875 -30.609375 8.03125 -34.484375 C 11.882812 -38.367188 16.535156 -40.3125 21.984375 -40.3125 C 26.210938 -40.3125 29.742188 -38.644531 32.578125 -35.3125 C 35.410156 -31.976562 36.828125 -27.332031 36.828125 -21.375 Z M 17.546875 -36.234375 C 15.523438 -35.242188 13.789062 -33.660156 12.34375 -31.484375 C 10.894531 -29.316406 9.9375 -26.816406 9.46875 -23.984375 L 29.796875 -23.984375 C 29.617188 -26.410156 29.050781 -28.492188 28.09375 -30.234375 C 27.144531 -31.972656 26.003906 -33.25 24.671875 -34.0625 C 22.296875 -35.507812 19.921875 -36.234375 17.546875 -36.234375 Z M 17.546875 -36.234375" transform="translate(572.966 544.161)"/></g></g></g><g clip-path="url(#a)"><g clip-path="url(#b)"><g clip-path="url(#c)"><g clip-path="url(#d)"><path fill="#8CC63F" d="M 347.269531 97.789062 C 377.941406 54.917969 434.128906 39.378906 434.128906 39.378906 C 434.128906 39.378906 266.109375 69.816406 332.199219 187.023438 C 323.414062 144.027344 331.527344 119.769531 347.269531 97.789062 Z M 433.46875 39.839844 C 433.46875 39.839844 378.023438 57.785156 349.210938 101.929688 C 334.515625 124.476562 327.460938 148.949219 337.859375 191.183594 C 342.457031 224.949219 328.089844 287.765625 328.089844 287.765625 C 337.304688 301.894531 349.125 287.988281 349.125 287.988281 C 340.644531 273.160156 349.289062 195.960938 350.113281 188.65625 C 386.277344 178.121094 487.5 138.875 433.445312 39.875 Z M 433.46875 39.839844"/></g></g></g></g><g clip-path="url(#e)"><g clip-path="url(#f)"><g clip-path="url(#g)"><g clip-path="url(#h)"><path fill="#8CC63F" d="M 279.8125 161.78125 C 249.136719 144.128906 210.488281 150.222656 210.488281 150.222656 C 210.488281 150.222656 321.636719 122.105469 313.835938 212.109375 C 307.230469 183.40625 295.53125 170.828125 279.8125 161.78125 Z M 211.019531 150.332031 C 211.019531 150.332031 249.898438 145.894531 279.785156 164.863281 C 295.039062 174.546875 306.160156 187.535156 311.535156 216.253906 C 318.121094 238.148438 344.347656 272.546875 344.347656 272.546875 C 342.652344 283.71875 331.539062 278.523438 331.539062 278.523438 C 332.613281 267.105469 305.878906 222.328125 303.3125 218.097656 C 278.296875 221.714844 205.53125 225.859375 211.019531 150.332031 Z M 211.019531 150.332031"/></g></g></g></g><g clip-path="url(#i)"><g clip-path="url(#j)"><g clip-path="url(#k)"><g clip-path="url(#l)"><path fill="#7B5517" d="M 327.003906 361.515625 C 324.003906 367.203125 307.863281 376.09375 308.351562 377.511719 C 308.808594 378.835938 326.9375 366.75 329.871094 369.703125 C 333.371094 373.234375 333.742188 389.085938 327.5625 393.652344 L 322.457031 397.460938 L 285.550781 395.410156 L 259.851562 383.933594 L 281.472656 395.976562 C 272.386719 397.25 262.828125 396.425781 252.4375 401.066406 C 244.660156 404.546875 238.632812 407.222656 230.828125 410.953125 C 238.269531 409.335938 252.101562 403.148438 260.738281 400.953125 C 268.914062 398.921875 277.777344 399.136719 286.3125 398.214844 L 314.035156 399.683594 L 285.539062 410.773438 L 268.496094 405.246094 L 281.90625 411.949219 L 248.113281 428.554688 L 263.4375 424.136719 L 257.980469 447.121094 L 267.496094 422.421875 L 280.054688 416.007812 L 289.789062 426.960938 L 285.117188 414.960938 L 318.910156 401.890625 L 297.351562 423.605469 L 324.367188 402.320312 L 333.085938 397.617188 C 337.472656 395.246094 336.554688 397.523438 337.3125 408.941406 L 337.855469 417.136719 L 326.425781 426.101562 L 339.027344 420.339844 L 337.90625 432.3125 L 316.96875 439.804688 L 297.773438 436.980469 L 315.707031 442.148438 L 312.109375 454.320312 L 319.730469 441.859375 L 337.835938 435.382812 L 338.078125 438.722656 L 338.601562 459.835938 L 340.761719 441.554688 L 368.214844 454.210938 L 341.382812 438.105469 L 341.414062 423.890625 L 354.4375 431.5625 L 341.679688 419.519531 L 342.875 395.773438 C 342.945312 394.5 344.421875 397.511719 346.996094 401.183594 L 352.8125 409.472656 L 360.121094 425.453125 L 358.304688 415.386719 L 384.535156 437.847656 L 360.21875 413.125 L 383.859375 422.21875 L 355.261719 407.914062 C 337.292969 386.609375 355.082031 399.460938 382.808594 409.910156 L 390.542969 412.8125 L 424.851562 438.382812 L 399.621094 416.339844 L 434.492188 426.261719 L 369.082031 400.796875 L 390.1875 397.734375 L 417.820312 406.328125 L 393.71875 396.03125 L 433.332031 391.621094 L 396.332031 393.105469 L 369.777344 398.121094 L 362.695312 397.066406 C 356.359375 396.125 349.582031 391.410156 347.175781 386.621094 C 344.253906 380.789062 343.019531 366.746094 346.800781 365.195312 C 351.355469 363.320312 371.996094 377.824219 372.246094 376.304688 C 372.554688 374.5 353.925781 363.273438 348.425781 355.285156 C 341.207031 348.164062 331.933594 351.050781 326.878906 361.421875 Z M 327.003906 361.515625"/></g></g></g></g><g clip-path="url(#m)"><g clip-path="url(#n)"><g clip-path="url(#o)"><g clip-path="url(#p)"><path d="M 330.085938 348.234375 L 315.160156 325.574219 L 327.832031 314.886719 L 325.203125 297.492188 L 340.632812 318.84375 L 326.757812 328.035156 Z M 353.003906 347.835938 L 338.078125 325.175781 L 350.75 314.484375 L 348.125 297.09375 L 363.554688 318.441406 L 349.679688 327.636719 M 353.003906 347.835938 L 338.078125 325.175781 L 350.75 314.484375 L 348.125 297.09375 L 363.554688 318.441406 L 349.679688 327.636719 M 353.003906 347.835938 L 338.078125 325.175781 L 350.75 314.484375 L 348.125 297.09375 L 363.554688 318.441406 L 349.679688 327.636719 M 353.003906 347.835938 L 338.078125 325.175781 L 350.75 314.484375 L 348.125 297.09375 L 363.554688 318.441406 L 349.679688 327.636719 M 353.003906 347.835938 L 338.078125 325.175781 L 350.75 314.484375 L 348.125 297.09375 L 363.554688 318.441406 L 349.679688 327.636719 M 353.003906 347.835938 L 338.078125 325.175781 L 350.75 314.484375 L 348.125 297.09375 L 363.554688 318.441406 L 349.679688 327.636719 Z M 353.003906 347.835938"/></g></g></g></g></svg>