<svg xmlns="http://www.w3.org/2000/svg" width="705" viewBox="0 0 705 591" height="591" version="1.0"><defs><clipPath id="a"><path d="M 144.167969 242 L 370 242 L 370 447 L 144.167969 447 Z M 144.167969 242"/></clipPath><clipPath id="b"><path d="M 377 58 L 560.460938 58 L 560.460938 453.933594 L 377 453.933594 Z M 377 58"/></clipPath><clipPath id="c"><path d="M 468 37.636719 L 512 37.636719 L 512 66 L 468 66 Z M 468 37.636719"/></clipPath><clipPath id="d"><path d="M 426 37.636719 L 469 37.636719 L 469 66 L 426 66 Z M 426 37.636719"/></clipPath><clipPath id="e"><path d="M 468 37.636719 L 512 37.636719 L 512 66 L 468 66 Z M 468 37.636719"/></clipPath><clipPath id="f"><path d="M 426 37.636719 L 469 37.636719 L 469 66 L 426 66 Z M 426 37.636719"/></clipPath></defs><g fill="#5E7F38"><g><g><path d="M 7.8125 0 L 7.8125 -57.515625 L 24.234375 -57.515625 C 30.898438 -57.515625 36.203125 -56.382812 40.140625 -54.125 C 44.078125 -51.863281 46.046875 -48.472656 46.046875 -43.953125 C 46.046875 -40.773438 44.929688 -38.007812 42.703125 -35.65625 C 40.472656 -33.3125 37.359375 -31.53125 33.359375 -30.3125 C 38.628906 -29.332031 42.609375 -27.550781 45.296875 -24.96875 C 47.992188 -22.394531 49.34375 -19.570312 49.34375 -16.5 C 49.34375 -13.4375 48.5625 -10.816406 47 -8.640625 C 45.4375 -6.472656 43.4375 -4.8125 41 -3.65625 C 36.082031 -1.21875 31.046875 0 25.890625 0 Z M 16.25 -31.1875 L 22.5 -31.1875 C 27.769531 -31.1875 31.546875 -32.359375 33.828125 -34.703125 C 36.117188 -37.046875 37.265625 -39.988281 37.265625 -43.53125 C 37.265625 -45.90625 36.46875 -48.0625 34.875 -50 C 33.28125 -51.9375 30.835938 -53.398438 27.546875 -54.390625 C 23.597656 -54.390625 19.832031 -53.804688 16.25 -52.640625 Z M 16.25 -28.671875 L 16.25 -3.90625 C 18.101562 -3.332031 20.96875 -3.046875 24.84375 -3.046875 C 28.726562 -3.046875 32.175781 -4.113281 35.1875 -6.25 C 38.195312 -8.394531 39.703125 -11.378906 39.703125 -15.203125 C 39.703125 -19.023438 38.050781 -22.222656 34.75 -24.796875 C 31.445312 -27.378906 27.476562 -28.671875 22.84375 -28.671875 Z M 16.25 -28.671875" transform="translate(104.383 539.103)"/></g></g></g><g fill="#5E7F38"><g><g><path d="M 6.515625 0 L 6.515625 -39.265625 L 13.71875 -39.265625 L 13.71875 0 Z M 5.640625 -51.375 C 5.640625 -52.625 6.0625 -53.679688 6.90625 -54.546875 C 7.75 -55.421875 8.789062 -55.859375 10.03125 -55.859375 C 11.28125 -55.859375 12.351562 -55.421875 13.25 -54.546875 C 14.144531 -53.679688 14.59375 -52.640625 14.59375 -51.421875 C 14.59375 -50.210938 14.144531 -49.144531 13.25 -48.21875 C 12.351562 -47.289062 11.296875 -46.828125 10.078125 -46.828125 C 8.859375 -46.828125 7.8125 -47.273438 6.9375 -48.171875 C 6.070312 -49.066406 5.640625 -50.132812 5.640625 -51.375 Z M 5.640625 -51.375" transform="translate(160.328 539.103)"/></g></g></g><g fill="#5E7F38"><g><g><path d="M 23.28125 -40.3125 C 28.375 -40.3125 32.585938 -38.570312 35.921875 -35.09375 C 39.253906 -31.625 40.921875 -26.847656 40.921875 -20.765625 C 40.921875 -16.878906 40.253906 -13.457031 38.921875 -10.5 C 37.585938 -7.550781 35.847656 -5.269531 33.703125 -3.65625 C 29.597656 -0.519531 25.007812 1.046875 19.9375 1.046875 C 14.875 1.046875 10.675781 -0.6875 7.34375 -4.15625 C 4.007812 -7.632812 2.34375 -12.414062 2.34375 -18.5 C 2.34375 -22.382812 2.992188 -25.800781 4.296875 -28.75 C 5.597656 -31.707031 7.320312 -34 9.46875 -35.625 C 13.582031 -38.75 18.1875 -40.3125 23.28125 -40.3125 Z M 21.546875 -1.90625 C 24.097656 -1.90625 26.269531 -2.890625 28.0625 -4.859375 C 31.300781 -8.335938 32.921875 -12.957031 32.921875 -18.71875 C 32.921875 -24.476562 31.9375 -28.96875 29.96875 -32.1875 C 28 -35.40625 24.785156 -37.015625 20.328125 -37.015625 C 17.023438 -35.734375 14.519531 -33.484375 12.8125 -30.265625 C 11.101562 -27.054688 10.25 -23.175781 10.25 -18.625 C 10.25 -14.082031 11.175781 -10.160156 13.03125 -6.859375 C 14.882812 -3.554688 17.722656 -1.90625 21.546875 -1.90625 Z M 21.546875 -1.90625" transform="translate(180.57 539.103)"/></g></g></g><g fill="#5E7F38"><g><g><path d="M 26.75 -39.265625 L 26.75 -36.140625 L 16.25 -36.140625 L 16.25 0 L 8.953125 0 L 8.953125 -36.140625 L 1.828125 -37.53125 L 1.828125 -39.265625 L 9.03125 -39.265625 C 9.382812 -45.398438 11.019531 -50.410156 13.9375 -54.296875 C 16.863281 -58.179688 20.816406 -60.125 25.796875 -60.125 C 27.421875 -60.125 29.625 -59.773438 32.40625 -59.078125 L 31.53125 -53.421875 C 30.257812 -54.117188 28.625 -54.726562 26.625 -55.25 C 24.625 -55.769531 23.101562 -56.03125 22.0625 -56.03125 C 20.09375 -55.050781 18.660156 -52.851562 17.765625 -49.4375 C 16.867188 -46.019531 16.363281 -42.628906 16.25 -39.265625 Z M 26.75 -39.265625" transform="translate(224.005 539.103)"/></g></g></g><g fill="#5E7F38"><g><g><path d="M 9.125 -21.375 C 9.125 -15.113281 10.523438 -10.609375 13.328125 -7.859375 C 16.140625 -5.109375 19.554688 -3.734375 23.578125 -3.734375 C 27.609375 -3.734375 31.332031 -4.515625 34.75 -6.078125 L 34.75 -3.046875 C 30 -0.316406 25.453125 1.046875 21.109375 1.046875 C 15.492188 1.046875 10.945312 -0.660156 7.46875 -4.078125 C 4 -7.492188 2.265625 -12.445312 2.265625 -18.9375 C 2.265625 -25.425781 4.1875 -30.609375 8.03125 -34.484375 C 11.882812 -38.367188 16.535156 -40.3125 21.984375 -40.3125 C 26.210938 -40.3125 29.742188 -38.644531 32.578125 -35.3125 C 35.410156 -31.976562 36.828125 -27.332031 36.828125 -21.375 Z M 17.546875 -36.234375 C 15.523438 -35.242188 13.789062 -33.660156 12.34375 -31.484375 C 10.894531 -29.316406 9.9375 -26.816406 9.46875 -23.984375 L 29.796875 -23.984375 C 29.617188 -26.410156 29.050781 -28.492188 28.09375 -30.234375 C 27.144531 -31.972656 26.003906 -33.25 24.671875 -34.0625 C 22.296875 -35.507812 19.921875 -36.234375 17.546875 -36.234375 Z M 17.546875 -36.234375" transform="translate(252.934 539.103)"/></g></g></g><g fill="#5E7F38"><g><g><path d="M 12.859375 0 L 5.5625 0 L 5.5625 -39.265625 L 10.59375 -39.265625 L 12.59375 -31.96875 C 13.75 -34 15.585938 -35.910156 18.109375 -37.703125 C 20.628906 -39.492188 23.222656 -40.59375 25.890625 -41 L 26.75 -35.015625 C 24.613281 -35.015625 22.195312 -34.347656 19.5 -33.015625 C 16.8125 -31.679688 14.597656 -30.203125 12.859375 -28.578125 Z M 12.859375 0" transform="translate(293.677 539.103)"/></g></g></g><g fill="#5E7F38"><g><g><path d="M 15.203125 -7.640625 C 15.203125 -5.898438 15.546875 -4.597656 16.234375 -3.734375 C 16.929688 -2.867188 18.09375 -2.4375 19.71875 -2.4375 C 21.34375 -2.4375 23.285156 -2.867188 25.546875 -3.734375 L 25.546875 -1.296875 C 22.179688 0.265625 19.164062 1.046875 16.5 1.046875 C 13.84375 1.046875 11.742188 0.304688 10.203125 -1.171875 C 8.671875 -2.648438 7.90625 -4.953125 7.90625 -8.078125 L 7.90625 -36.140625 L 0.875 -37.53125 L 0.875 -39.265625 L 7.90625 -39.265625 L 7.90625 -42.390625 L 15.203125 -47.6875 L 15.203125 -39.265625 L 25.546875 -39.265625 L 25.546875 -36.140625 L 15.203125 -36.140625 Z M 15.203125 -7.640625" transform="translate(321.302 539.103)"/></g></g></g><g fill="#5E7F38"><g><g><path d="M 6.515625 0 L 6.515625 -39.265625 L 13.71875 -39.265625 L 13.71875 0 Z M 5.640625 -51.375 C 5.640625 -52.625 6.0625 -53.679688 6.90625 -54.546875 C 7.75 -55.421875 8.789062 -55.859375 10.03125 -55.859375 C 11.28125 -55.859375 12.351562 -55.421875 13.25 -54.546875 C 14.144531 -53.679688 14.59375 -52.640625 14.59375 -51.421875 C 14.59375 -50.210938 14.144531 -49.144531 13.25 -48.21875 C 12.351562 -47.289062 11.296875 -46.828125 10.078125 -46.828125 C 8.859375 -46.828125 7.8125 -47.273438 6.9375 -48.171875 C 6.070312 -49.066406 5.640625 -50.132812 5.640625 -51.375 Z M 5.640625 -51.375" transform="translate(349.883 539.103)"/></g></g></g><g fill="#5E7F38"><g><g><path d="M 13.8125 -59.328125 L 13.8125 0 L 6.515625 0 L 6.515625 -59.328125 Z M 13.8125 -59.328125" transform="translate(370.124 539.103)"/></g></g></g><g fill="#5E7F38"><g><g><path d="M 6.515625 0 L 6.515625 -39.265625 L 13.71875 -39.265625 L 13.71875 0 Z M 5.640625 -51.375 C 5.640625 -52.625 6.0625 -53.679688 6.90625 -54.546875 C 7.75 -55.421875 8.789062 -55.859375 10.03125 -55.859375 C 11.28125 -55.859375 12.351562 -55.421875 13.25 -54.546875 C 14.144531 -53.679688 14.59375 -52.640625 14.59375 -51.421875 C 14.59375 -50.210938 14.144531 -49.144531 13.25 -48.21875 C 12.351562 -47.289062 11.296875 -46.828125 10.078125 -46.828125 C 8.859375 -46.828125 7.8125 -47.273438 6.9375 -48.171875 C 6.070312 -49.066406 5.640625 -50.132812 5.640625 -51.375 Z M 5.640625 -51.375" transform="translate(390.452 539.103)"/></g></g></g><g fill="#5E7F38"><g><g><path d="M 3.90625 0 L 3.90625 -2.609375 L 27.109375 -36.40625 L 5.734375 -35.625 L 4.859375 -39.265625 L 35.015625 -39.265625 L 35.015625 -36.828125 L 11.90625 -3.125 L 35.265625 -4.078125 L 36.140625 0 Z M 3.90625 0" transform="translate(410.693 539.103)"/></g></g></g><g fill="#5E7F38"><g><g><path d="M 24.765625 -9.203125 L 24.765625 -18.15625 C 20.585938 -17.863281 17.164062 -16.9375 14.5 -15.375 C 11.84375 -13.8125 10.515625 -12.128906 10.515625 -10.328125 C 10.515625 -8.535156 10.976562 -6.988281 11.90625 -5.6875 C 12.832031 -4.382812 14.019531 -3.472656 15.46875 -2.953125 C 17.375 -3.296875 19.398438 -4.25 21.546875 -5.8125 C 23.691406 -7.382812 24.765625 -8.515625 24.765625 -9.203125 Z M 31.890625 -11.546875 C 31.890625 -7.441406 33.394531 -4.316406 36.40625 -2.171875 L 31.890625 1.125 L 24.84375 -5.21875 C 20.269531 -1.039062 16.039062 1.046875 12.15625 1.046875 C 9.613281 1.046875 7.425781 0.234375 5.59375 -1.390625 C 3.769531 -3.015625 2.859375 -5.054688 2.859375 -7.515625 C 2.859375 -9.972656 3.597656 -12.015625 5.078125 -13.640625 C 6.554688 -15.265625 8.515625 -16.507812 10.953125 -17.375 C 15.117188 -18.9375 19.722656 -19.921875 24.765625 -20.328125 L 24.765625 -28.5 C 24.765625 -33.300781 21.984375 -35.703125 16.421875 -35.703125 C 13.234375 -35.703125 9.46875 -35.007812 5.125 -33.625 L 4.34375 -35.796875 C 5.5 -36.722656 7.507812 -37.707031 10.375 -38.75 C 13.25 -39.789062 15.988281 -40.3125 18.59375 -40.3125 C 21.195312 -40.3125 23.378906 -39.960938 25.140625 -39.265625 C 26.910156 -38.566406 28.210938 -37.785156 29.046875 -36.921875 C 29.890625 -36.054688 30.539062 -34.867188 31 -33.359375 C 31.46875 -31.847656 31.734375 -30.660156 31.796875 -29.796875 C 31.859375 -28.929688 31.890625 -27.773438 31.890625 -26.328125 Z M 31.890625 -11.546875" transform="translate(449.264 539.103)"/></g></g></g><g fill="#5E7F38"><g><g><path d="M 14.078125 -33.703125 C 16.503906 -36.023438 18.628906 -37.707031 20.453125 -38.75 C 22.285156 -39.789062 24.445312 -40.3125 26.9375 -40.3125 C 29.425781 -40.3125 31.726562 -39.328125 33.84375 -37.359375 C 35.957031 -35.390625 37.015625 -32 37.015625 -27.1875 L 37.015625 0 L 29.625 0 L 29.625 -26.328125 C 29.625 -29.160156 29.113281 -31.285156 28.09375 -32.703125 C 27.082031 -34.128906 25.347656 -34.84375 22.890625 -34.84375 C 20.429688 -34.84375 17.578125 -33.21875 14.328125 -29.96875 L 14.328125 0 L 6.953125 0 L 6.953125 -27.28125 C 6.953125 -31.21875 5.472656 -34.375 2.515625 -36.75 L 6.953125 -40.046875 Z M 14.078125 -33.703125" transform="translate(487.835 539.103)"/></g></g></g><g fill="#5E7F38"><g><g><path d="M 15.203125 -7.640625 C 15.203125 -5.898438 15.546875 -4.597656 16.234375 -3.734375 C 16.929688 -2.867188 18.09375 -2.4375 19.71875 -2.4375 C 21.34375 -2.4375 23.285156 -2.867188 25.546875 -3.734375 L 25.546875 -1.296875 C 22.179688 0.265625 19.164062 1.046875 16.5 1.046875 C 13.84375 1.046875 11.742188 0.304688 10.203125 -1.171875 C 8.671875 -2.648438 7.90625 -4.953125 7.90625 -8.078125 L 7.90625 -36.140625 L 0.875 -37.53125 L 0.875 -39.265625 L 7.90625 -39.265625 L 7.90625 -42.390625 L 15.203125 -47.6875 L 15.203125 -39.265625 L 25.546875 -39.265625 L 25.546875 -36.140625 L 15.203125 -36.140625 Z M 15.203125 -7.640625" transform="translate(531.271 539.103)"/></g></g></g><g fill="#5E7F38"><g><g><path d="M 9.125 -21.375 C 9.125 -15.113281 10.523438 -10.609375 13.328125 -7.859375 C 16.140625 -5.109375 19.554688 -3.734375 23.578125 -3.734375 C 27.609375 -3.734375 31.332031 -4.515625 34.75 -6.078125 L 34.75 -3.046875 C 30 -0.316406 25.453125 1.046875 21.109375 1.046875 C 15.492188 1.046875 10.945312 -0.660156 7.46875 -4.078125 C 4 -7.492188 2.265625 -12.445312 2.265625 -18.9375 C 2.265625 -25.425781 4.1875 -30.609375 8.03125 -34.484375 C 11.882812 -38.367188 16.535156 -40.3125 21.984375 -40.3125 C 26.210938 -40.3125 29.742188 -38.644531 32.578125 -35.3125 C 35.410156 -31.976562 36.828125 -27.332031 36.828125 -21.375 Z M 17.546875 -36.234375 C 15.523438 -35.242188 13.789062 -33.660156 12.34375 -31.484375 C 10.894531 -29.316406 9.9375 -26.816406 9.46875 -23.984375 L 29.796875 -23.984375 C 29.617188 -26.410156 29.050781 -28.492188 28.09375 -30.234375 C 27.144531 -31.972656 26.003906 -33.25 24.671875 -34.0625 C 22.296875 -35.507812 19.921875 -36.234375 17.546875 -36.234375 Z M 17.546875 -36.234375" transform="translate(559.852 539.103)"/></g></g></g><g clip-path="url(#a)"><path fill="#E0A43A" d="M 357.378906 405.578125 C 363.242188 390.054688 369.953125 367.957031 369.953125 348.09375 C 369.953125 312.816406 355.84375 242.257812 355.84375 242.257812 L 158.277344 242.257812 C 158.277344 242.257812 144.167969 298.703125 144.167969 341.039062 C 144.167969 372.789062 152.105469 408.511719 156.070312 424.390625 C 157.515625 430.167969 158.277344 436.109375 158.277344 442.070312 L 158.277344 446.875 L 182.234375 440.886719 C 203.738281 435.507812 226 433.789062 248.085938 435.792969 L 369.953125 446.875 L 365.183594 442.105469 C 355.601562 432.523438 352.589844 418.257812 357.378906 405.578125 Z M 357.378906 405.578125"/></g><path fill="#E0A43A" d="M 362.898438 235.199219 L 362.898438 214.03125 C 362.898438 210.136719 359.738281 206.976562 355.84375 206.976562 L 158.277344 206.976562 C 154.382812 206.976562 151.222656 210.136719 151.222656 214.03125 L 151.222656 235.199219 C 151.222656 239.09375 154.382812 242.257812 158.277344 242.257812 L 355.84375 242.257812 C 359.738281 242.257812 362.898438 239.09375 362.898438 235.199219 Z M 362.898438 235.199219"/><path fill="#69A43E" d="M 228.835938 348.09375 L 242.949219 348.09375 C 242.949219 324.710938 223.996094 305.757812 200.613281 305.757812 L 186.5 305.757812 C 186.5 329.140625 205.453125 348.09375 228.835938 348.09375 Z M 228.835938 348.09375"/><path fill="#69A43E" d="M 271.171875 355.148438 C 302.34375 355.148438 327.617188 329.875 327.617188 298.703125 L 299.394531 298.703125 C 268.222656 298.703125 242.949219 323.976562 242.949219 355.148438 Z M 271.171875 355.148438"/><path fill="#CF952F" d="M 357.378906 405.578125 C 363.242188 390.054688 369.953125 367.957031 369.953125 348.09375 C 369.953125 323.597656 363.152344 282.101562 358.996094 259.019531 C 358.96875 258.871094 358.945312 258.738281 358.917969 258.589844 C 358.699219 257.390625 358.496094 256.242188 358.289062 255.148438 C 358.253906 254.941406 358.210938 254.738281 358.175781 254.535156 C 357.726562 252.0625 357.316406 249.910156 356.976562 248.121094 C 356.976562 248.113281 356.976562 248.105469 356.972656 248.089844 C 356.625 246.277344 356.351562 244.839844 356.152344 243.851562 C 356.125 243.722656 356.109375 243.644531 356.089844 243.535156 C 356.039062 243.265625 355.988281 243.039062 355.953125 242.855469 C 355.917969 242.679688 355.898438 242.582031 355.882812 242.488281 C 355.863281 242.339844 331.554688 242.257812 331.554688 242.257812 L 158.277344 242.257812 C 158.277344 242.257812 156.175781 250.6875 153.601562 263.421875 L 290.824219 263.421875 C 316.84375 263.421875 338.753906 283.285156 340.890625 309.214844 C 341.417969 315.664062 341.730469 321.683594 341.730469 326.925781 C 341.730469 346.789062 335.019531 368.886719 329.15625 384.410156 C 324.367188 397.089844 327.378906 411.355469 336.960938 420.9375 L 341.730469 425.707031 L 219.855469 414.628906 C 198.074219 412.648438 176.128906 414.335938 154.890625 419.542969 C 155.308594 421.292969 155.710938 422.949219 156.070312 424.390625 C 157.515625 430.167969 158.277344 436.109375 158.277344 442.070312 L 158.277344 446.875 L 182.234375 440.886719 C 203.738281 435.507812 226 433.789062 248.085938 435.792969 L 369.953125 446.875 L 365.183594 442.105469 C 355.601562 432.523438 352.589844 418.257812 357.378906 405.578125 Z M 357.378906 405.578125"/><path fill="#69A43E" d="M 319.3125 174.597656 L 317.078125 173.484375 C 314.734375 172.3125 312.746094 170.554688 311.292969 168.375 L 305.757812 160.078125 C 302 154.4375 294.929688 152.011719 288.5 154.15625 C 282.363281 156.203125 275.601562 154.09375 271.722656 148.914062 L 267.453125 143.21875 C 261.964844 135.902344 251.265625 135.140625 244.804688 141.613281 L 242.949219 143.472656 L 232.941406 153.480469 C 230.425781 156 226.707031 156.875 223.324219 155.75 L 213.179688 152.371094 C 209.800781 151.25 206.082031 152.125 203.5625 154.644531 L 197.664062 160.542969 C 195.144531 163.0625 194.269531 166.78125 195.390625 170.160156 L 195.460938 170.363281 C 197.464844 176.375 193.050781 182.246094 186.726562 182.734375 C 184.054688 182.929688 181.464844 183.792969 179.445312 185.808594 C 172.390625 192.863281 179.445312 206.976562 179.445312 206.976562 L 327.617188 206.976562 L 327.617188 188.039062 C 327.617188 182.351562 324.402344 177.144531 319.3125 174.597656 Z M 319.3125 174.597656"/><path fill="#5A8C35" d="M 176.777344 191.007812 C 175.140625 198.191406 179.445312 206.976562 179.445312 206.976562 L 327.617188 206.976562 L 327.617188 199.125 L 179.445312 199.125 C 179.445312 199.125 177.644531 195.496094 176.777344 191.007812 Z M 176.777344 191.007812"/><g clip-path="url(#b)"><path fill="#664B00" d="M 553.40625 312.816406 L 525.183594 312.816406 C 521.292969 312.816406 518.125 309.652344 518.125 305.757812 C 518.125 294.089844 508.628906 284.589844 496.960938 284.589844 L 475.792969 284.589844 L 475.792969 65.859375 C 475.792969 61.957031 472.628906 58.804688 468.734375 58.804688 C 464.839844 58.804688 461.679688 61.957031 461.679688 65.859375 L 461.679688 284.589844 L 440.511719 284.589844 C 428.84375 284.589844 419.34375 294.089844 419.34375 305.757812 C 419.34375 309.652344 416.175781 312.816406 412.289062 312.816406 L 384.066406 312.816406 C 380.171875 312.816406 377.007812 315.96875 377.007812 319.871094 C 377.007812 323.773438 380.171875 326.925781 384.066406 326.925781 L 412.289062 326.925781 C 423.960938 326.925781 433.457031 317.429688 433.457031 305.757812 C 433.457031 301.863281 436.625 298.703125 440.511719 298.703125 L 460.855469 298.703125 L 455.097656 350.554688 L 416.191406 370.007812 C 412.707031 371.753906 411.292969 375.992188 413.035156 379.476562 C 414.273438 381.949219 416.761719 383.375 419.351562 383.375 C 420.410156 383.375 421.488281 383.132812 422.5 382.632812 L 454.625 366.566406 L 454.625 409.121094 L 427.945312 442.464844 C 425.511719 445.515625 426.003906 449.953125 429.046875 452.386719 C 430.351562 453.429688 431.902344 453.933594 433.457031 453.933594 C 435.523438 453.933594 437.578125 453.023438 438.96875 451.285156 L 467.191406 416.007812 C 468.191406 414.75 468.734375 413.207031 468.734375 411.597656 L 468.734375 372.183594 L 484.914062 388.363281 C 485.902344 389.347656 487.152344 390.011719 488.519531 390.289062 L 523.800781 397.34375 C 527.625 398.113281 531.335938 395.636719 532.105469 391.8125 C 532.875 387.988281 530.390625 384.277344 526.574219 383.507812 L 493.390625 376.875 L 469.074219 352.558594 L 475.050781 298.703125 L 496.960938 298.703125 C 500.847656 298.703125 504.015625 301.863281 504.015625 305.757812 C 504.015625 317.429688 513.511719 326.925781 525.183594 326.925781 L 553.40625 326.925781 C 557.300781 326.925781 560.460938 323.773438 560.460938 319.871094 C 560.460938 315.96875 557.300781 312.816406 553.40625 312.816406 Z M 553.40625 312.816406"/></g><path fill="#5A8C35" d="M 235.890625 192.863281 C 224.222656 192.863281 214.726562 183.367188 214.726562 171.699219 C 214.726562 167.796875 217.886719 164.640625 221.78125 164.640625 C 225.675781 164.640625 228.835938 167.796875 228.835938 171.699219 C 228.835938 175.59375 232.003906 178.753906 235.890625 178.753906 C 239.789062 178.753906 242.949219 181.90625 242.949219 185.808594 C 242.949219 189.710938 239.789062 192.863281 235.890625 192.863281 Z M 235.890625 192.863281"/><path fill="#5A8C35" d="M 292.339844 185.808594 C 288.445312 185.808594 285.285156 182.65625 285.285156 178.753906 C 285.285156 174.859375 282.117188 171.699219 278.226562 171.699219 C 274.332031 171.699219 271.171875 168.542969 271.171875 164.640625 C 271.171875 160.738281 274.332031 157.585938 278.226562 157.585938 C 289.898438 157.585938 299.394531 167.082031 299.394531 178.753906 C 299.394531 182.65625 296.234375 185.808594 292.339844 185.808594 Z M 292.339844 185.808594"/><path fill="#5A8C35" d="M 257.058594 164.640625 L 250.003906 164.640625 C 246.109375 164.640625 242.949219 161.488281 242.949219 157.585938 C 242.949219 153.683594 246.109375 150.53125 250.003906 150.53125 L 257.058594 150.53125 C 260.953125 150.53125 264.117188 153.683594 264.117188 157.585938 C 264.117188 161.488281 260.953125 164.640625 257.058594 164.640625 Z M 257.058594 164.640625"/><path fill="#5A8C35" d="M 264.117188 192.863281 C 262.308594 192.863281 260.503906 192.171875 259.128906 190.796875 L 252.070312 183.742188 C 249.3125 180.984375 249.3125 176.523438 252.070312 173.765625 C 254.832031 171.007812 259.289062 171.007812 262.046875 173.765625 L 269.105469 180.820312 C 271.863281 183.578125 271.863281 188.039062 269.105469 190.796875 C 267.726562 192.171875 265.921875 192.863281 264.117188 192.863281 Z M 264.117188 192.863281"/><path fill="#664B00" d="M 326.039062 425.269531 C 325.410156 425.269531 324.773438 425.1875 324.140625 425.011719 C 322.730469 424.613281 320.414062 423.988281 317.421875 423.210938 C 313.65625 422.230469 311.390625 418.371094 312.371094 414.601562 C 313.351562 410.835938 317.191406 408.535156 320.980469 409.550781 C 324.078125 410.355469 326.476562 411.011719 327.929688 411.421875 C 331.683594 412.464844 333.878906 416.351562 332.832031 420.105469 C 331.957031 423.226562 329.121094 425.269531 326.039062 425.269531 Z M 179.4375 418.652344 C 176.050781 418.652344 173.058594 416.203125 172.488281 412.746094 C 171.851562 408.902344 174.449219 405.269531 178.296875 404.640625 C 178.296875 404.640625 180.957031 404.195312 185.402344 403.53125 C 189.253906 402.996094 192.84375 405.613281 193.421875 409.464844 C 194 413.324219 191.347656 416.917969 187.488281 417.496094 C 183.207031 418.136719 180.632812 418.5625 180.59375 418.5625 C 180.207031 418.625 179.820312 418.652344 179.4375 418.652344 Z M 291.683594 417 C 291.21875 417 290.738281 416.953125 290.257812 416.851562 C 288.015625 416.394531 285.726562 415.941406 283.433594 415.511719 C 279.609375 414.785156 277.089844 411.101562 277.8125 407.273438 C 278.53125 403.445312 282.234375 400.933594 286.050781 401.648438 C 288.421875 402.09375 290.78125 402.558594 293.101562 403.03125 C 296.917969 403.8125 299.382812 407.546875 298.589844 411.363281 C 297.90625 414.703125 294.964844 417 291.683594 417 Z M 214.464844 413.910156 C 210.90625 413.910156 207.84375 411.230469 207.457031 407.609375 C 207.042969 403.730469 209.84375 400.25 213.714844 399.835938 C 216.050781 399.582031 218.421875 399.339844 220.8125 399.109375 C 224.75 398.664062 228.144531 401.578125 228.511719 405.449219 C 228.878906 409.324219 226.042969 412.773438 222.160156 413.148438 C 219.820312 413.375 217.496094 413.613281 215.21875 413.863281 C 214.972656 413.898438 214.71875 413.910156 214.464844 413.910156 Z M 256.765625 411.824219 C 256.617188 411.824219 256.46875 411.816406 256.320312 411.808594 C 254.117188 411.675781 252.007812 411.597656 250.003906 411.597656 C 246.109375 411.597656 242.800781 408.441406 242.800781 404.539062 C 242.800781 400.640625 245.804688 397.484375 249.699219 397.484375 L 250.003906 397.484375 C 252.285156 397.484375 254.6875 397.578125 257.195312 397.726562 C 261.082031 397.964844 264.046875 401.308594 263.804688 405.203125 C 263.566406 408.945312 260.460938 411.824219 256.765625 411.824219 Z M 256.765625 411.824219"/><path fill="#69A43E" d="M 525.183594 87.027344 L 511.070312 87.027344 C 487.6875 87.027344 468.734375 105.980469 468.734375 129.363281 L 482.847656 129.363281 C 506.230469 129.363281 525.183594 110.410156 525.183594 87.027344 Z M 525.183594 87.027344"/><path fill="#69A43E" d="M 525.183594 157.585938 L 511.070312 157.585938 C 487.6875 157.585938 468.734375 176.539062 468.734375 199.921875 L 482.847656 199.921875 C 506.230469 199.921875 525.183594 180.96875 525.183594 157.585938 Z M 525.183594 157.585938"/><path fill="#69A43E" d="M 426.402344 87.027344 L 412.289062 87.027344 C 412.289062 110.410156 431.242188 129.363281 454.625 129.363281 L 468.734375 129.363281 C 468.734375 105.980469 449.785156 87.027344 426.402344 87.027344 Z M 426.402344 87.027344"/><path fill="#69A43E" d="M 426.402344 157.585938 L 412.289062 157.585938 C 412.289062 180.96875 431.242188 199.921875 454.625 199.921875 L 468.734375 199.921875 C 468.734375 176.539062 449.785156 157.585938 426.402344 157.585938 Z M 426.402344 157.585938"/><g clip-path="url(#c)"><path fill="#69A43E" d="M 511.070312 37.636719 L 496.960938 37.636719 C 481.371094 37.636719 468.734375 50.273438 468.734375 65.859375 L 482.847656 65.859375 C 498.433594 65.859375 511.070312 53.222656 511.070312 37.636719 Z M 511.070312 37.636719"/></g><g clip-path="url(#d)"><path fill="#69A43E" d="M 440.511719 37.636719 L 426.402344 37.636719 C 426.402344 53.222656 439.039062 65.859375 454.625 65.859375 L 468.734375 65.859375 C 468.734375 50.273438 456.097656 37.636719 440.511719 37.636719 Z M 440.511719 37.636719"/></g><path fill="#69A43E" d="M 525.183594 228.144531 L 511.070312 228.144531 C 487.6875 228.144531 468.734375 247.097656 468.734375 270.480469 L 482.847656 270.480469 C 506.230469 270.480469 525.183594 251.527344 525.183594 228.144531 Z M 525.183594 228.144531"/><path fill="#69A43E" d="M 426.402344 228.144531 L 412.289062 228.144531 C 412.289062 251.527344 431.242188 270.480469 454.625 270.480469 L 468.734375 270.480469 C 468.734375 247.097656 449.785156 228.144531 426.402344 228.144531 Z M 426.402344 228.144531"/><path fill="#5A8C35" d="M 482.847656 122.304688 L 469.371094 122.304688 C 468.984375 124.605469 468.734375 126.957031 468.734375 129.363281 L 482.847656 129.363281 C 506.230469 129.363281 525.183594 110.410156 525.183594 87.027344 L 524.546875 87.027344 C 521.183594 107.042969 503.816406 122.304688 482.847656 122.304688 Z M 482.847656 122.304688"/><path fill="#5A8C35" d="M 482.847656 192.863281 L 469.371094 192.863281 C 468.984375 195.164062 468.734375 197.515625 468.734375 199.921875 L 482.847656 199.921875 C 506.230469 199.921875 525.183594 180.96875 525.183594 157.585938 L 524.546875 157.585938 C 521.183594 177.601562 503.816406 192.863281 482.847656 192.863281 Z M 482.847656 192.863281"/><path fill="#5A8C35" d="M 454.625 122.304688 C 433.652344 122.304688 416.289062 107.042969 412.925781 87.027344 L 412.289062 87.027344 C 412.289062 110.410156 431.242188 129.363281 454.625 129.363281 L 468.734375 129.363281 C 468.734375 126.957031 468.488281 124.605469 468.101562 122.304688 Z M 454.625 122.304688"/><path fill="#5A8C35" d="M 454.625 192.863281 C 433.652344 192.863281 416.289062 177.601562 412.925781 157.585938 L 412.289062 157.585938 C 412.289062 180.96875 431.242188 199.921875 454.625 199.921875 L 468.734375 199.921875 C 468.734375 197.515625 468.488281 195.164062 468.101562 192.863281 Z M 454.625 192.863281"/><g clip-path="url(#e)"><path fill="#5A8C35" d="M 482.847656 58.804688 L 469.730469 58.804688 C 469.144531 61.070312 468.734375 63.410156 468.734375 65.859375 L 482.847656 65.859375 C 498.433594 65.859375 511.070312 53.222656 511.070312 37.636719 L 510.074219 37.636719 C 506.921875 49.785156 495.984375 58.804688 482.847656 58.804688 Z M 482.847656 58.804688"/></g><g clip-path="url(#f)"><path fill="#5A8C35" d="M 454.625 58.804688 C 441.484375 58.804688 430.550781 49.785156 427.394531 37.636719 L 426.402344 37.636719 C 426.402344 53.222656 439.039062 65.859375 454.625 65.859375 L 468.734375 65.859375 C 468.734375 63.410156 468.328125 61.070312 467.742188 58.804688 Z M 454.625 58.804688"/></g><path fill="#5A8C35" d="M 482.847656 263.421875 L 469.371094 263.421875 C 468.984375 265.722656 468.734375 268.074219 468.734375 270.480469 L 482.847656 270.480469 C 506.230469 270.480469 525.183594 251.527344 525.183594 228.144531 L 524.546875 228.144531 C 521.183594 248.160156 503.816406 263.421875 482.847656 263.421875 Z M 482.847656 263.421875"/><path fill="#5A8C35" d="M 454.625 263.421875 C 433.652344 263.421875 416.289062 248.160156 412.925781 228.144531 L 412.289062 228.144531 C 412.289062 251.527344 431.242188 270.480469 454.625 270.480469 L 468.734375 270.480469 C 468.734375 268.074219 468.488281 265.722656 468.101562 263.421875 Z M 454.625 263.421875"/></svg>