<svg xmlns="http://www.w3.org/2000/svg" width="705" viewBox="0 0 705 591" height="591" version="1.0"><defs><clipPath id="a"><path d="M 158.488281 37.636719 L 546.332031 37.636719 L 546.332031 426 L 158.488281 426 Z M 158.488281 37.636719"/></clipPath><clipPath id="b"><path d="M 316 425 L 453 425 L 453 453.933594 L 316 453.933594 Z M 316 425"/></clipPath><clipPath id="c"><path d="M 316 426 L 453 426 L 453 453.933594 L 316 453.933594 Z M 316 426"/></clipPath></defs><g fill="#5E7F38"><g><g><path d="M 34.3125 1.046875 C 25.332031 1.046875 17.773438 -1.382812 11.640625 -6.25 C 5.503906 -11.113281 2.4375 -18.09375 2.4375 -27.1875 C 2.4375 -32.519531 3.445312 -37.269531 5.46875 -41.4375 C 7.5 -45.601562 10.164062 -48.875 13.46875 -51.25 C 20.125 -56.113281 27.59375 -58.546875 35.875 -58.546875 C 40.6875 -58.546875 45.695312 -57.679688 50.90625 -55.953125 L 50.046875 -50.046875 C 47.316406 -51.203125 45.203125 -52.066406 43.703125 -52.640625 C 39.359375 -54.203125 34.984375 -54.984375 30.578125 -54.984375 C 24.492188 -53.597656 19.816406 -50.585938 16.546875 -45.953125 C 13.273438 -41.316406 11.640625 -35.523438 11.640625 -28.578125 C 11.640625 -20.066406 13.867188 -13.507812 18.328125 -8.90625 C 22.785156 -4.300781 28.660156 -2 35.953125 -2 C 43.253906 -2 48.703125 -3.5625 52.296875 -6.6875 L 52.296875 -1.90625 C 47.316406 0.0625 41.320312 1.046875 34.3125 1.046875 Z M 34.3125 1.046875" transform="translate(48.306 539.103)"/></g></g></g><g fill="#5E7F38"><g><g><path d="M 23.28125 -40.3125 C 28.375 -40.3125 32.585938 -38.570312 35.921875 -35.09375 C 39.253906 -31.625 40.921875 -26.847656 40.921875 -20.765625 C 40.921875 -16.878906 40.253906 -13.457031 38.921875 -10.5 C 37.585938 -7.550781 35.847656 -5.269531 33.703125 -3.65625 C 29.597656 -0.519531 25.007812 1.046875 19.9375 1.046875 C 14.875 1.046875 10.675781 -0.6875 7.34375 -4.15625 C 4.007812 -7.632812 2.34375 -12.414062 2.34375 -18.5 C 2.34375 -22.382812 2.992188 -25.800781 4.296875 -28.75 C 5.597656 -31.707031 7.320312 -34 9.46875 -35.625 C 13.582031 -38.75 18.1875 -40.3125 23.28125 -40.3125 Z M 21.546875 -1.90625 C 24.097656 -1.90625 26.269531 -2.890625 28.0625 -4.859375 C 31.300781 -8.335938 32.921875 -12.957031 32.921875 -18.71875 C 32.921875 -24.476562 31.9375 -28.96875 29.96875 -32.1875 C 28 -35.40625 24.785156 -37.015625 20.328125 -37.015625 C 17.023438 -35.734375 14.519531 -33.484375 12.8125 -30.265625 C 11.101562 -27.054688 10.25 -23.175781 10.25 -18.625 C 10.25 -14.082031 11.175781 -10.160156 13.03125 -6.859375 C 14.882812 -3.554688 17.722656 -1.90625 21.546875 -1.90625 Z M 21.546875 -1.90625" transform="translate(103.21 539.103)"/></g></g></g><g fill="#5E7F38"><g><g><path d="M 14.078125 -33.703125 C 16.503906 -36.023438 18.628906 -37.707031 20.453125 -38.75 C 22.285156 -39.789062 24.445312 -40.3125 26.9375 -40.3125 C 29.425781 -40.3125 31.726562 -39.328125 33.84375 -37.359375 C 35.957031 -35.390625 37.015625 -32 37.015625 -27.1875 L 37.015625 0 L 29.625 0 L 29.625 -26.328125 C 29.625 -29.160156 29.113281 -31.285156 28.09375 -32.703125 C 27.082031 -34.128906 25.347656 -34.84375 22.890625 -34.84375 C 20.429688 -34.84375 17.578125 -33.21875 14.328125 -29.96875 L 14.328125 0 L 6.953125 0 L 6.953125 -27.28125 C 6.953125 -31.21875 5.472656 -34.375 2.515625 -36.75 L 6.953125 -40.046875 Z M 14.078125 -33.703125" transform="translate(146.645 539.103)"/></g></g></g><g fill="#5E7F38"><g><g><path d="M 15.203125 -7.640625 C 15.203125 -5.898438 15.546875 -4.597656 16.234375 -3.734375 C 16.929688 -2.867188 18.09375 -2.4375 19.71875 -2.4375 C 21.34375 -2.4375 23.285156 -2.867188 25.546875 -3.734375 L 25.546875 -1.296875 C 22.179688 0.265625 19.164062 1.046875 16.5 1.046875 C 13.84375 1.046875 11.742188 0.304688 10.203125 -1.171875 C 8.671875 -2.648438 7.90625 -4.953125 7.90625 -8.078125 L 7.90625 -36.140625 L 0.875 -37.53125 L 0.875 -39.265625 L 7.90625 -39.265625 L 7.90625 -42.390625 L 15.203125 -47.6875 L 15.203125 -39.265625 L 25.546875 -39.265625 L 25.546875 -36.140625 L 15.203125 -36.140625 Z M 15.203125 -7.640625" transform="translate(190.081 539.103)"/></g></g></g><g fill="#5E7F38"><g><g><path d="M 12.859375 0 L 5.5625 0 L 5.5625 -39.265625 L 10.59375 -39.265625 L 12.59375 -31.96875 C 13.75 -34 15.585938 -35.910156 18.109375 -37.703125 C 20.628906 -39.492188 23.222656 -40.59375 25.890625 -41 L 26.75 -35.015625 C 24.613281 -35.015625 22.195312 -34.347656 19.5 -33.015625 C 16.8125 -31.679688 14.597656 -30.203125 12.859375 -28.578125 Z M 12.859375 0" transform="translate(218.662 539.103)"/></g></g></g><g fill="#5E7F38"><g><g><path d="M 23.28125 -40.3125 C 28.375 -40.3125 32.585938 -38.570312 35.921875 -35.09375 C 39.253906 -31.625 40.921875 -26.847656 40.921875 -20.765625 C 40.921875 -16.878906 40.253906 -13.457031 38.921875 -10.5 C 37.585938 -7.550781 35.847656 -5.269531 33.703125 -3.65625 C 29.597656 -0.519531 25.007812 1.046875 19.9375 1.046875 C 14.875 1.046875 10.675781 -0.6875 7.34375 -4.15625 C 4.007812 -7.632812 2.34375 -12.414062 2.34375 -18.5 C 2.34375 -22.382812 2.992188 -25.800781 4.296875 -28.75 C 5.597656 -31.707031 7.320312 -34 9.46875 -35.625 C 13.582031 -38.75 18.1875 -40.3125 23.28125 -40.3125 Z M 21.546875 -1.90625 C 24.097656 -1.90625 26.269531 -2.890625 28.0625 -4.859375 C 31.300781 -8.335938 32.921875 -12.957031 32.921875 -18.71875 C 32.921875 -24.476562 31.9375 -28.96875 29.96875 -32.1875 C 28 -35.40625 24.785156 -37.015625 20.328125 -37.015625 C 17.023438 -35.734375 14.519531 -33.484375 12.8125 -30.265625 C 11.101562 -27.054688 10.25 -23.175781 10.25 -18.625 C 10.25 -14.082031 11.175781 -10.160156 13.03125 -6.859375 C 14.882812 -3.554688 17.722656 -1.90625 21.546875 -1.90625 Z M 21.546875 -1.90625" transform="translate(246.287 539.103)"/></g></g></g><g fill="#5E7F38"><g><g><path d="M 13.8125 -59.328125 L 13.8125 0 L 6.515625 0 L 6.515625 -59.328125 Z M 13.8125 -59.328125" transform="translate(289.723 539.103)"/></g></g></g><g fill="#5E7F38"><g><g><path d="M 7.8125 0 L 7.8125 -57.515625 L 24.234375 -57.515625 C 30.898438 -57.515625 36.203125 -56.382812 40.140625 -54.125 C 44.078125 -51.863281 46.046875 -48.472656 46.046875 -43.953125 C 46.046875 -40.773438 44.929688 -38.007812 42.703125 -35.65625 C 40.472656 -33.3125 37.359375 -31.53125 33.359375 -30.3125 C 38.628906 -29.332031 42.609375 -27.550781 45.296875 -24.96875 C 47.992188 -22.394531 49.34375 -19.570312 49.34375 -16.5 C 49.34375 -13.4375 48.5625 -10.816406 47 -8.640625 C 45.4375 -6.472656 43.4375 -4.8125 41 -3.65625 C 36.082031 -1.21875 31.046875 0 25.890625 0 Z M 16.25 -31.1875 L 22.5 -31.1875 C 27.769531 -31.1875 31.546875 -32.359375 33.828125 -34.703125 C 36.117188 -37.046875 37.265625 -39.988281 37.265625 -43.53125 C 37.265625 -45.90625 36.46875 -48.0625 34.875 -50 C 33.28125 -51.9375 30.835938 -53.398438 27.546875 -54.390625 C 23.597656 -54.390625 19.832031 -53.804688 16.25 -52.640625 Z M 16.25 -28.671875 L 16.25 -3.90625 C 18.101562 -3.332031 20.96875 -3.046875 24.84375 -3.046875 C 28.726562 -3.046875 32.175781 -4.113281 35.1875 -6.25 C 38.195312 -8.394531 39.703125 -11.378906 39.703125 -15.203125 C 39.703125 -19.023438 38.050781 -22.222656 34.75 -24.796875 C 31.445312 -27.378906 27.476562 -28.671875 22.84375 -28.671875 Z M 16.25 -28.671875" transform="translate(331.77 539.103)"/></g></g></g><g fill="#5E7F38"><g><g><path d="M 6.515625 0 L 6.515625 -39.265625 L 13.71875 -39.265625 L 13.71875 0 Z M 5.640625 -51.375 C 5.640625 -52.625 6.0625 -53.679688 6.90625 -54.546875 C 7.75 -55.421875 8.789062 -55.859375 10.03125 -55.859375 C 11.28125 -55.859375 12.351562 -55.421875 13.25 -54.546875 C 14.144531 -53.679688 14.59375 -52.640625 14.59375 -51.421875 C 14.59375 -50.210938 14.144531 -49.144531 13.25 -48.21875 C 12.351562 -47.289062 11.296875 -46.828125 10.078125 -46.828125 C 8.859375 -46.828125 7.8125 -47.273438 6.9375 -48.171875 C 6.070312 -49.066406 5.640625 -50.132812 5.640625 -51.375 Z M 5.640625 -51.375" transform="translate(387.715 539.103)"/></g></g></g><g fill="#5E7F38"><g><g><path d="M 23.28125 -40.3125 C 28.375 -40.3125 32.585938 -38.570312 35.921875 -35.09375 C 39.253906 -31.625 40.921875 -26.847656 40.921875 -20.765625 C 40.921875 -16.878906 40.253906 -13.457031 38.921875 -10.5 C 37.585938 -7.550781 35.847656 -5.269531 33.703125 -3.65625 C 29.597656 -0.519531 25.007812 1.046875 19.9375 1.046875 C 14.875 1.046875 10.675781 -0.6875 7.34375 -4.15625 C 4.007812 -7.632812 2.34375 -12.414062 2.34375 -18.5 C 2.34375 -22.382812 2.992188 -25.800781 4.296875 -28.75 C 5.597656 -31.707031 7.320312 -34 9.46875 -35.625 C 13.582031 -38.75 18.1875 -40.3125 23.28125 -40.3125 Z M 21.546875 -1.90625 C 24.097656 -1.90625 26.269531 -2.890625 28.0625 -4.859375 C 31.300781 -8.335938 32.921875 -12.957031 32.921875 -18.71875 C 32.921875 -24.476562 31.9375 -28.96875 29.96875 -32.1875 C 28 -35.40625 24.785156 -37.015625 20.328125 -37.015625 C 17.023438 -35.734375 14.519531 -33.484375 12.8125 -30.265625 C 11.101562 -27.054688 10.25 -23.175781 10.25 -18.625 C 10.25 -14.082031 11.175781 -10.160156 13.03125 -6.859375 C 14.882812 -3.554688 17.722656 -1.90625 21.546875 -1.90625 Z M 21.546875 -1.90625" transform="translate(407.956 539.103)"/></g></g></g><g fill="#5E7F38"><g><g><path d="M 13.8125 -59.328125 L 13.8125 0 L 6.515625 0 L 6.515625 -59.328125 Z M 13.8125 -59.328125" transform="translate(451.392 539.103)"/></g></g></g><g fill="#5E7F38"><g><g><path d="M 23.28125 -40.3125 C 28.375 -40.3125 32.585938 -38.570312 35.921875 -35.09375 C 39.253906 -31.625 40.921875 -26.847656 40.921875 -20.765625 C 40.921875 -16.878906 40.253906 -13.457031 38.921875 -10.5 C 37.585938 -7.550781 35.847656 -5.269531 33.703125 -3.65625 C 29.597656 -0.519531 25.007812 1.046875 19.9375 1.046875 C 14.875 1.046875 10.675781 -0.6875 7.34375 -4.15625 C 4.007812 -7.632812 2.34375 -12.414062 2.34375 -18.5 C 2.34375 -22.382812 2.992188 -25.800781 4.296875 -28.75 C 5.597656 -31.707031 7.320312 -34 9.46875 -35.625 C 13.582031 -38.75 18.1875 -40.3125 23.28125 -40.3125 Z M 21.546875 -1.90625 C 24.097656 -1.90625 26.269531 -2.890625 28.0625 -4.859375 C 31.300781 -8.335938 32.921875 -12.957031 32.921875 -18.71875 C 32.921875 -24.476562 31.9375 -28.96875 29.96875 -32.1875 C 28 -35.40625 24.785156 -37.015625 20.328125 -37.015625 C 17.023438 -35.734375 14.519531 -33.484375 12.8125 -30.265625 C 11.101562 -27.054688 10.25 -23.175781 10.25 -18.625 C 10.25 -14.082031 11.175781 -10.160156 13.03125 -6.859375 C 14.882812 -3.554688 17.722656 -1.90625 21.546875 -1.90625 Z M 18.859375 -44.046875 L 15.375 -44.046875 L 30.3125 -60.375 L 35.1875 -56.03125 Z M 18.859375 -44.046875" transform="translate(471.72 539.103)"/></g></g></g><g fill="#5E7F38"><g><g><path d="M 11.46875 -7.8125 C 11.46875 -6.71875 12.289062 -5.96875 13.9375 -5.5625 C 15.59375 -5.15625 18.765625 -4.953125 23.453125 -4.953125 C 28.148438 -4.953125 31.914062 -4.429688 34.75 -3.390625 C 37.582031 -2.347656 39 -0.378906 39 2.515625 C 39 6.804688 36.898438 10.671875 32.703125 14.109375 C 28.503906 17.554688 23.363281 19.28125 17.28125 19.28125 C 12.882812 19.28125 9.28125 18.453125 6.46875 16.796875 C 3.664062 15.148438 2.265625 12.796875 2.265625 9.734375 C 2.265625 5.390625 4.632812 2.175781 9.375 0.09375 C 6.71875 -0.894531 5.390625 -2.734375 5.390625 -5.421875 C 5.390625 -8.117188 7.472656 -11.0625 11.640625 -14.25 C 7.296875 -16.507812 5.125 -20.203125 5.125 -25.328125 C 5.125 -30.453125 6.726562 -34.226562 9.9375 -36.65625 C 13.15625 -39.09375 16.765625 -40.3125 20.765625 -40.3125 C 23.597656 -40.3125 26.316406 -39.53125 28.921875 -37.96875 L 36.578125 -40.140625 L 38.3125 -36.40625 L 32.921875 -33.703125 C 34.023438 -31.796875 34.578125 -29.566406 34.578125 -27.015625 C 34.578125 -24.472656 34.066406 -22.226562 33.046875 -20.28125 C 32.035156 -18.34375 30.722656 -16.851562 29.109375 -15.8125 C 25.859375 -13.726562 22.351562 -12.6875 18.59375 -12.6875 C 18.007812 -12.6875 17.195312 -12.742188 16.15625 -12.859375 C 15.175781 -12.566406 14.148438 -11.925781 13.078125 -10.9375 C 12.003906 -9.957031 11.46875 -8.914062 11.46875 -7.8125 Z M 27.71875 -26.234375 C 27.71875 -29.242188 26.921875 -31.863281 25.328125 -34.09375 C 23.734375 -36.320312 21.757812 -37.4375 19.40625 -37.4375 C 17.0625 -37.4375 15.195312 -36.421875 13.8125 -34.390625 C 12.425781 -32.367188 11.734375 -29.75 11.734375 -26.53125 C 11.734375 -23.320312 12.515625 -20.660156 14.078125 -18.546875 C 15.640625 -16.429688 17.519531 -15.375 19.71875 -15.375 C 25.050781 -15.375 27.71875 -18.992188 27.71875 -26.234375 Z M 18.671875 15.296875 C 23.484375 15.296875 27.566406 13.960938 30.921875 11.296875 C 34.285156 8.628906 35.96875 5.960938 35.96875 3.296875 C 33.007812 2.085938 28.878906 1.484375 23.578125 1.484375 C 18.285156 1.484375 14.625 1.304688 12.59375 0.953125 C 10.050781 3.097656 8.78125 5.382812 8.78125 7.8125 C 8.78125 12.800781 12.078125 15.296875 18.671875 15.296875 Z M 18.671875 15.296875" transform="translate(515.156 539.103)"/></g></g></g><g fill="#5E7F38"><g><g><path d="M 6.515625 0 L 6.515625 -39.265625 L 13.71875 -39.265625 L 13.71875 0 Z M 5.640625 -51.375 C 5.640625 -52.625 6.0625 -53.679688 6.90625 -54.546875 C 7.75 -55.421875 8.789062 -55.859375 10.03125 -55.859375 C 11.28125 -55.859375 12.351562 -55.421875 13.25 -54.546875 C 14.144531 -53.679688 14.59375 -52.640625 14.59375 -51.421875 C 14.59375 -50.210938 14.144531 -49.144531 13.25 -48.21875 C 12.351562 -47.289062 11.296875 -46.828125 10.078125 -46.828125 C 8.859375 -46.828125 7.8125 -47.273438 6.9375 -48.171875 C 6.070312 -49.066406 5.640625 -50.132812 5.640625 -51.375 Z M 5.640625 -51.375" transform="translate(557.723 539.103)"/></g></g></g><g fill="#5E7F38"><g><g><path d="M 19.8125 1.046875 C 14.769531 1.046875 10.582031 -0.675781 7.25 -4.125 C 3.925781 -7.570312 2.265625 -12.453125 2.265625 -18.765625 C 2.265625 -25.078125 4.039062 -30.242188 7.59375 -34.265625 C 11.15625 -38.296875 15.691406 -40.3125 21.203125 -40.3125 C 24.265625 -40.3125 27.707031 -39.554688 31.53125 -38.046875 L 30.671875 -32.3125 C 25.566406 -34.976562 21.191406 -36.3125 17.546875 -36.3125 C 14.535156 -34.8125 12.363281 -32.378906 11.03125 -29.015625 C 9.695312 -25.660156 9.03125 -22.359375 9.03125 -19.109375 C 9.03125 -14.710938 10.316406 -11.050781 12.890625 -8.125 C 15.472656 -5.195312 18.5625 -3.734375 22.15625 -3.734375 C 25.75 -3.734375 29.050781 -4.515625 32.0625 -6.078125 L 32.0625 -3.046875 C 27.882812 -0.316406 23.800781 1.046875 19.8125 1.046875 Z M 19.8125 1.046875" transform="translate(577.964 539.103)"/></g></g></g><g fill="#5E7F38"><g><g><path d="M 23.28125 -40.3125 C 28.375 -40.3125 32.585938 -38.570312 35.921875 -35.09375 C 39.253906 -31.625 40.921875 -26.847656 40.921875 -20.765625 C 40.921875 -16.878906 40.253906 -13.457031 38.921875 -10.5 C 37.585938 -7.550781 35.847656 -5.269531 33.703125 -3.65625 C 29.597656 -0.519531 25.007812 1.046875 19.9375 1.046875 C 14.875 1.046875 10.675781 -0.6875 7.34375 -4.15625 C 4.007812 -7.632812 2.34375 -12.414062 2.34375 -18.5 C 2.34375 -22.382812 2.992188 -25.800781 4.296875 -28.75 C 5.597656 -31.707031 7.320312 -34 9.46875 -35.625 C 13.582031 -38.75 18.1875 -40.3125 23.28125 -40.3125 Z M 21.546875 -1.90625 C 24.097656 -1.90625 26.269531 -2.890625 28.0625 -4.859375 C 31.300781 -8.335938 32.921875 -12.957031 32.921875 -18.71875 C 32.921875 -24.476562 31.9375 -28.96875 29.96875 -32.1875 C 28 -35.40625 24.785156 -37.015625 20.328125 -37.015625 C 17.023438 -35.734375 14.519531 -33.484375 12.8125 -30.265625 C 11.101562 -27.054688 10.25 -23.175781 10.25 -18.625 C 10.25 -14.082031 11.175781 -10.160156 13.03125 -6.859375 C 14.882812 -3.554688 17.722656 -1.90625 21.546875 -1.90625 Z M 21.546875 -1.90625" transform="translate(613.234 539.103)"/></g></g></g><g clip-path="url(#a)"><path fill="#B8E171" d="M 546.285156 231.429688 C 546.285156 338.445312 459.472656 425.222656 352.410156 425.222656 C 245.347656 425.222656 158.539062 338.445312 158.539062 231.429688 C 158.539062 124.410156 245.347656 37.636719 352.410156 37.636719 C 459.472656 37.636719 546.285156 124.410156 546.285156 231.429688"/></g><path fill="#8BD6A7" d="M 524.742188 231.429688 C 524.742188 326.558594 447.582031 403.6875 352.410156 403.6875 C 257.242188 403.6875 180.078125 326.558594 180.078125 231.429688 C 180.078125 136.300781 257.242188 59.167969 352.410156 59.167969 C 447.582031 59.167969 524.742188 136.300781 524.742188 231.429688"/><path fill="#49BE75" d="M 467.300781 187.71875 C 466.960938 150.34375 436.585938 118.578125 399.226562 116.671875 C 369.800781 115.1875 344.023438 131.421875 331.625 155.644531 C 323.378906 171.710938 310.140625 184.410156 295.613281 195.09375 C 277.632812 208.269531 266.046875 229.578125 266.246094 253.605469 C 266.582031 290.980469 296.957031 322.746094 334.320312 324.652344 C 363.742188 326.136719 389.519531 309.90625 401.917969 285.679688 C 410.164062 269.617188 423.402344 256.914062 437.933594 246.234375 C 455.910156 233.054688 467.496094 211.746094 467.300781 187.71875"/><path fill="#FBBF50" d="M 303.941406 80.730469 C 287.757812 80.085938 273.3125 89.617188 264.953125 103.496094 C 261.503906 109.214844 259.792969 114.65625 259.261719 119.871094 C 258.585938 126.261719 255.054688 132.207031 249.386719 135.207031 C 236.402344 142.101562 228.183594 156.710938 230.847656 172.945312 C 233.203125 187.160156 244.367188 198.933594 258.476562 201.90625 C 277.296875 205.859375 294.292969 195.035156 300.070312 178.914062 C 302.457031 172.1875 307.617188 167.082031 314.460938 165.066406 C 332.242188 159.765625 345.230469 143.28125 345.230469 123.765625 C 345.230469 100.578125 326.914062 81.683594 303.941406 80.730469"/><path fill="#7BD2F4" d="M 316.507812 123.765625 C 316.507812 131.699219 310.085938 138.121094 302.148438 138.121094 C 294.210938 138.121094 287.785156 131.699219 287.785156 123.765625 C 287.785156 115.832031 294.210938 109.410156 302.148438 109.410156 C 310.085938 109.410156 316.507812 115.832031 316.507812 123.765625"/><path fill="#FBBF50" d="M 220.273438 236.699219 L 227.847656 235.4375 C 241.253906 233.195312 253.988281 242 256.652344 255.316406 C 258.195312 262.886719 256.121094 270.738281 251.097656 276.625 L 237.605469 292.355469 C 226.753906 305 206.808594 303.792969 197.554688 289.941406 L 196.09375 287.726562 C 190.710938 279.652344 190.457031 269.195312 195.449219 260.839844 L 202.828125 248.558594 C 206.613281 242.25 212.980469 237.90625 220.273438 236.699219"/><path fill="#F05075" d="M 321.640625 129.175781 C 314.796875 131.195312 309.636719 136.300781 307.253906 143.027344 C 301.472656 159.148438 284.476562 169.972656 265.65625 166.019531 C 253.539062 163.46875 243.664062 154.4375 239.597656 142.945312 C 232.640625 150.652344 228.941406 161.363281 230.847656 172.945312 C 233.203125 187.160156 244.367188 198.933594 258.476562 201.90625 C 277.296875 205.859375 294.292969 195.035156 300.070312 178.914062 C 302.457031 172.1875 307.617188 167.082031 314.460938 165.066406 C 332.242188 159.765625 345.230469 143.28125 345.230469 123.765625 C 345.230469 120.207031 344.753906 116.785156 343.941406 113.476562 C 338.441406 120.878906 330.671875 126.484375 321.640625 129.175781"/><path fill="#F05075" d="M 244.789062 270.820312 C 233.933594 283.464844 213.988281 282.261719 204.734375 268.410156 L 203.273438 266.195312 C 200.917969 262.664062 199.601562 258.652344 199.207031 254.558594 L 195.449219 260.839844 C 190.457031 269.195312 190.710938 279.652344 196.09375 287.726562 L 197.554688 289.941406 C 206.808594 303.792969 226.753906 305 237.605469 292.355469 L 251.097656 276.597656 C 255.78125 271.128906 257.773438 263.925781 256.792969 256.800781 L 244.789062 270.820312"/><path fill="#56B6E7" d="M 273.425781 166.832031 C 273.425781 170.785156 270.199219 174.007812 266.246094 174.007812 C 262.289062 174.007812 259.0625 170.785156 259.0625 166.832031 C 259.0625 162.878906 262.289062 159.652344 266.246094 159.652344 C 270.199219 159.652344 273.425781 162.878906 273.425781 166.832031"/><path fill="#49BE75" d="M 230.34375 267.316406 C 230.34375 271.269531 227.117188 274.492188 223.160156 274.492188 C 219.207031 274.492188 215.980469 271.269531 215.980469 267.316406 C 215.980469 263.363281 219.207031 260.140625 223.160156 260.140625 C 227.117188 260.140625 230.34375 263.363281 230.34375 267.316406"/><path fill="#56B6E7" d="M 498.546875 241.128906 C 496.695312 241.128906 494.871094 240.429688 493.46875 239.027344 C 485.335938 230.867188 485.335938 217.636719 493.46875 209.476562 C 495.375 207.570312 495.460938 205.355469 495.347656 204.203125 C 495.234375 203.054688 494.703125 200.898438 492.488281 199.410156 C 489.175781 197.195312 488.28125 192.765625 490.46875 189.457031 C 492.683594 186.148438 497.144531 185.25 500.425781 187.464844 C 505.671875 190.945312 509.007812 196.550781 509.652344 202.804688 C 510.269531 209.054688 508.054688 215.195312 503.621094 219.625 C 501.070312 222.175781 501.070312 226.328125 503.621094 228.878906 C 506.425781 231.679688 506.425781 236.222656 503.621094 239.027344 C 502.21875 240.429688 500.367188 241.128906 498.546875 241.128906"/><path fill="#FBBF50" d="M 424.214844 330.484375 C 420.261719 330.484375 417.035156 327.289062 417.035156 323.308594 C 413.082031 326.417969 407.527344 326.699219 402.925781 324.230469 C 398.355469 321.765625 395.496094 317 395.496094 311.8125 L 395.496094 301.773438 L 385.117188 309.175781 C 381.804688 311.363281 377.347656 310.492188 375.160156 307.183594 C 372.941406 303.878906 373.839844 299.417969 377.148438 297.230469 L 387.921875 290.054688 C 392.242188 287.167969 397.820312 286.886719 402.421875 289.355469 C 406.996094 291.820312 409.855469 296.585938 409.855469 301.773438 L 409.855469 311.8125 C 413.808594 308.699219 419.363281 308.417969 423.964844 310.886719 C 428.535156 313.355469 431.398438 318.121094 431.398438 323.308594 C 431.398438 327.289062 428.171875 330.484375 424.214844 330.484375"/><path fill="#346DA7" d="M 294.96875 231.429688 C 294.96875 235.382812 291.742188 238.605469 287.785156 238.605469 C 283.832031 238.605469 280.605469 235.382812 280.605469 231.429688 C 280.605469 227.476562 283.832031 224.25 287.785156 224.25 C 291.742188 224.25 294.96875 227.476562 294.96875 231.429688"/><path fill="#49BE75" d="M 438.578125 281.671875 C 438.578125 285.625 435.351562 288.847656 431.398438 288.847656 C 427.441406 288.847656 424.214844 285.625 424.214844 281.671875 C 424.214844 277.71875 427.441406 274.492188 431.398438 274.492188 C 435.351562 274.492188 438.578125 277.71875 438.578125 281.671875"/><path fill="#56B6E7" d="M 388.3125 109.410156 C 384.359375 109.410156 381.132812 106.1875 381.132812 102.234375 C 381.132812 94.328125 374.683594 87.878906 366.773438 87.878906 C 362.816406 87.878906 359.589844 84.65625 359.589844 80.703125 C 359.589844 76.75 362.816406 73.523438 366.773438 73.523438 C 382.621094 73.523438 395.496094 86.394531 395.496094 102.234375 C 395.496094 106.1875 392.269531 109.410156 388.3125 109.410156"/><path fill="#49BE75" d="M 395.496094 367.800781 C 393.644531 367.800781 391.820312 367.101562 390.417969 365.699219 L 376.054688 351.34375 C 373.25 348.539062 373.25 344 376.054688 341.195312 C 378.859375 338.390625 383.40625 338.390625 386.210938 341.195312 L 400.570312 355.550781 C 403.375 358.351562 403.375 362.894531 400.570312 365.699219 C 399.167969 367.101562 397.34375 367.800781 395.496094 367.800781"/><path fill="#F05075" d="M 387.921875 290.054688 L 377.148438 297.230469 C 373.839844 299.417969 372.941406 303.878906 375.160156 307.183594 C 376.53125 309.289062 378.859375 310.269531 381.21875 310.242188 C 388.957031 304.410156 395.464844 297.035156 400.289062 288.570312 C 396.167969 287.167969 391.625 287.585938 387.921875 290.054688"/><path fill="#346DA7" d="M 265.65625 166.019531 C 263.550781 165.570312 261.5625 164.867188 259.625 164.082031 C 259.261719 164.925781 259.0625 165.851562 259.0625 166.832031 C 259.0625 170.785156 262.289062 174.007812 266.246094 174.007812 C 270.199219 174.007812 273.425781 170.785156 273.425781 166.832031 C 273.425781 166.804688 273.398438 166.773438 273.398438 166.773438 C 270.871094 166.773438 268.292969 166.578125 265.65625 166.019531"/><path fill="#346DA7" d="M 381.132812 195.542969 L 381.132812 224.25 C 428.730469 224.25 467.300781 262.800781 467.300781 310.382812 C 467.300781 357.960938 428.730469 396.511719 381.132812 396.511719 C 349.242188 396.511719 321.5 379.15625 306.578125 353.445312 L 274.660156 353.445312 C 291.714844 395.503906 332.917969 425.222656 381.132812 425.222656 C 444.578125 425.222656 496.019531 373.800781 496.019531 310.382812 C 496.019531 246.960938 444.578125 195.542969 381.132812 195.542969"/><path fill="#A0DFE1" d="M 372.664062 269.140625 L 321.867188 218.390625 L 413.25 127.019531 L 464.046875 177.765625 L 372.664062 269.140625"/><path fill="#56B6E7" d="M 342.171875 279.289062 L 311.710938 248.839844 L 332.019531 228.542969 L 362.480469 258.988281 L 342.171875 279.289062"/><path fill="#A0DFE1" d="M 316.789062 294.511719 L 296.480469 274.214844 L 316.789062 253.914062 L 337.097656 274.214844 L 316.789062 294.511719"/><path fill="#7BD2F4" d="M 484.351562 137.167969 L 453.890625 106.71875 L 423.429688 137.167969 L 453.890625 167.617188 L 484.351562 137.167969"/><path fill="#A0DFE1" d="M 352.410156 353.445312 L 237.523438 353.445312 L 237.523438 324.738281 L 352.410156 324.738281 L 352.410156 353.445312"/><g clip-path="url(#b)"><path fill="#56B6E7" d="M 452.9375 453.933594 L 316.507812 453.933594 C 316.507812 438.089844 329.355469 425.222656 345.230469 425.222656 L 424.214844 425.222656 C 440.09375 425.222656 452.9375 438.089844 452.9375 453.933594"/></g><path fill="#7BD2F4" d="M 413.25 199.832031 C 392.242188 220.832031 359.003906 222.148438 336.453125 203.8125 L 321.867188 218.390625 L 372.664062 269.140625 L 464.046875 177.765625 L 449.683594 163.410156 L 413.25 199.832031"/><path fill="#56B6E7" d="M 446.992188 216.375 L 446.964844 216.375 C 439.585938 223.773438 439.894531 235.664062 447.355469 242.980469 C 468.503906 263.8125 481.660156 292.71875 481.660156 324.738281 C 481.660156 352.800781 471.5625 378.484375 454.84375 398.417969 C 480.003906 377.363281 496.019531 345.738281 496.019531 310.382812 C 496.019531 271.464844 476.613281 237.121094 446.992188 216.375"/><path fill="#346DA7" d="M 474.199219 132.960938 C 462.980469 144.175781 444.777344 144.175781 433.585938 132.960938 L 430.613281 129.992188 L 423.429688 137.167969 L 453.890625 167.617188 L 484.351562 137.167969 L 477.171875 129.992188 L 474.199219 132.960938"/><path fill="#346DA7" d="M 332.019531 228.542969 L 324.839844 235.71875 L 332.890625 243.765625 C 340.574219 251.449219 341.164062 263.449219 334.796875 271.886719 L 342.171875 279.289062 L 362.507812 258.988281 L 332.019531 228.542969"/><path fill="#7BD2F4" d="M 316.789062 253.914062 L 309.609375 261.09375 L 312.582031 264.0625 C 318.191406 269.671875 318.191406 278.753906 312.582031 284.363281 L 309.609375 287.335938 L 316.789062 294.511719 L 337.097656 274.214844 L 316.789062 253.914062"/><path fill="#7BD2F4" d="M 251.882812 324.738281 L 237.523438 324.738281 L 237.523438 353.445312 L 352.410156 353.445312 L 352.410156 339.089844 L 266.246094 339.089844 C 258.308594 339.089844 251.882812 332.671875 251.882812 324.738281"/><g clip-path="url(#c)"><path fill="#346DA7" d="M 352.410156 439.578125 C 344.808594 439.578125 338.667969 433.660156 338.164062 426.203125 C 325.738281 429.371094 316.507812 440.53125 316.507812 453.933594 L 452.9375 453.933594 C 452.9375 448.6875 451.421875 443.808594 448.957031 439.578125 L 352.410156 439.578125"/></g></svg>