<svg xmlns="http://www.w3.org/2000/svg" xmlns:xlink="http://www.w3.org/1999/xlink" width="705" viewBox="0 0 705 591" height="591" version="1.0"><defs><clipPath id="a"><path d="M 624 130.664062 L 656 130.664062 L 656 167 L 624 167 Z M 624 130.664062"/></clipPath><clipPath id="b"><path d="M 581 316 L 669 316 L 669 346.296875 L 581 346.296875 Z M 581 316"/></clipPath><clipPath id="c"><path d="M 662.464844 334.527344 C 660.988281 334.527344 659.78125 334.660156 658.8125 334.867188 C 657.945312 334.527344 656.972656 334.339844 655.941406 334.339844 L 655.671875 334.339844 C 655.847656 333.785156 655.941406 333.175781 655.941406 332.546875 C 655.941406 328.558594 652.019531 325.339844 647.167969 325.339844 C 646.652344 325.339844 646.136719 325.371094 645.640625 325.445312 C 643.699219 323.578125 640.808594 322.382812 637.578125 322.382812 C 635.957031 322.382812 634.429688 322.679688 633.066406 323.207031 C 633.097656 322.96875 633.117188 322.730469 633.117188 322.496094 C 633.117188 319.082031 629.742188 316.289062 625.574219 316.289062 C 622.671875 316.289062 620.164062 317.640625 618.894531 319.617188 C 615.796875 319.535156 612.554688 321.0625 611.109375 323.546875 C 609.820312 323.207031 608.449219 323.019531 607.023438 323.019531 C 600.726562 323.019531 595.472656 326.660156 594.242188 331.546875 C 591.210938 330.9375 588.265625 331.96875 588.265625 335.742188 C 584.664062 335.742188 581.742188 338.144531 581.742188 341.09375 C 581.742188 344.082031 584.664062 346.484375 588.265625 346.484375 C 589.453125 346.484375 590.570312 346.21875 591.527344 345.742188 C 592.488281 346.21875 593.605469 346.484375 594.792969 346.484375 C 595.976562 346.484375 597.09375 346.21875 598.054688 345.742188 C 599.011719 346.21875 600.128906 346.484375 601.316406 346.484375 C 603.101562 346.484375 604.722656 345.878906 605.898438 344.929688 C 607.074219 345.878906 608.695312 346.484375 610.492188 346.484375 C 611.308594 346.484375 612.089844 346.351562 612.8125 346.113281 C 613.535156 346.351562 614.320312 346.484375 615.136719 346.484375 C 617.222656 346.484375 619.070312 345.660156 620.265625 344.425781 L 620.453125 344.425781 C 621.648438 345.660156 623.496094 346.484375 625.574219 346.484375 C 627.648438 346.484375 629.496094 345.660156 630.691406 344.425781 C 630.949219 344.453125 631.21875 344.476562 631.488281 344.476562 C 631.796875 344.476562 632.105469 344.453125 632.40625 344.453125 C 633.605469 345.691406 635.441406 346.484375 637.515625 346.484375 C 639.09375 346.484375 640.550781 346.011719 641.6875 345.238281 C 642.253906 345.402344 642.863281 345.476562 643.503906 345.476562 C 644.636719 345.476562 645.703125 345.21875 646.609375 344.742188 C 647.457031 345.082031 648.417969 345.269531 649.417969 345.269531 C 650.699219 345.269531 651.882812 344.949219 652.894531 344.453125 C 653.804688 344.847656 654.847656 345.054688 655.941406 345.054688 C 657.488281 345.054688 658.914062 344.640625 660.027344 343.898438 C 663.972656 346.269531 668.988281 346.558594 668.988281 339.910156 C 668.988281 336.960938 666.066406 334.527344 662.464844 334.527344 Z M 662.464844 334.527344"/></clipPath><clipPath id="d"><path d="M 662.476562 334.515625 C 660.988281 334.515625 659.78125 334.648438 658.8125 334.878906 C 657.945312 334.515625 656.972656 334.332031 655.941406 334.332031 L 655.671875 334.332031 C 655.859375 333.785156 655.941406 333.144531 655.941406 332.558594 C 655.941406 328.578125 652.019531 325.339844 647.167969 325.339844 C 646.652344 325.339844 646.136719 325.382812 645.640625 325.421875 C 643.710938 323.558594 640.808594 322.371094 637.566406 322.371094 C 635.96875 322.371094 634.441406 322.691406 633.066406 323.183594 C 633.097656 322.957031 633.117188 322.730469 633.117188 322.503906 C 633.117188 319.082031 629.742188 316.296875 625.574219 316.296875 C 622.671875 316.296875 620.164062 317.617188 618.894531 319.628906 C 615.796875 319.535156 612.546875 321.042969 611.109375 323.558594 C 609.820312 323.183594 608.457031 323.011719 607.023438 323.011719 C 600.726562 323.011719 595.472656 326.660156 594.242188 331.546875 C 591.210938 330.90625 588.265625 331.960938 588.265625 335.753906 C 584.664062 335.753906 581.753906 338.125 581.753906 341.09375 C 581.753906 344.0625 584.664062 346.484375 588.265625 346.484375 C 589.453125 346.484375 590.570312 346.207031 591.527344 345.753906 C 592.488281 346.207031 593.605469 346.484375 594.792969 346.484375 C 595.976562 346.484375 597.09375 346.207031 598.054688 345.753906 C 599.011719 346.207031 600.128906 346.484375 601.316406 346.484375 C 603.101562 346.484375 604.722656 345.886719 605.898438 344.929688 C 607.074219 345.886719 608.695312 346.484375 610.492188 346.484375 C 611.308594 346.484375 612.089844 346.339844 612.8125 346.113281 C 613.535156 346.339844 614.3125 346.484375 615.136719 346.484375 C 617.222656 346.484375 619.070312 345.660156 620.265625 344.425781 L 620.453125 344.425781 C 621.648438 345.660156 623.496094 346.484375 625.574219 346.484375 C 627.648438 346.484375 629.496094 345.660156 630.691406 344.425781 C 630.949219 344.425781 631.21875 344.476562 631.488281 344.476562 C 631.796875 344.476562 632.105469 344.425781 632.394531 344.425781 C 633.605469 345.660156 635.441406 346.484375 637.515625 346.484375 C 639.09375 346.484375 640.550781 345.980469 641.6875 345.25 C 642.253906 345.382812 642.863281 345.476562 643.503906 345.476562 C 644.636719 345.476562 645.710938 345.207031 646.609375 344.742188 C 647.457031 345.0625 648.417969 345.25 649.429688 345.25 C 650.699219 345.25 651.882812 344.96875 652.894531 344.425781 C 653.804688 344.835938 654.847656 345.0625 655.941406 345.0625 C 657.488281 345.0625 658.914062 344.609375 660.027344 343.878906 C 663.972656 346.25 669 346.578125 668.988281 339.910156 C 668.988281 336.9375 666.066406 334.515625 662.476562 334.515625"/></clipPath><clipPath id="e"><path d="M 669.773438 316.308594 L 581.804688 314.0625 L 580.96875 346.539062 L 668.9375 348.796875 Z M 669.773438 316.308594"/></clipPath><clipPath id="g"><path d="M 440.003906 316 L 529 316 L 529 346.296875 L 440.003906 346.296875 Z M 440.003906 316"/></clipPath><clipPath id="h"><path d="M 521.492188 334.527344 C 520.003906 334.527344 518.796875 334.660156 517.828125 334.867188 C 516.960938 334.527344 515.988281 334.339844 514.96875 334.339844 L 514.6875 334.339844 C 514.863281 333.785156 514.96875 333.175781 514.96875 332.546875 C 514.96875 328.558594 511.035156 325.339844 506.195312 325.339844 C 505.667969 325.339844 505.160156 325.371094 504.65625 325.445312 C 502.714844 323.578125 499.824219 322.382812 496.59375 322.382812 C 494.984375 322.382812 493.457031 322.679688 492.082031 323.207031 C 492.113281 322.96875 492.132812 322.730469 492.132812 322.496094 C 492.132812 319.082031 488.757812 316.289062 484.589844 316.289062 C 481.6875 316.289062 479.179688 317.640625 477.921875 319.617188 C 474.8125 319.535156 471.570312 321.0625 470.125 323.546875 C 468.847656 323.207031 467.472656 323.019531 466.039062 323.019531 C 459.742188 323.019531 454.488281 326.660156 453.269531 331.546875 C 450.226562 330.9375 447.28125 331.96875 447.28125 335.742188 C 443.679688 335.742188 440.757812 338.144531 440.757812 341.09375 C 440.757812 344.082031 443.679688 346.484375 447.28125 346.484375 C 448.46875 346.484375 449.585938 346.21875 450.546875 345.742188 C 451.503906 346.21875 452.621094 346.484375 453.808594 346.484375 C 455.003906 346.484375 456.109375 346.21875 457.070312 345.742188 C 458.027344 346.21875 459.144531 346.484375 460.332031 346.484375 C 462.117188 346.484375 463.738281 345.878906 464.925781 344.929688 C 466.101562 345.878906 467.722656 346.484375 469.507812 346.484375 C 470.324219 346.484375 471.105469 346.351562 471.828125 346.113281 C 472.550781 346.351562 473.335938 346.484375 474.152344 346.484375 C 476.238281 346.484375 478.085938 345.660156 479.28125 344.425781 L 479.46875 344.425781 C 480.664062 345.660156 482.515625 346.484375 484.589844 346.484375 C 486.664062 346.484375 488.511719 345.660156 489.707031 344.425781 C 489.964844 344.453125 490.234375 344.476562 490.503906 344.476562 C 490.8125 344.476562 491.121094 344.453125 491.421875 344.453125 C 492.621094 345.691406 494.457031 346.484375 496.53125 346.484375 C 498.121094 346.484375 499.566406 346.011719 500.703125 345.238281 C 501.269531 345.402344 501.878906 345.476562 502.519531 345.476562 C 503.652344 345.476562 504.71875 345.21875 505.625 344.742188 C 506.484375 345.082031 507.433594 345.269531 508.445312 345.269531 C 509.714844 345.269531 510.910156 344.949219 511.910156 344.453125 C 512.820312 344.847656 513.863281 345.054688 514.96875 345.054688 C 516.503906 345.054688 517.929688 344.640625 519.042969 343.898438 C 522.988281 346.269531 528.015625 346.558594 528.015625 339.910156 C 528.003906 336.960938 525.082031 334.527344 521.492188 334.527344 Z M 521.492188 334.527344"/></clipPath><clipPath id="i"><path d="M 521.480469 334.515625 C 520.003906 334.515625 518.796875 334.648438 517.828125 334.878906 C 516.960938 334.515625 515.988281 334.332031 514.96875 334.332031 L 514.6875 334.332031 C 514.863281 333.785156 514.96875 333.144531 514.96875 332.558594 C 514.96875 328.578125 511.035156 325.339844 506.195312 325.339844 C 505.667969 325.339844 505.160156 325.382812 504.65625 325.421875 C 502.714844 323.558594 499.824219 322.371094 496.59375 322.371094 C 494.972656 322.371094 493.445312 322.691406 492.082031 323.183594 C 492.113281 322.957031 492.132812 322.730469 492.132812 322.503906 C 492.132812 319.082031 488.757812 316.296875 484.589844 316.296875 C 481.699219 316.296875 479.179688 317.617188 477.921875 319.628906 C 474.8125 319.535156 471.570312 321.042969 470.125 323.558594 C 468.847656 323.183594 467.464844 323.011719 466.039062 323.011719 C 459.742188 323.011719 454.488281 326.660156 453.269531 331.546875 C 450.226562 330.90625 447.292969 331.960938 447.292969 335.753906 C 443.679688 335.753906 440.757812 338.125 440.757812 341.09375 C 440.757812 344.0625 443.679688 346.484375 447.292969 346.484375 C 448.480469 346.484375 449.585938 346.207031 450.546875 345.753906 C 451.503906 346.207031 452.621094 346.484375 453.808594 346.484375 C 454.992188 346.484375 456.121094 346.207031 457.070312 345.753906 C 458.027344 346.207031 459.144531 346.484375 460.332031 346.484375 C 462.125 346.484375 463.738281 345.886719 464.925781 344.929688 C 466.101562 345.886719 467.722656 346.484375 469.507812 346.484375 C 470.324219 346.484375 471.105469 346.339844 471.828125 346.113281 C 472.550781 346.339844 473.335938 346.484375 474.152344 346.484375 C 476.238281 346.484375 478.085938 345.660156 479.28125 344.425781 L 479.46875 344.425781 C 480.664062 345.660156 482.515625 346.484375 484.589844 346.484375 C 486.664062 346.484375 488.511719 345.660156 489.707031 344.425781 C 489.964844 344.425781 490.234375 344.476562 490.503906 344.476562 C 490.8125 344.476562 491.121094 344.425781 491.421875 344.425781 C 492.621094 345.660156 494.457031 346.484375 496.53125 346.484375 C 498.121094 346.484375 499.578125 345.980469 500.703125 345.25 C 501.269531 345.382812 501.878906 345.476562 502.519531 345.476562 C 503.652344 345.476562 504.71875 345.207031 505.625 344.742188 C 506.484375 345.0625 507.433594 345.25 508.445312 345.25 C 509.714844 345.25 510.910156 344.96875 511.910156 344.425781 C 512.820312 344.835938 513.863281 345.0625 514.96875 345.0625 C 516.503906 345.0625 517.929688 344.609375 519.042969 343.878906 C 522.988281 346.25 528.015625 346.578125 528.015625 339.910156 C 528.015625 336.9375 525.082031 334.515625 521.480469 334.515625"/></clipPath><clipPath id="j"><path d="M 528.789062 316.308594 L 440.820312 314.0625 L 439.984375 346.539062 L 527.953125 348.796875 Z M 528.789062 316.308594"/></clipPath><clipPath id="l"><path d="M 299 316 L 387.15625 316 L 387.15625 346.296875 L 299 346.296875 Z M 299 316"/></clipPath><clipPath id="m"><path d="M 380.507812 334.527344 C 379.03125 334.527344 377.824219 334.660156 376.84375 334.867188 C 375.976562 334.527344 375.003906 334.339844 373.984375 334.339844 L 373.703125 334.339844 C 373.890625 333.785156 373.984375 333.175781 373.984375 332.546875 C 373.984375 328.558594 370.050781 325.339844 365.210938 325.339844 C 364.683594 325.339844 364.175781 325.371094 363.679688 325.445312 C 361.742188 323.578125 358.839844 322.382812 355.609375 322.382812 C 354 322.382812 352.472656 322.679688 351.097656 323.207031 C 351.128906 322.96875 351.148438 322.730469 351.148438 322.496094 C 351.148438 319.082031 347.773438 316.289062 343.605469 316.289062 C 340.714844 316.289062 338.195312 317.640625 336.9375 319.617188 C 333.839844 319.535156 330.585938 321.0625 329.152344 323.546875 C 327.863281 323.207031 326.488281 323.019531 325.066406 323.019531 C 318.769531 323.019531 313.515625 326.660156 312.285156 331.546875 C 309.242188 330.9375 306.308594 331.96875 306.308594 335.742188 C 302.707031 335.742188 299.785156 338.144531 299.785156 341.09375 C 299.785156 344.082031 302.707031 346.484375 306.308594 346.484375 C 307.496094 346.484375 308.609375 346.21875 309.570312 345.742188 C 310.53125 346.21875 311.644531 346.484375 312.832031 346.484375 C 314.019531 346.484375 315.136719 346.21875 316.085938 345.742188 C 317.054688 346.21875 318.160156 346.484375 319.355469 346.484375 C 321.140625 346.484375 322.761719 345.878906 323.941406 344.929688 C 325.117188 345.878906 326.738281 346.484375 328.523438 346.484375 C 329.339844 346.484375 330.125 346.351562 330.84375 346.113281 C 331.566406 346.351562 332.351562 346.484375 333.167969 346.484375 C 335.253906 346.484375 337.113281 345.660156 338.296875 344.425781 L 338.496094 344.425781 C 339.683594 345.660156 341.53125 346.484375 343.605469 346.484375 C 345.6875 346.484375 347.539062 345.660156 348.722656 344.425781 C 348.992188 344.453125 349.25 344.476562 349.519531 344.476562 C 349.839844 344.476562 350.136719 344.453125 350.4375 344.453125 C 351.636719 345.691406 353.484375 346.484375 355.546875 346.484375 C 357.136719 346.484375 358.59375 346.011719 359.71875 345.238281 C 360.296875 345.402344 360.90625 345.476562 361.535156 345.476562 C 362.679688 345.476562 363.742188 345.21875 364.640625 344.742188 C 365.5 345.082031 366.449219 345.269531 367.460938 345.269531 C 368.738281 345.269531 369.925781 344.949219 370.929688 344.453125 C 371.847656 344.847656 372.878906 345.054688 373.984375 345.054688 C 375.53125 345.054688 376.945312 344.640625 378.070312 343.898438 C 382.003906 346.269531 387.03125 346.558594 387.03125 339.910156 C 387.03125 336.960938 384.109375 334.527344 380.507812 334.527344 Z M 380.507812 334.527344"/></clipPath><clipPath id="n"><path d="M 380.507812 334.515625 C 379.03125 334.515625 377.824219 334.648438 376.84375 334.878906 C 375.976562 334.515625 375.003906 334.332031 373.984375 334.332031 L 373.714844 334.332031 C 373.890625 333.785156 373.984375 333.144531 373.984375 332.558594 C 373.984375 328.578125 370.050781 325.339844 365.210938 325.339844 C 364.691406 325.339844 364.175781 325.382812 363.679688 325.421875 C 361.742188 323.558594 358.851562 322.371094 355.609375 322.371094 C 354 322.371094 352.472656 322.691406 351.097656 323.183594 C 351.140625 322.957031 351.148438 322.730469 351.148438 322.503906 C 351.148438 319.082031 347.773438 316.296875 343.605469 316.296875 C 340.714844 316.296875 338.195312 317.617188 336.9375 319.628906 C 333.839844 319.535156 330.585938 321.042969 329.152344 323.558594 C 327.863281 323.183594 326.488281 323.011719 325.066406 323.011719 C 318.769531 323.011719 313.515625 326.660156 312.285156 331.546875 C 309.242188 330.90625 306.308594 331.960938 306.308594 335.753906 C 302.707031 335.753906 299.785156 338.125 299.785156 341.09375 C 299.785156 344.0625 302.707031 346.484375 306.308594 346.484375 C 307.496094 346.484375 308.609375 346.207031 309.570312 345.753906 C 310.53125 346.207031 311.644531 346.484375 312.832031 346.484375 C 314.019531 346.484375 315.136719 346.207031 316.085938 345.753906 C 317.054688 346.207031 318.160156 346.484375 319.355469 346.484375 C 321.140625 346.484375 322.761719 345.886719 323.941406 344.929688 C 325.117188 345.886719 326.738281 346.484375 328.523438 346.484375 C 329.347656 346.484375 330.125 346.339844 330.84375 346.113281 C 331.566406 346.339844 332.351562 346.484375 333.167969 346.484375 C 335.253906 346.484375 337.113281 345.660156 338.296875 344.425781 L 338.496094 344.425781 C 339.683594 345.660156 341.53125 346.484375 343.605469 346.484375 C 345.6875 346.484375 347.539062 345.660156 348.722656 344.425781 C 348.992188 344.425781 349.25 344.476562 349.519531 344.476562 C 349.839844 344.476562 350.148438 344.425781 350.4375 344.425781 C 351.636719 345.660156 353.484375 346.484375 355.546875 346.484375 C 357.136719 346.484375 358.59375 345.980469 359.71875 345.25 C 360.296875 345.382812 360.90625 345.476562 361.535156 345.476562 C 362.679688 345.476562 363.742188 345.207031 364.640625 344.742188 C 365.5 345.0625 366.457031 345.25 367.460938 345.25 C 368.738281 345.25 369.925781 344.96875 370.929688 344.425781 C 371.847656 344.835938 372.878906 345.0625 373.984375 345.0625 C 375.53125 345.0625 376.945312 344.609375 378.070312 343.878906 C 382.003906 346.25 387.03125 346.578125 387.03125 339.910156 C 387.03125 336.9375 384.109375 334.515625 380.507812 334.515625"/></clipPath><clipPath id="o"><path d="M 387.804688 316.308594 L 299.835938 314.0625 L 299.011719 346.539062 L 386.96875 348.796875 Z M 387.804688 316.308594"/></clipPath><clipPath id="q"><path d="M 158 316 L 247 316 L 247 346.296875 L 158 346.296875 Z M 158 316"/></clipPath><clipPath id="r"><path d="M 239.523438 334.527344 C 238.046875 334.527344 236.839844 334.660156 235.859375 334.867188 C 235 334.527344 234.03125 334.339844 233 334.339844 L 232.730469 334.339844 C 232.90625 333.785156 233 333.175781 233 332.546875 C 233 328.558594 229.078125 325.339844 224.226562 325.339844 C 223.707031 325.339844 223.191406 325.371094 222.695312 325.445312 C 220.757812 323.578125 217.867188 322.382812 214.625 322.382812 C 213.015625 322.382812 211.488281 322.679688 210.125 323.207031 C 210.15625 322.96875 210.175781 322.730469 210.175781 322.496094 C 210.175781 319.082031 206.789062 316.289062 202.628906 316.289062 C 199.730469 316.289062 197.210938 317.640625 195.953125 319.617188 C 192.855469 319.535156 189.601562 321.0625 188.167969 323.546875 C 186.878906 323.207031 185.503906 323.019531 184.082031 323.019531 C 177.785156 323.019531 172.53125 326.660156 171.300781 331.546875 C 168.265625 330.9375 165.324219 331.96875 165.324219 335.742188 C 161.722656 335.742188 158.800781 338.144531 158.800781 341.09375 C 158.800781 344.082031 161.722656 346.484375 165.324219 346.484375 C 166.511719 346.484375 167.625 346.21875 168.585938 345.742188 C 169.546875 346.21875 170.660156 346.484375 171.847656 346.484375 C 173.035156 346.484375 174.152344 346.21875 175.109375 345.742188 C 176.070312 346.21875 177.183594 346.484375 178.371094 346.484375 C 180.160156 346.484375 181.777344 345.878906 182.957031 344.929688 C 184.132812 345.878906 185.753906 346.484375 187.550781 346.484375 C 188.363281 346.484375 189.148438 346.351562 189.871094 346.113281 C 190.585938 346.351562 191.367188 346.484375 192.195312 346.484375 C 194.28125 346.484375 196.128906 345.660156 197.324219 344.425781 L 197.511719 344.425781 C 198.699219 345.660156 200.554688 346.484375 202.628906 346.484375 C 204.707031 346.484375 206.554688 345.660156 207.75 344.425781 C 208.007812 344.453125 208.265625 344.476562 208.535156 344.476562 C 208.855469 344.476562 209.164062 344.453125 209.464844 344.453125 C 210.652344 345.691406 212.5 346.484375 214.574219 346.484375 C 216.152344 346.484375 217.609375 346.011719 218.742188 345.238281 C 219.3125 345.402344 219.921875 345.476562 220.550781 345.476562 C 221.695312 345.476562 222.757812 345.21875 223.667969 344.742188 C 224.515625 345.082031 225.472656 345.269531 226.476562 345.269531 C 227.753906 345.269531 228.941406 344.949219 229.953125 344.453125 C 230.863281 344.847656 231.894531 345.054688 233 345.054688 C 234.546875 345.054688 235.960938 344.640625 237.085938 343.898438 C 241.03125 346.269531 246.046875 346.558594 246.046875 339.910156 C 246.046875 336.960938 243.125 334.527344 239.523438 334.527344 Z M 239.523438 334.527344"/></clipPath><clipPath id="s"><path d="M 239.523438 334.515625 C 238.046875 334.515625 236.839844 334.648438 235.867188 334.878906 C 235 334.515625 234.03125 334.332031 233 334.332031 L 232.730469 334.332031 C 232.90625 333.785156 233 333.144531 233 332.558594 C 233 328.578125 229.078125 325.339844 224.226562 325.339844 C 223.707031 325.339844 223.191406 325.382812 222.695312 325.421875 C 220.757812 323.558594 217.867188 322.371094 214.625 322.371094 C 213.015625 322.371094 211.488281 322.691406 210.125 323.183594 C 210.15625 322.957031 210.175781 322.730469 210.175781 322.503906 C 210.175781 319.082031 206.789062 316.296875 202.628906 316.296875 C 199.730469 316.296875 197.222656 317.617188 195.953125 319.628906 C 192.855469 319.535156 189.601562 321.042969 188.167969 323.558594 C 186.878906 323.183594 185.503906 323.011719 184.082031 323.011719 C 177.785156 323.011719 172.53125 326.660156 171.300781 331.546875 C 168.265625 330.90625 165.324219 331.960938 165.324219 335.753906 C 161.722656 335.753906 158.800781 338.125 158.800781 341.09375 C 158.800781 344.0625 161.722656 346.484375 165.324219 346.484375 C 166.511719 346.484375 167.625 346.207031 168.585938 345.753906 C 169.546875 346.207031 170.660156 346.484375 171.847656 346.484375 C 173.035156 346.484375 174.152344 346.207031 175.109375 345.753906 C 176.070312 346.207031 177.183594 346.484375 178.371094 346.484375 C 180.160156 346.484375 181.777344 345.886719 182.957031 344.929688 C 184.132812 345.886719 185.753906 346.484375 187.550781 346.484375 C 188.363281 346.484375 189.148438 346.339844 189.871094 346.113281 C 190.59375 346.339844 191.367188 346.484375 192.195312 346.484375 C 194.28125 346.484375 196.128906 345.660156 197.324219 344.425781 L 197.511719 344.425781 C 198.707031 345.660156 200.554688 346.484375 202.628906 346.484375 C 204.707031 346.484375 206.554688 345.660156 207.75 344.425781 C 208.007812 344.425781 208.277344 344.476562 208.546875 344.476562 C 208.855469 344.476562 209.164062 344.425781 209.464844 344.425781 C 210.652344 345.660156 212.5 346.484375 214.574219 346.484375 C 216.152344 346.484375 217.609375 345.980469 218.742188 345.25 C 219.3125 345.382812 219.921875 345.476562 220.550781 345.476562 C 221.695312 345.476562 222.757812 345.207031 223.667969 344.742188 C 224.515625 345.0625 225.472656 345.25 226.476562 345.25 C 227.753906 345.25 228.941406 344.96875 229.953125 344.425781 C 230.863281 344.835938 231.90625 345.0625 233 345.0625 C 234.546875 345.0625 235.972656 344.609375 237.085938 343.878906 C 241.03125 346.25 246.046875 346.578125 246.046875 339.910156 C 246.046875 336.9375 243.125 334.515625 239.523438 334.515625"/></clipPath><clipPath id="t"><path d="M 246.832031 316.308594 L 158.863281 314.0625 L 158.027344 346.539062 L 245.996094 348.796875 Z M 246.832031 316.308594"/></clipPath><clipPath id="v"><path d="M 17.238281 316 L 106 316 L 106 346.296875 L 17.238281 346.296875 Z M 17.238281 316"/></clipPath><clipPath id="w"><path d="M 98.539062 334.527344 C 97.0625 334.527344 95.855469 334.660156 94.882812 334.867188 C 94.015625 334.527344 93.046875 334.339844 92.023438 334.339844 L 91.746094 334.339844 C 91.921875 333.785156 92.023438 333.175781 92.023438 332.546875 C 92.023438 328.558594 88.09375 325.339844 83.25 325.339844 C 82.722656 325.339844 82.207031 325.371094 81.714844 325.445312 C 79.773438 323.578125 76.882812 322.382812 73.652344 322.382812 C 72.039062 322.382812 70.503906 322.679688 69.140625 323.207031 C 69.171875 322.96875 69.191406 322.730469 69.191406 322.496094 C 69.191406 319.082031 65.816406 316.289062 61.644531 316.289062 C 58.746094 316.289062 56.238281 317.640625 54.96875 319.617188 C 51.871094 319.535156 48.628906 321.0625 47.183594 323.546875 C 45.894531 323.207031 44.53125 323.019531 43.097656 323.019531 C 36.800781 323.019531 31.546875 326.660156 30.316406 331.546875 C 27.28125 330.9375 24.339844 331.96875 24.339844 335.742188 C 20.738281 335.742188 17.816406 338.144531 17.816406 341.09375 C 17.816406 344.082031 20.738281 346.484375 24.339844 346.484375 C 25.527344 346.484375 26.644531 346.21875 27.601562 345.742188 C 28.5625 346.21875 29.675781 346.484375 30.863281 346.484375 C 32.050781 346.484375 33.167969 346.21875 34.125 345.742188 C 35.085938 346.21875 36.203125 346.484375 37.386719 346.484375 C 39.175781 346.484375 40.792969 345.878906 41.972656 344.929688 C 43.160156 345.878906 44.769531 346.484375 46.566406 346.484375 C 47.378906 346.484375 48.164062 346.351562 48.886719 346.113281 C 49.609375 346.351562 50.394531 346.484375 51.210938 346.484375 C 53.296875 346.484375 55.144531 345.660156 56.339844 344.425781 L 56.527344 344.425781 C 57.722656 345.660156 59.570312 346.484375 61.644531 346.484375 C 63.722656 346.484375 65.570312 345.660156 66.765625 344.425781 C 67.023438 344.453125 67.292969 344.476562 67.5625 344.476562 C 67.871094 344.476562 68.179688 344.453125 68.480469 344.453125 C 69.675781 345.691406 71.515625 346.484375 73.589844 346.484375 C 75.167969 346.484375 76.625 346.011719 77.757812 345.238281 C 78.328125 345.402344 78.9375 345.476562 79.578125 345.476562 C 80.710938 345.476562 81.773438 345.21875 82.683594 344.742188 C 83.53125 345.082031 84.488281 345.269531 85.492188 345.269531 C 86.769531 345.269531 87.96875 344.949219 88.96875 344.453125 C 89.878906 344.847656 90.921875 345.054688 92.023438 345.054688 C 93.5625 345.054688 94.988281 344.640625 96.101562 343.898438 C 100.046875 346.269531 105.074219 346.558594 105.0625 339.910156 C 105.0625 336.960938 102.140625 334.527344 98.539062 334.527344 Z M 98.539062 334.527344"/></clipPath><clipPath id="x"><path d="M 98.539062 334.515625 C 97.0625 334.515625 95.855469 334.648438 94.882812 334.878906 C 94.015625 334.515625 93.046875 334.332031 92.015625 334.332031 L 91.746094 334.332031 C 91.921875 333.785156 92.015625 333.144531 92.015625 332.558594 C 92.015625 328.578125 88.09375 325.339844 83.25 325.339844 C 82.722656 325.339844 82.207031 325.382812 81.714844 325.421875 C 79.773438 323.558594 76.882812 322.371094 73.652344 322.371094 C 72.039062 322.371094 70.511719 322.691406 69.140625 323.183594 C 69.171875 322.957031 69.191406 322.730469 69.191406 322.503906 C 69.191406 319.082031 65.816406 316.296875 61.644531 316.296875 C 58.746094 316.296875 56.238281 317.617188 54.96875 319.628906 C 51.871094 319.535156 48.628906 321.042969 47.183594 323.558594 C 45.90625 323.183594 44.53125 323.011719 43.097656 323.011719 C 36.800781 323.011719 31.546875 326.660156 30.316406 331.546875 C 27.28125 330.90625 24.339844 331.960938 24.339844 335.753906 C 20.738281 335.753906 17.816406 338.125 17.816406 341.09375 C 17.816406 344.0625 20.738281 346.484375 24.339844 346.484375 C 25.527344 346.484375 26.644531 346.207031 27.601562 345.753906 C 28.5625 346.207031 29.675781 346.484375 30.863281 346.484375 C 32.050781 346.484375 33.167969 346.207031 34.125 345.753906 C 35.085938 346.207031 36.203125 346.484375 37.386719 346.484375 C 39.175781 346.484375 40.792969 345.886719 41.972656 344.929688 C 43.148438 345.886719 44.769531 346.484375 46.566406 346.484375 C 47.378906 346.484375 48.164062 346.339844 48.886719 346.113281 C 49.609375 346.339844 50.394531 346.484375 51.210938 346.484375 C 53.296875 346.484375 55.144531 345.660156 56.339844 344.425781 L 56.527344 344.425781 C 57.722656 345.660156 59.570312 346.484375 61.644531 346.484375 C 63.722656 346.484375 65.570312 345.660156 66.765625 344.425781 C 67.023438 344.425781 67.292969 344.476562 67.5625 344.476562 C 67.871094 344.476562 68.179688 344.425781 68.480469 344.425781 C 69.675781 345.660156 71.515625 346.484375 73.589844 346.484375 C 75.167969 346.484375 76.625 345.980469 77.757812 345.25 C 78.328125 345.382812 78.9375 345.476562 79.578125 345.476562 C 80.710938 345.476562 81.773438 345.207031 82.683594 344.742188 C 83.53125 345.0625 84.488281 345.25 85.5 345.25 C 86.769531 345.25 87.96875 344.96875 88.96875 344.425781 C 89.878906 344.835938 90.921875 345.0625 92.015625 345.0625 C 93.5625 345.0625 94.988281 344.609375 96.101562 343.878906 C 100.046875 346.25 105.074219 346.578125 105.0625 339.910156 C 105.0625 336.9375 102.140625 334.515625 98.539062 334.515625"/></clipPath><clipPath id="y"><path d="M 105.847656 316.308594 L 17.878906 314.0625 L 17.042969 346.539062 L 105.011719 348.796875 Z M 105.847656 316.308594"/></clipPath><linearGradient x1=".312" gradientTransform="matrix(-1.0207 39.75393 -39.8021 -1.01947 626.339 302.78)" xmlns:xlink="http://www.w3.org/1999/xlink" y1="0" x2="1.123" gradientUnits="userSpaceOnUse" y2="0" xlink:type="simple" xlink:actuate="onLoad" id="f" xlink:show="other"><stop stop-color="#391913" offset="0"/><stop stop-color="#3A1913" offset=".016"/><stop stop-color="#3A1913" offset=".023"/><stop stop-color="#3B1913" offset=".031"/><stop stop-color="#3B1913" offset=".047"/><stop stop-color="#3C1913" offset=".063"/><stop stop-color="#3D1A13" offset=".066"/><stop stop-color="#3E1A13" offset=".07"/><stop stop-color="#3E1A13" offset=".078"/><stop stop-color="#3E1A13" offset=".094"/><stop stop-color="#3F1A13" offset=".102"/><stop stop-color="#3F1A13" offset=".105"/><stop stop-color="#401A13" offset=".109"/><stop stop-color="#401A13" offset=".125"/><stop stop-color="#411B13" offset=".141"/><stop stop-color="#421B13" offset=".148"/><stop stop-color="#431C13" offset=".156"/><stop stop-color="#431C13" offset=".188"/><stop stop-color="#441C13" offset=".203"/><stop stop-color="#451C13" offset=".211"/><stop stop-color="#461D13" offset=".219"/><stop stop-color="#461D13" offset=".234"/><stop stop-color="#471D13" offset=".25"/><stop stop-color="#481D13" offset=".266"/><stop stop-color="#481D13" offset=".273"/><stop stop-color="#491D13" offset=".277"/><stop stop-color="#4A1E13" offset=".281"/><stop stop-color="#4A1E13" offset=".289"/><stop stop-color="#4B1E13" offset=".297"/><stop stop-color="#4B1E13" offset=".301"/><stop stop-color="#4C1E13" offset=".305"/><stop stop-color="#4C1E13" offset=".313"/><stop stop-color="#4D1F13" offset=".316"/><stop stop-color="#4E1F13" offset=".32"/><stop stop-color="#4E1F13" offset=".328"/><stop stop-color="#4E1F13" offset=".344"/><stop stop-color="#4F1F13" offset=".352"/><stop stop-color="#501F13" offset=".359"/><stop stop-color="#502013" offset=".367"/><stop stop-color="#512013" offset=".375"/><stop stop-color="#512013" offset=".383"/><stop stop-color="#522013" offset=".391"/><stop stop-color="#532113" offset=".406"/><stop stop-color="#542113" offset=".414"/><stop stop-color="#552213" offset=".422"/><stop stop-color="#562213" offset=".43"/><stop stop-color="#572313" offset=".438"/><stop stop-color="#582313" offset=".445"/><stop stop-color="#582313" offset=".453"/><stop stop-color="#592413" offset=".469"/><stop stop-color="#5A2413" offset=".477"/><stop stop-color="#5B2413" offset=".484"/><stop stop-color="#5B2413" offset=".492"/><stop stop-color="#5C2514" offset=".496"/><stop stop-color="#5D2514" offset=".5"/><stop stop-color="#5E2514" offset=".508"/><stop stop-color="#5F2514" offset=".516"/><stop stop-color="#5F2514" offset=".523"/><stop stop-color="#602514" offset=".527"/><stop stop-color="#612614" offset=".531"/><stop stop-color="#612614" offset=".535"/><stop stop-color="#622614" offset=".539"/><stop stop-color="#622614" offset=".547"/><stop stop-color="#632714" offset=".551"/><stop stop-color="#632715" offset=".555"/><stop stop-color="#632715" offset=".563"/><stop stop-color="#642715" offset=".566"/><stop stop-color="#642715" offset=".57"/><stop stop-color="#652715" offset=".574"/><stop stop-color="#652815" offset=".578"/><stop stop-color="#662815" offset=".586"/><stop stop-color="#672815" offset=".59"/><stop stop-color="#672915" offset=".594"/><stop stop-color="#682915" offset=".598"/><stop stop-color="#682915" offset=".602"/><stop stop-color="#682915" offset=".609"/><stop stop-color="#692916" offset=".613"/><stop stop-color="#6A2916" offset=".617"/><stop stop-color="#6B2A16" offset=".621"/><stop stop-color="#6B2A16" offset=".625"/><stop stop-color="#6C2A16" offset=".629"/><stop stop-color="#6C2A16" offset=".633"/><stop stop-color="#6C2A16" offset=".641"/><stop stop-color="#6D2A16" offset=".645"/><stop stop-color="#6E2B16" offset=".648"/><stop stop-color="#6E2B16" offset=".652"/><stop stop-color="#6F2B16" offset=".656"/><stop stop-color="#6F2B16" offset=".66"/><stop stop-color="#702B17" offset=".664"/><stop stop-color="#702B17" offset=".672"/><stop stop-color="#712C17" offset=".688"/><stop stop-color="#722C17" offset=".691"/><stop stop-color="#722C17" offset=".695"/><stop stop-color="#732D17" offset=".703"/><stop stop-color="#732D17" offset=".719"/><stop stop-color="#732D17" offset=".75"/><stop stop-color="#732D17" offset="1"/></linearGradient><linearGradient x1=".312" gradientTransform="matrix(-1.0207 39.75393 -39.8021 -1.01947 485.358 302.778)" xmlns:xlink="http://www.w3.org/1999/xlink" y1="0" x2="1.123" gradientUnits="userSpaceOnUse" y2="0" xlink:type="simple" xlink:actuate="onLoad" id="k" xlink:show="other"><stop stop-color="#391913" offset="0"/><stop stop-color="#3A1913" offset=".016"/><stop stop-color="#3A1913" offset=".023"/><stop stop-color="#3B1913" offset=".031"/><stop stop-color="#3B1913" offset=".047"/><stop stop-color="#3C1913" offset=".063"/><stop stop-color="#3D1A13" offset=".066"/><stop stop-color="#3E1A13" offset=".07"/><stop stop-color="#3E1A13" offset=".078"/><stop stop-color="#3E1A13" offset=".094"/><stop stop-color="#3F1A13" offset=".102"/><stop stop-color="#3F1A13" offset=".105"/><stop stop-color="#401A13" offset=".109"/><stop stop-color="#401A13" offset=".125"/><stop stop-color="#411B13" offset=".141"/><stop stop-color="#421B13" offset=".148"/><stop stop-color="#431C13" offset=".156"/><stop stop-color="#431C13" offset=".188"/><stop stop-color="#441C13" offset=".203"/><stop stop-color="#451C13" offset=".211"/><stop stop-color="#461D13" offset=".219"/><stop stop-color="#461D13" offset=".234"/><stop stop-color="#471D13" offset=".25"/><stop stop-color="#481D13" offset=".266"/><stop stop-color="#481D13" offset=".273"/><stop stop-color="#491D13" offset=".277"/><stop stop-color="#4A1E13" offset=".281"/><stop stop-color="#4A1E13" offset=".289"/><stop stop-color="#4B1E13" offset=".297"/><stop stop-color="#4B1E13" offset=".301"/><stop stop-color="#4C1E13" offset=".305"/><stop stop-color="#4C1E13" offset=".313"/><stop stop-color="#4D1F13" offset=".316"/><stop stop-color="#4E1F13" offset=".32"/><stop stop-color="#4E1F13" offset=".328"/><stop stop-color="#4E1F13" offset=".344"/><stop stop-color="#4F1F13" offset=".352"/><stop stop-color="#501F13" offset=".359"/><stop stop-color="#502013" offset=".367"/><stop stop-color="#512013" offset=".375"/><stop stop-color="#512013" offset=".383"/><stop stop-color="#522013" offset=".391"/><stop stop-color="#532113" offset=".406"/><stop stop-color="#542113" offset=".414"/><stop stop-color="#552213" offset=".422"/><stop stop-color="#562213" offset=".43"/><stop stop-color="#572313" offset=".438"/><stop stop-color="#582313" offset=".445"/><stop stop-color="#582313" offset=".453"/><stop stop-color="#592413" offset=".469"/><stop stop-color="#5A2413" offset=".477"/><stop stop-color="#5B2413" offset=".484"/><stop stop-color="#5B2413" offset=".492"/><stop stop-color="#5C2514" offset=".496"/><stop stop-color="#5D2514" offset=".5"/><stop stop-color="#5E2514" offset=".508"/><stop stop-color="#5F2514" offset=".516"/><stop stop-color="#5F2514" offset=".523"/><stop stop-color="#602514" offset=".527"/><stop stop-color="#612614" offset=".531"/><stop stop-color="#612614" offset=".535"/><stop stop-color="#622614" offset=".539"/><stop stop-color="#622614" offset=".547"/><stop stop-color="#632714" offset=".551"/><stop stop-color="#632715" offset=".555"/><stop stop-color="#632715" offset=".563"/><stop stop-color="#642715" offset=".566"/><stop stop-color="#642715" offset=".57"/><stop stop-color="#652715" offset=".574"/><stop stop-color="#652815" offset=".578"/><stop stop-color="#662815" offset=".586"/><stop stop-color="#672815" offset=".59"/><stop stop-color="#672915" offset=".594"/><stop stop-color="#682915" offset=".598"/><stop stop-color="#682915" offset=".602"/><stop stop-color="#682915" offset=".609"/><stop stop-color="#692916" offset=".613"/><stop stop-color="#6A2916" offset=".617"/><stop stop-color="#6B2A16" offset=".621"/><stop stop-color="#6B2A16" offset=".625"/><stop stop-color="#6C2A16" offset=".629"/><stop stop-color="#6C2A16" offset=".633"/><stop stop-color="#6C2A16" offset=".641"/><stop stop-color="#6D2A16" offset=".645"/><stop stop-color="#6E2B16" offset=".648"/><stop stop-color="#6E2B16" offset=".652"/><stop stop-color="#6F2B16" offset=".656"/><stop stop-color="#6F2B16" offset=".66"/><stop stop-color="#702B17" offset=".664"/><stop stop-color="#702B17" offset=".672"/><stop stop-color="#712C17" offset=".688"/><stop stop-color="#722C17" offset=".691"/><stop stop-color="#722C17" offset=".695"/><stop stop-color="#732D17" offset=".703"/><stop stop-color="#732D17" offset=".719"/><stop stop-color="#732D17" offset=".75"/><stop stop-color="#732D17" offset="1"/></linearGradient><linearGradient x1=".312" gradientTransform="matrix(-1.0207 39.75393 -39.8021 -1.01947 344.374 302.775)" xmlns:xlink="http://www.w3.org/1999/xlink" y1="0" x2="1.123" gradientUnits="userSpaceOnUse" y2="0" xlink:type="simple" xlink:actuate="onLoad" id="p" xlink:show="other"><stop stop-color="#391913" offset="0"/><stop stop-color="#3A1913" offset=".016"/><stop stop-color="#3A1913" offset=".023"/><stop stop-color="#3B1913" offset=".031"/><stop stop-color="#3B1913" offset=".047"/><stop stop-color="#3C1913" offset=".063"/><stop stop-color="#3D1A13" offset=".066"/><stop stop-color="#3E1A13" offset=".07"/><stop stop-color="#3E1A13" offset=".078"/><stop stop-color="#3E1A13" offset=".094"/><stop stop-color="#3F1A13" offset=".102"/><stop stop-color="#3F1A13" offset=".105"/><stop stop-color="#401A13" offset=".109"/><stop stop-color="#401A13" offset=".125"/><stop stop-color="#411B13" offset=".141"/><stop stop-color="#421B13" offset=".148"/><stop stop-color="#431C13" offset=".156"/><stop stop-color="#441C13" offset=".188"/><stop stop-color="#441C13" offset=".203"/><stop stop-color="#451C13" offset=".211"/><stop stop-color="#461D13" offset=".219"/><stop stop-color="#461D13" offset=".234"/><stop stop-color="#471D13" offset=".25"/><stop stop-color="#481D13" offset=".266"/><stop stop-color="#481D13" offset=".273"/><stop stop-color="#491D13" offset=".277"/><stop stop-color="#4A1E13" offset=".281"/><stop stop-color="#4A1E13" offset=".289"/><stop stop-color="#4B1E13" offset=".297"/><stop stop-color="#4B1E13" offset=".301"/><stop stop-color="#4C1E13" offset=".305"/><stop stop-color="#4C1E13" offset=".313"/><stop stop-color="#4D1F13" offset=".316"/><stop stop-color="#4E1F13" offset=".32"/><stop stop-color="#4E1F13" offset=".328"/><stop stop-color="#4E1F13" offset=".344"/><stop stop-color="#4F1F13" offset=".352"/><stop stop-color="#501F13" offset=".359"/><stop stop-color="#502013" offset=".367"/><stop stop-color="#512013" offset=".375"/><stop stop-color="#512013" offset=".383"/><stop stop-color="#522013" offset=".391"/><stop stop-color="#532113" offset=".406"/><stop stop-color="#542113" offset=".414"/><stop stop-color="#552213" offset=".422"/><stop stop-color="#562213" offset=".43"/><stop stop-color="#572313" offset=".438"/><stop stop-color="#582313" offset=".445"/><stop stop-color="#582313" offset=".453"/><stop stop-color="#592413" offset=".469"/><stop stop-color="#5A2413" offset=".477"/><stop stop-color="#5B2413" offset=".484"/><stop stop-color="#5B2413" offset=".492"/><stop stop-color="#5C2514" offset=".496"/><stop stop-color="#5D2514" offset=".5"/><stop stop-color="#5E2514" offset=".508"/><stop stop-color="#5F2514" offset=".516"/><stop stop-color="#5F2514" offset=".523"/><stop stop-color="#602514" offset=".527"/><stop stop-color="#612614" offset=".531"/><stop stop-color="#612614" offset=".535"/><stop stop-color="#622614" offset=".539"/><stop stop-color="#622714" offset=".543"/><stop stop-color="#632714" offset=".547"/><stop stop-color="#632714" offset=".551"/><stop stop-color="#632715" offset=".555"/><stop stop-color="#632715" offset=".563"/><stop stop-color="#642715" offset=".566"/><stop stop-color="#642715" offset=".57"/><stop stop-color="#652715" offset=".574"/><stop stop-color="#652815" offset=".578"/><stop stop-color="#662815" offset=".586"/><stop stop-color="#672815" offset=".59"/><stop stop-color="#672915" offset=".594"/><stop stop-color="#682915" offset=".598"/><stop stop-color="#682915" offset=".602"/><stop stop-color="#682915" offset=".609"/><stop stop-color="#692916" offset=".613"/><stop stop-color="#6A2916" offset=".617"/><stop stop-color="#6B2A16" offset=".621"/><stop stop-color="#6B2A16" offset=".625"/><stop stop-color="#6C2A16" offset=".629"/><stop stop-color="#6C2A16" offset=".633"/><stop stop-color="#6C2A16" offset=".641"/><stop stop-color="#6D2A16" offset=".645"/><stop stop-color="#6E2B16" offset=".648"/><stop stop-color="#6E2B16" offset=".652"/><stop stop-color="#6F2B16" offset=".656"/><stop stop-color="#6F2B16" offset=".66"/><stop stop-color="#702B17" offset=".664"/><stop stop-color="#702B17" offset=".672"/><stop stop-color="#712C17" offset=".688"/><stop stop-color="#722C17" offset=".691"/><stop stop-color="#722C17" offset=".695"/><stop stop-color="#732D17" offset=".703"/><stop stop-color="#732D17" offset=".719"/><stop stop-color="#732D17" offset=".75"/><stop stop-color="#732D17" offset="1"/></linearGradient><linearGradient x1=".312" gradientTransform="matrix(-1.0207 39.75393 -39.8021 -1.01947 203.396 302.777)" xmlns:xlink="http://www.w3.org/1999/xlink" y1="0" x2="1.123" gradientUnits="userSpaceOnUse" y2="0" xlink:type="simple" xlink:actuate="onLoad" id="u" xlink:show="other"><stop stop-color="#391913" offset="0"/><stop stop-color="#3A1913" offset=".016"/><stop stop-color="#3A1913" offset=".023"/><stop stop-color="#3B1913" offset=".031"/><stop stop-color="#3B1913" offset=".047"/><stop stop-color="#3C1913" offset=".063"/><stop stop-color="#3D1A13" offset=".066"/><stop stop-color="#3E1A13" offset=".07"/><stop stop-color="#3E1A13" offset=".078"/><stop stop-color="#3E1A13" offset=".094"/><stop stop-color="#3F1A13" offset=".102"/><stop stop-color="#3F1A13" offset=".105"/><stop stop-color="#401A13" offset=".109"/><stop stop-color="#401A13" offset=".125"/><stop stop-color="#411B13" offset=".141"/><stop stop-color="#421B13" offset=".148"/><stop stop-color="#431C13" offset=".156"/><stop stop-color="#431C13" offset=".188"/><stop stop-color="#441C13" offset=".203"/><stop stop-color="#451C13" offset=".211"/><stop stop-color="#461D13" offset=".219"/><stop stop-color="#461D13" offset=".234"/><stop stop-color="#471D13" offset=".25"/><stop stop-color="#481D13" offset=".266"/><stop stop-color="#481D13" offset=".273"/><stop stop-color="#491D13" offset=".277"/><stop stop-color="#4A1E13" offset=".281"/><stop stop-color="#4A1E13" offset=".289"/><stop stop-color="#4B1E13" offset=".297"/><stop stop-color="#4B1E13" offset=".301"/><stop stop-color="#4C1E13" offset=".305"/><stop stop-color="#4C1E13" offset=".313"/><stop stop-color="#4D1F13" offset=".316"/><stop stop-color="#4E1F13" offset=".32"/><stop stop-color="#4E1F13" offset=".328"/><stop stop-color="#4E1F13" offset=".344"/><stop stop-color="#4F1F13" offset=".352"/><stop stop-color="#501F13" offset=".359"/><stop stop-color="#502013" offset=".367"/><stop stop-color="#512013" offset=".375"/><stop stop-color="#512013" offset=".383"/><stop stop-color="#522013" offset=".391"/><stop stop-color="#532113" offset=".406"/><stop stop-color="#542113" offset=".414"/><stop stop-color="#552213" offset=".422"/><stop stop-color="#562213" offset=".43"/><stop stop-color="#572313" offset=".438"/><stop stop-color="#582313" offset=".445"/><stop stop-color="#582313" offset=".453"/><stop stop-color="#592413" offset=".469"/><stop stop-color="#5A2413" offset=".477"/><stop stop-color="#5B2413" offset=".484"/><stop stop-color="#5B2413" offset=".492"/><stop stop-color="#5C2514" offset=".496"/><stop stop-color="#5D2514" offset=".5"/><stop stop-color="#5E2514" offset=".508"/><stop stop-color="#5F2514" offset=".516"/><stop stop-color="#5F2514" offset=".523"/><stop stop-color="#602514" offset=".527"/><stop stop-color="#612614" offset=".531"/><stop stop-color="#612614" offset=".535"/><stop stop-color="#622614" offset=".539"/><stop stop-color="#622614" offset=".543"/><stop stop-color="#632714" offset=".547"/><stop stop-color="#632714" offset=".551"/><stop stop-color="#632715" offset=".555"/><stop stop-color="#632715" offset=".563"/><stop stop-color="#642715" offset=".566"/><stop stop-color="#642715" offset=".57"/><stop stop-color="#652715" offset=".574"/><stop stop-color="#652815" offset=".578"/><stop stop-color="#662815" offset=".586"/><stop stop-color="#672815" offset=".59"/><stop stop-color="#672915" offset=".594"/><stop stop-color="#682915" offset=".598"/><stop stop-color="#682915" offset=".602"/><stop stop-color="#682915" offset=".609"/><stop stop-color="#692916" offset=".613"/><stop stop-color="#6A2916" offset=".617"/><stop stop-color="#6B2A16" offset=".621"/><stop stop-color="#6B2A16" offset=".625"/><stop stop-color="#6C2A16" offset=".629"/><stop stop-color="#6C2A16" offset=".633"/><stop stop-color="#6C2A16" offset=".641"/><stop stop-color="#6D2A16" offset=".645"/><stop stop-color="#6E2B16" offset=".648"/><stop stop-color="#6E2B16" offset=".652"/><stop stop-color="#6F2B16" offset=".656"/><stop stop-color="#6F2B16" offset=".66"/><stop stop-color="#702B17" offset=".664"/><stop stop-color="#702B17" offset=".672"/><stop stop-color="#712C17" offset=".688"/><stop stop-color="#722C17" offset=".691"/><stop stop-color="#722C17" offset=".695"/><stop stop-color="#732D17" offset=".703"/><stop stop-color="#732D17" offset=".719"/><stop stop-color="#732D17" offset=".75"/><stop stop-color="#732D17" offset="1"/></linearGradient><linearGradient x1=".312" gradientTransform="matrix(-1.0207 39.75393 -39.8021 -1.01947 62.412 302.778)" xmlns:xlink="http://www.w3.org/1999/xlink" y1="0" x2="1.123" gradientUnits="userSpaceOnUse" y2="0" xlink:type="simple" xlink:actuate="onLoad" id="z" xlink:show="other"><stop stop-color="#391913" offset="0"/><stop stop-color="#3A1913" offset=".016"/><stop stop-color="#3A1913" offset=".023"/><stop stop-color="#3B1913" offset=".031"/><stop stop-color="#3B1913" offset=".047"/><stop stop-color="#3C1913" offset=".063"/><stop stop-color="#3D1A13" offset=".066"/><stop stop-color="#3E1A13" offset=".07"/><stop stop-color="#3E1A13" offset=".078"/><stop stop-color="#3E1A13" offset=".094"/><stop stop-color="#3F1A13" offset=".102"/><stop stop-color="#3F1A13" offset=".105"/><stop stop-color="#401A13" offset=".109"/><stop stop-color="#401A13" offset=".125"/><stop stop-color="#411B13" offset=".141"/><stop stop-color="#421B13" offset=".148"/><stop stop-color="#431C13" offset=".156"/><stop stop-color="#431C13" offset=".188"/><stop stop-color="#441C13" offset=".203"/><stop stop-color="#451C13" offset=".211"/><stop stop-color="#461D13" offset=".219"/><stop stop-color="#461D13" offset=".234"/><stop stop-color="#471D13" offset=".25"/><stop stop-color="#481D13" offset=".266"/><stop stop-color="#481D13" offset=".273"/><stop stop-color="#491D13" offset=".277"/><stop stop-color="#4A1E13" offset=".281"/><stop stop-color="#4A1E13" offset=".289"/><stop stop-color="#4B1E13" offset=".297"/><stop stop-color="#4B1E13" offset=".301"/><stop stop-color="#4C1E13" offset=".305"/><stop stop-color="#4C1E13" offset=".313"/><stop stop-color="#4D1F13" offset=".316"/><stop stop-color="#4E1F13" offset=".32"/><stop stop-color="#4E1F13" offset=".328"/><stop stop-color="#4E1F13" offset=".344"/><stop stop-color="#4F1F13" offset=".352"/><stop stop-color="#501F13" offset=".359"/><stop stop-color="#502013" offset=".367"/><stop stop-color="#512013" offset=".375"/><stop stop-color="#512013" offset=".383"/><stop stop-color="#522013" offset=".391"/><stop stop-color="#532113" offset=".406"/><stop stop-color="#542113" offset=".414"/><stop stop-color="#552213" offset=".422"/><stop stop-color="#562213" offset=".43"/><stop stop-color="#572313" offset=".438"/><stop stop-color="#582313" offset=".445"/><stop stop-color="#582313" offset=".453"/><stop stop-color="#592413" offset=".469"/><stop stop-color="#5A2413" offset=".477"/><stop stop-color="#5B2413" offset=".484"/><stop stop-color="#5B2413" offset=".492"/><stop stop-color="#5C2514" offset=".496"/><stop stop-color="#5D2514" offset=".5"/><stop stop-color="#5E2514" offset=".508"/><stop stop-color="#5F2514" offset=".516"/><stop stop-color="#5F2514" offset=".523"/><stop stop-color="#602514" offset=".527"/><stop stop-color="#612614" offset=".531"/><stop stop-color="#612614" offset=".535"/><stop stop-color="#622614" offset=".539"/><stop stop-color="#622614" offset=".547"/><stop stop-color="#632714" offset=".551"/><stop stop-color="#632715" offset=".555"/><stop stop-color="#632715" offset=".563"/><stop stop-color="#642715" offset=".566"/><stop stop-color="#642715" offset=".57"/><stop stop-color="#652715" offset=".574"/><stop stop-color="#652815" offset=".578"/><stop stop-color="#662815" offset=".586"/><stop stop-color="#672815" offset=".59"/><stop stop-color="#672915" offset=".594"/><stop stop-color="#682915" offset=".598"/><stop stop-color="#682915" offset=".602"/><stop stop-color="#682915" offset=".609"/><stop stop-color="#692916" offset=".613"/><stop stop-color="#6A2916" offset=".617"/><stop stop-color="#6B2A16" offset=".621"/><stop stop-color="#6B2A16" offset=".625"/><stop stop-color="#6C2A16" offset=".629"/><stop stop-color="#6C2A16" offset=".633"/><stop stop-color="#6C2A16" offset=".641"/><stop stop-color="#6D2A16" offset=".645"/><stop stop-color="#6E2B16" offset=".648"/><stop stop-color="#6E2B16" offset=".652"/><stop stop-color="#6F2B16" offset=".656"/><stop stop-color="#6F2B16" offset=".66"/><stop stop-color="#702B17" offset=".664"/><stop stop-color="#702B17" offset=".672"/><stop stop-color="#712C17" offset=".688"/><stop stop-color="#722C17" offset=".691"/><stop stop-color="#722C17" offset=".695"/><stop stop-color="#732D17" offset=".703"/><stop stop-color="#732D17" offset=".719"/><stop stop-color="#732D17" offset=".75"/><stop stop-color="#732D17" offset="1"/></linearGradient></defs><g fill="#5E7F38"><g><g><path d="M 16.328125 -27.453125 L 16.328125 0 L 7.8125 0 L 7.8125 -57.515625 L 26.578125 -57.515625 C 32.429688 -57.515625 37.222656 -56.207031 40.953125 -53.59375 C 44.691406 -50.988281 46.5625 -47.554688 46.5625 -43.296875 C 46.5625 -39.046875 45.066406 -35.6875 42.078125 -33.21875 C 39.097656 -30.757812 35.0625 -29.066406 29.96875 -28.140625 L 53.25 0 L 43.171875 1.21875 L 23.015625 -27.453125 Z M 16.328125 -30.0625 L 21.890625 -30.0625 C 32.316406 -30.0625 37.53125 -34.171875 37.53125 -42.390625 C 37.53125 -43.785156 37.179688 -45.351562 36.484375 -47.09375 C 35.148438 -50.738281 32.3125 -53.140625 27.96875 -54.296875 C 24.03125 -54.296875 20.148438 -53.800781 16.328125 -52.8125 Z M 16.328125 -30.0625" transform="translate(122.65 450.69)"/></g></g></g><g fill="#5E7F38"><g><g><path d="M 9.125 -21.375 C 9.125 -15.113281 10.523438 -10.609375 13.328125 -7.859375 C 16.140625 -5.109375 19.554688 -3.734375 23.578125 -3.734375 C 27.609375 -3.734375 31.332031 -4.515625 34.75 -6.078125 L 34.75 -3.046875 C 30 -0.316406 25.453125 1.046875 21.109375 1.046875 C 15.492188 1.046875 10.945312 -0.660156 7.46875 -4.078125 C 4 -7.492188 2.265625 -12.445312 2.265625 -18.9375 C 2.265625 -25.425781 4.1875 -30.609375 8.03125 -34.484375 C 11.882812 -38.367188 16.535156 -40.3125 21.984375 -40.3125 C 26.210938 -40.3125 29.742188 -38.644531 32.578125 -35.3125 C 35.410156 -31.976562 36.828125 -27.332031 36.828125 -21.375 Z M 17.546875 -36.234375 C 15.523438 -35.242188 13.789062 -33.660156 12.34375 -31.484375 C 10.894531 -29.316406 9.9375 -26.816406 9.46875 -23.984375 L 29.796875 -23.984375 C 29.617188 -26.410156 29.050781 -28.492188 28.09375 -30.234375 C 27.144531 -31.972656 26.003906 -33.25 24.671875 -34.0625 C 22.296875 -35.507812 19.921875 -36.234375 17.546875 -36.234375 Z M 17.546875 -36.234375" transform="translate(178.07 450.69)"/></g></g></g><g fill="#5E7F38"><g><g><path d="M 11.46875 -7.8125 C 11.46875 -6.71875 12.289062 -5.96875 13.9375 -5.5625 C 15.59375 -5.15625 18.765625 -4.953125 23.453125 -4.953125 C 28.148438 -4.953125 31.914062 -4.429688 34.75 -3.390625 C 37.582031 -2.347656 39 -0.378906 39 2.515625 C 39 6.804688 36.898438 10.671875 32.703125 14.109375 C 28.503906 17.554688 23.363281 19.28125 17.28125 19.28125 C 12.882812 19.28125 9.28125 18.453125 6.46875 16.796875 C 3.664062 15.148438 2.265625 12.796875 2.265625 9.734375 C 2.265625 5.390625 4.632812 2.175781 9.375 0.09375 C 6.71875 -0.894531 5.390625 -2.734375 5.390625 -5.421875 C 5.390625 -8.117188 7.472656 -11.0625 11.640625 -14.25 C 7.296875 -16.507812 5.125 -20.203125 5.125 -25.328125 C 5.125 -30.453125 6.726562 -34.226562 9.9375 -36.65625 C 13.15625 -39.09375 16.765625 -40.3125 20.765625 -40.3125 C 23.597656 -40.3125 26.316406 -39.53125 28.921875 -37.96875 L 36.578125 -40.140625 L 38.3125 -36.40625 L 32.921875 -33.703125 C 34.023438 -31.796875 34.578125 -29.566406 34.578125 -27.015625 C 34.578125 -24.472656 34.066406 -22.226562 33.046875 -20.28125 C 32.035156 -18.34375 30.722656 -16.851562 29.109375 -15.8125 C 25.859375 -13.726562 22.351562 -12.6875 18.59375 -12.6875 C 18.007812 -12.6875 17.195312 -12.742188 16.15625 -12.859375 C 15.175781 -12.566406 14.148438 -11.925781 13.078125 -10.9375 C 12.003906 -9.957031 11.46875 -8.914062 11.46875 -7.8125 Z M 27.71875 -26.234375 C 27.71875 -29.242188 26.921875 -31.863281 25.328125 -34.09375 C 23.734375 -36.320312 21.757812 -37.4375 19.40625 -37.4375 C 17.0625 -37.4375 15.195312 -36.421875 13.8125 -34.390625 C 12.425781 -32.367188 11.734375 -29.75 11.734375 -26.53125 C 11.734375 -23.320312 12.515625 -20.660156 14.078125 -18.546875 C 15.640625 -16.429688 17.519531 -15.375 19.71875 -15.375 C 25.050781 -15.375 27.71875 -18.992188 27.71875 -26.234375 Z M 18.671875 15.296875 C 23.484375 15.296875 27.566406 13.960938 30.921875 11.296875 C 34.285156 8.628906 35.96875 5.960938 35.96875 3.296875 C 33.007812 2.085938 28.878906 1.484375 23.578125 1.484375 C 18.285156 1.484375 14.625 1.304688 12.59375 0.953125 C 10.050781 3.097656 8.78125 5.382812 8.78125 7.8125 C 8.78125 12.800781 12.078125 15.296875 18.671875 15.296875 Z M 18.671875 15.296875" transform="translate(218.81 450.69)"/></g></g></g><g fill="#5E7F38"><g><g><path d="M 34.484375 -11.640625 C 34.484375 -7.640625 35.988281 -4.484375 39 -2.171875 L 34.484375 1.046875 L 27.453125 -5.296875 C 25.078125 -3.035156 22.960938 -1.410156 21.109375 -0.421875 C 19.253906 0.554688 17.066406 1.046875 14.546875 1.046875 C 12.023438 1.046875 9.707031 0.078125 7.59375 -1.859375 C 5.488281 -3.804688 4.4375 -7.15625 4.4375 -11.90625 L 4.4375 -39.265625 L 11.8125 -39.265625 L 11.8125 -11.46875 C 11.8125 -8.6875 12.316406 -6.585938 13.328125 -5.171875 C 14.347656 -3.753906 16.113281 -3.046875 18.625 -3.046875 C 21.144531 -3.046875 23.972656 -4.894531 27.109375 -8.59375 L 27.109375 -39.265625 L 34.484375 -39.265625 Z M 34.484375 -11.640625" transform="translate(261.374 450.69)"/></g></g></g><g fill="#5E7F38"><g><g><path d="M 13.8125 -59.328125 L 13.8125 0 L 6.515625 0 L 6.515625 -59.328125 Z M 13.8125 -59.328125" transform="translate(303.069 450.69)"/></g></g></g><g fill="#5E7F38"><g><g><path d="M 24.765625 -9.203125 L 24.765625 -18.15625 C 20.585938 -17.863281 17.164062 -16.9375 14.5 -15.375 C 11.84375 -13.8125 10.515625 -12.128906 10.515625 -10.328125 C 10.515625 -8.535156 10.976562 -6.988281 11.90625 -5.6875 C 12.832031 -4.382812 14.019531 -3.472656 15.46875 -2.953125 C 17.375 -3.296875 19.398438 -4.25 21.546875 -5.8125 C 23.691406 -7.382812 24.765625 -8.515625 24.765625 -9.203125 Z M 31.890625 -11.546875 C 31.890625 -7.441406 33.394531 -4.316406 36.40625 -2.171875 L 31.890625 1.125 L 24.84375 -5.21875 C 20.269531 -1.039062 16.039062 1.046875 12.15625 1.046875 C 9.613281 1.046875 7.425781 0.234375 5.59375 -1.390625 C 3.769531 -3.015625 2.859375 -5.054688 2.859375 -7.515625 C 2.859375 -9.972656 3.597656 -12.015625 5.078125 -13.640625 C 6.554688 -15.265625 8.515625 -16.507812 10.953125 -17.375 C 15.117188 -18.9375 19.722656 -19.921875 24.765625 -20.328125 L 24.765625 -28.5 C 24.765625 -33.300781 21.984375 -35.703125 16.421875 -35.703125 C 13.234375 -35.703125 9.46875 -35.007812 5.125 -33.625 L 4.34375 -35.796875 C 5.5 -36.722656 7.507812 -37.707031 10.375 -38.75 C 13.25 -39.789062 15.988281 -40.3125 18.59375 -40.3125 C 21.195312 -40.3125 23.378906 -39.960938 25.140625 -39.265625 C 26.910156 -38.566406 28.210938 -37.785156 29.046875 -36.921875 C 29.890625 -36.054688 30.539062 -34.867188 31 -33.359375 C 31.46875 -31.847656 31.734375 -30.660156 31.796875 -29.796875 C 31.859375 -28.929688 31.890625 -27.773438 31.890625 -26.328125 Z M 31.890625 -11.546875" transform="translate(323.395 450.69)"/></g></g></g><g fill="#5E7F38"><g><g><path d="M 36.828125 -11.640625 C 36.828125 -7.640625 38.304688 -4.453125 41.265625 -2.078125 L 36.828125 1.125 L 29.71875 -5.21875 C 27.394531 -3.007812 25.304688 -1.410156 23.453125 -0.421875 C 21.597656 0.554688 19.6875 1.046875 17.71875 1.046875 C 15.75 1.046875 14.007812 0.753906 12.5 0.171875 C 11 -0.398438 9.421875 -1.367188 7.765625 -2.734375 C 6.117188 -4.097656 4.789062 -6.238281 3.78125 -9.15625 C 2.769531 -12.082031 2.265625 -15.863281 2.265625 -20.5 C 2.265625 -25.132812 3.640625 -29.578125 6.390625 -33.828125 C 9.140625 -38.085938 12.914062 -40.21875 17.71875 -40.21875 C 21.3125 -40.21875 25.222656 -38.890625 29.453125 -36.234375 L 29.453125 -59.328125 L 36.828125 -59.328125 Z M 29.453125 -8.78125 L 29.453125 -33.015625 C 26.378906 -35.035156 23.570312 -36.046875 21.03125 -36.046875 C 17.664062 -36.046875 14.96875 -34.46875 12.9375 -31.3125 C 10.914062 -28.15625 9.90625 -24.203125 9.90625 -19.453125 C 9.90625 -14.710938 10.640625 -10.90625 12.109375 -8.03125 C 13.585938 -5.164062 15.429688 -3.441406 17.640625 -2.859375 C 19.660156 -3.035156 21.640625 -3.53125 23.578125 -4.34375 C 25.523438 -5.15625 26.988281 -5.976562 27.96875 -6.8125 C 28.957031 -7.65625 29.453125 -8.3125 29.453125 -8.78125 Z M 29.453125 -8.78125" transform="translate(361.963 450.69)"/></g></g></g><g fill="#5E7F38"><g><g><path d="M 23.28125 -40.3125 C 28.375 -40.3125 32.585938 -38.570312 35.921875 -35.09375 C 39.253906 -31.625 40.921875 -26.847656 40.921875 -20.765625 C 40.921875 -16.878906 40.253906 -13.457031 38.921875 -10.5 C 37.585938 -7.550781 35.847656 -5.269531 33.703125 -3.65625 C 29.597656 -0.519531 25.007812 1.046875 19.9375 1.046875 C 14.875 1.046875 10.675781 -0.6875 7.34375 -4.15625 C 4.007812 -7.632812 2.34375 -12.414062 2.34375 -18.5 C 2.34375 -22.382812 2.992188 -25.800781 4.296875 -28.75 C 5.597656 -31.707031 7.320312 -34 9.46875 -35.625 C 13.582031 -38.75 18.1875 -40.3125 23.28125 -40.3125 Z M 21.546875 -1.90625 C 24.097656 -1.90625 26.269531 -2.890625 28.0625 -4.859375 C 31.300781 -8.335938 32.921875 -12.957031 32.921875 -18.71875 C 32.921875 -24.476562 31.9375 -28.96875 29.96875 -32.1875 C 28 -35.40625 24.785156 -37.015625 20.328125 -37.015625 C 17.023438 -35.734375 14.519531 -33.484375 12.8125 -30.265625 C 11.101562 -27.054688 10.25 -23.175781 10.25 -18.625 C 10.25 -14.082031 11.175781 -10.160156 13.03125 -6.859375 C 14.882812 -3.554688 17.722656 -1.90625 21.546875 -1.90625 Z M 21.546875 -1.90625" transform="translate(405.395 450.69)"/></g></g></g><g fill="#5E7F38"><g><g><path d="M 12.859375 0 L 5.5625 0 L 5.5625 -39.265625 L 10.59375 -39.265625 L 12.59375 -31.96875 C 13.75 -34 15.585938 -35.910156 18.109375 -37.703125 C 20.628906 -39.492188 23.222656 -40.59375 25.890625 -41 L 26.75 -35.015625 C 24.613281 -35.015625 22.195312 -34.347656 19.5 -33.015625 C 16.8125 -31.679688 14.597656 -30.203125 12.859375 -28.578125 Z M 12.859375 0" transform="translate(448.828 450.69)"/></g></g></g><g fill="#5E7F38"><g><g><path d="M 36.828125 -11.640625 C 36.828125 -7.640625 38.304688 -4.453125 41.265625 -2.078125 L 36.828125 1.125 L 29.71875 -5.21875 C 27.394531 -3.007812 25.304688 -1.410156 23.453125 -0.421875 C 21.597656 0.554688 19.6875 1.046875 17.71875 1.046875 C 15.75 1.046875 14.007812 0.753906 12.5 0.171875 C 11 -0.398438 9.421875 -1.367188 7.765625 -2.734375 C 6.117188 -4.097656 4.789062 -6.238281 3.78125 -9.15625 C 2.769531 -12.082031 2.265625 -15.863281 2.265625 -20.5 C 2.265625 -25.132812 3.640625 -29.578125 6.390625 -33.828125 C 9.140625 -38.085938 12.914062 -40.21875 17.71875 -40.21875 C 21.3125 -40.21875 25.222656 -38.890625 29.453125 -36.234375 L 29.453125 -59.328125 L 36.828125 -59.328125 Z M 29.453125 -8.78125 L 29.453125 -33.015625 C 26.378906 -35.035156 23.570312 -36.046875 21.03125 -36.046875 C 17.664062 -36.046875 14.96875 -34.46875 12.9375 -31.3125 C 10.914062 -28.15625 9.90625 -24.203125 9.90625 -19.453125 C 9.90625 -14.710938 10.640625 -10.90625 12.109375 -8.03125 C 13.585938 -5.164062 15.429688 -3.441406 17.640625 -2.859375 C 19.660156 -3.035156 21.640625 -3.53125 23.578125 -4.34375 C 25.523438 -5.15625 26.988281 -5.976562 27.96875 -6.8125 C 28.957031 -7.65625 29.453125 -8.3125 29.453125 -8.78125 Z M 29.453125 -8.78125" transform="translate(498.167 450.69)"/></g></g></g><g fill="#5E7F38"><g><g><path d="M 9.125 -21.375 C 9.125 -15.113281 10.523438 -10.609375 13.328125 -7.859375 C 16.140625 -5.109375 19.554688 -3.734375 23.578125 -3.734375 C 27.609375 -3.734375 31.332031 -4.515625 34.75 -6.078125 L 34.75 -3.046875 C 30 -0.316406 25.453125 1.046875 21.109375 1.046875 C 15.492188 1.046875 10.945312 -0.660156 7.46875 -4.078125 C 4 -7.492188 2.265625 -12.445312 2.265625 -18.9375 C 2.265625 -25.425781 4.1875 -30.609375 8.03125 -34.484375 C 11.882812 -38.367188 16.535156 -40.3125 21.984375 -40.3125 C 26.210938 -40.3125 29.742188 -38.644531 32.578125 -35.3125 C 35.410156 -31.976562 36.828125 -27.332031 36.828125 -21.375 Z M 17.546875 -36.234375 C 15.523438 -35.242188 13.789062 -33.660156 12.34375 -31.484375 C 10.894531 -29.316406 9.9375 -26.816406 9.46875 -23.984375 L 29.796875 -23.984375 C 29.617188 -26.410156 29.050781 -28.492188 28.09375 -30.234375 C 27.144531 -31.972656 26.003906 -33.25 24.671875 -34.0625 C 22.296875 -35.507812 19.921875 -36.234375 17.546875 -36.234375 Z M 17.546875 -36.234375" transform="translate(541.6 450.69)"/></g></g></g><g fill="#5E7F38"><g><g><path d="M 34.3125 1.046875 C 25.332031 1.046875 17.773438 -1.382812 11.640625 -6.25 C 5.503906 -11.113281 2.4375 -18.09375 2.4375 -27.1875 C 2.4375 -32.519531 3.445312 -37.269531 5.46875 -41.4375 C 7.5 -45.601562 10.164062 -48.875 13.46875 -51.25 C 20.125 -56.113281 27.59375 -58.546875 35.875 -58.546875 C 40.6875 -58.546875 45.695312 -57.679688 50.90625 -55.953125 L 50.046875 -50.046875 C 47.316406 -51.203125 45.203125 -52.066406 43.703125 -52.640625 C 39.359375 -54.203125 34.984375 -54.984375 30.578125 -54.984375 C 24.492188 -53.597656 19.816406 -50.585938 16.546875 -45.953125 C 13.273438 -41.316406 11.640625 -35.523438 11.640625 -28.578125 C 11.640625 -20.066406 13.867188 -13.507812 18.328125 -8.90625 C 22.785156 -4.300781 28.660156 -2 35.953125 -2 C 43.253906 -2 48.703125 -3.5625 52.296875 -6.6875 L 52.296875 -1.90625 C 47.316406 0.0625 41.320312 1.046875 34.3125 1.046875 Z M 34.3125 1.046875" transform="translate(141.112 545.779)"/></g></g></g><g fill="#5E7F38"><g><g><path d="M 12.859375 0 L 5.5625 0 L 5.5625 -39.265625 L 10.59375 -39.265625 L 12.59375 -31.96875 C 13.75 -34 15.585938 -35.910156 18.109375 -37.703125 C 20.628906 -39.492188 23.222656 -40.59375 25.890625 -41 L 26.75 -35.015625 C 24.613281 -35.015625 22.195312 -34.347656 19.5 -33.015625 C 16.8125 -31.679688 14.597656 -30.203125 12.859375 -28.578125 Z M 12.859375 0" transform="translate(196.01 545.779)"/></g></g></g><g fill="#5E7F38"><g><g><path d="M 9.125 -21.375 C 9.125 -15.113281 10.523438 -10.609375 13.328125 -7.859375 C 16.140625 -5.109375 19.554688 -3.734375 23.578125 -3.734375 C 27.609375 -3.734375 31.332031 -4.515625 34.75 -6.078125 L 34.75 -3.046875 C 30 -0.316406 25.453125 1.046875 21.109375 1.046875 C 15.492188 1.046875 10.945312 -0.660156 7.46875 -4.078125 C 4 -7.492188 2.265625 -12.445312 2.265625 -18.9375 C 2.265625 -25.425781 4.1875 -30.609375 8.03125 -34.484375 C 11.882812 -38.367188 16.535156 -40.3125 21.984375 -40.3125 C 26.210938 -40.3125 29.742188 -38.644531 32.578125 -35.3125 C 35.410156 -31.976562 36.828125 -27.332031 36.828125 -21.375 Z M 17.546875 -36.234375 C 15.523438 -35.242188 13.789062 -33.660156 12.34375 -31.484375 C 10.894531 -29.316406 9.9375 -26.816406 9.46875 -23.984375 L 29.796875 -23.984375 C 29.617188 -26.410156 29.050781 -28.492188 28.09375 -30.234375 C 27.144531 -31.972656 26.003906 -33.25 24.671875 -34.0625 C 22.296875 -35.507812 19.921875 -36.234375 17.546875 -36.234375 Z M 17.546875 -36.234375" transform="translate(223.633 545.779)"/></g></g></g><g fill="#5E7F38"><g><g><path d="M 19.8125 1.046875 C 14.769531 1.046875 10.582031 -0.675781 7.25 -4.125 C 3.925781 -7.570312 2.265625 -12.453125 2.265625 -18.765625 C 2.265625 -25.078125 4.039062 -30.242188 7.59375 -34.265625 C 11.15625 -38.296875 15.691406 -40.3125 21.203125 -40.3125 C 24.265625 -40.3125 27.707031 -39.554688 31.53125 -38.046875 L 30.671875 -32.3125 C 25.566406 -34.976562 21.191406 -36.3125 17.546875 -36.3125 C 14.535156 -34.8125 12.363281 -32.378906 11.03125 -29.015625 C 9.695312 -25.660156 9.03125 -22.359375 9.03125 -19.109375 C 9.03125 -14.710938 10.316406 -11.050781 12.890625 -8.125 C 15.472656 -5.195312 18.5625 -3.734375 22.15625 -3.734375 C 25.75 -3.734375 29.050781 -4.515625 32.0625 -6.078125 L 32.0625 -3.046875 C 27.882812 -0.316406 23.800781 1.046875 19.8125 1.046875 Z M 19.8125 1.046875" transform="translate(264.373 545.779)"/></g></g></g><g fill="#5E7F38"><g><g><path d="M 6.515625 0 L 6.515625 -39.265625 L 13.71875 -39.265625 L 13.71875 0 Z M 5.640625 -51.375 C 5.640625 -52.625 6.0625 -53.679688 6.90625 -54.546875 C 7.75 -55.421875 8.789062 -55.859375 10.03125 -55.859375 C 11.28125 -55.859375 12.351562 -55.421875 13.25 -54.546875 C 14.144531 -53.679688 14.59375 -52.640625 14.59375 -51.421875 C 14.59375 -50.210938 14.144531 -49.144531 13.25 -48.21875 C 12.351562 -47.289062 11.296875 -46.828125 10.078125 -46.828125 C 8.859375 -46.828125 7.8125 -47.273438 6.9375 -48.171875 C 6.070312 -49.066406 5.640625 -50.132812 5.640625 -51.375 Z M 5.640625 -51.375" transform="translate(299.64 545.779)"/></g></g></g><g fill="#5E7F38"><g><g><path d="M 51.078125 -40.3125 C 57.910156 -40.3125 61.328125 -35.128906 61.328125 -24.765625 L 61.328125 0 L 54.03125 0 L 54.03125 -25.453125 C 54.03125 -30.316406 53.101562 -33.269531 51.25 -34.3125 C 50.320312 -34.832031 49.035156 -35.09375 47.390625 -35.09375 C 45.742188 -35.09375 43.976562 -34.585938 42.09375 -33.578125 C 40.207031 -32.566406 38.832031 -31.421875 37.96875 -30.140625 L 37.96875 0 L 30.578125 0 L 30.578125 -25.890625 C 30.578125 -28.960938 30.113281 -31.265625 29.1875 -32.796875 C 28.257812 -34.328125 26.894531 -35.09375 25.09375 -35.09375 C 23.300781 -35.09375 21.582031 -34.6875 19.9375 -33.875 C 18.289062 -33.070312 16.972656 -32.265625 15.984375 -31.453125 C 15.003906 -30.640625 14.515625 -30.144531 14.515625 -29.96875 L 14.515625 0 L 7.203125 0 L 7.203125 -27.28125 C 7.203125 -31.21875 5.726562 -34.375 2.78125 -36.75 L 7.203125 -40.046875 L 14.15625 -33.703125 C 16.882812 -35.960938 19.257812 -37.628906 21.28125 -38.703125 C 23.3125 -39.773438 25.425781 -40.3125 27.625 -40.3125 C 32.664062 -40.3125 35.796875 -37.960938 37.015625 -33.265625 C 39.035156 -35.585938 41.347656 -37.34375 43.953125 -38.53125 C 46.566406 -39.71875 48.941406 -40.3125 51.078125 -40.3125 Z M 51.078125 -40.3125" transform="translate(319.88 545.779)"/></g></g></g><g fill="#5E7F38"><g><g><path d="M 6.515625 0 L 6.515625 -39.265625 L 13.71875 -39.265625 L 13.71875 0 Z M 5.640625 -51.375 C 5.640625 -52.625 6.0625 -53.679688 6.90625 -54.546875 C 7.75 -55.421875 8.789062 -55.859375 10.03125 -55.859375 C 11.28125 -55.859375 12.351562 -55.421875 13.25 -54.546875 C 14.144531 -53.679688 14.59375 -52.640625 14.59375 -51.421875 C 14.59375 -50.210938 14.144531 -49.144531 13.25 -48.21875 C 12.351562 -47.289062 11.296875 -46.828125 10.078125 -46.828125 C 8.859375 -46.828125 7.8125 -47.273438 6.9375 -48.171875 C 6.070312 -49.066406 5.640625 -50.132812 5.640625 -51.375 Z M 5.640625 -51.375" transform="translate(387.46 545.779)"/></g></g></g><g fill="#5E7F38"><g><g><path d="M 9.125 -21.375 C 9.125 -15.113281 10.523438 -10.609375 13.328125 -7.859375 C 16.140625 -5.109375 19.554688 -3.734375 23.578125 -3.734375 C 27.609375 -3.734375 31.332031 -4.515625 34.75 -6.078125 L 34.75 -3.046875 C 30 -0.316406 25.453125 1.046875 21.109375 1.046875 C 15.492188 1.046875 10.945312 -0.660156 7.46875 -4.078125 C 4 -7.492188 2.265625 -12.445312 2.265625 -18.9375 C 2.265625 -25.425781 4.1875 -30.609375 8.03125 -34.484375 C 11.882812 -38.367188 16.535156 -40.3125 21.984375 -40.3125 C 26.210938 -40.3125 29.742188 -38.644531 32.578125 -35.3125 C 35.410156 -31.976562 36.828125 -27.332031 36.828125 -21.375 Z M 17.546875 -36.234375 C 15.523438 -35.242188 13.789062 -33.660156 12.34375 -31.484375 C 10.894531 -29.316406 9.9375 -26.816406 9.46875 -23.984375 L 29.796875 -23.984375 C 29.617188 -26.410156 29.050781 -28.492188 28.09375 -30.234375 C 27.144531 -31.972656 26.003906 -33.25 24.671875 -34.0625 C 22.296875 -35.507812 19.921875 -36.234375 17.546875 -36.234375 Z M 17.546875 -36.234375" transform="translate(407.7 545.779)"/></g></g></g><g fill="#5E7F38"><g><g><path d="M 14.078125 -33.703125 C 16.503906 -36.023438 18.628906 -37.707031 20.453125 -38.75 C 22.285156 -39.789062 24.445312 -40.3125 26.9375 -40.3125 C 29.425781 -40.3125 31.726562 -39.328125 33.84375 -37.359375 C 35.957031 -35.390625 37.015625 -32 37.015625 -27.1875 L 37.015625 0 L 29.625 0 L 29.625 -26.328125 C 29.625 -29.160156 29.113281 -31.285156 28.09375 -32.703125 C 27.082031 -34.128906 25.347656 -34.84375 22.890625 -34.84375 C 20.429688 -34.84375 17.578125 -33.21875 14.328125 -29.96875 L 14.328125 0 L 6.953125 0 L 6.953125 -27.28125 C 6.953125 -31.21875 5.472656 -34.375 2.515625 -36.75 L 6.953125 -40.046875 Z M 14.078125 -33.703125" transform="translate(448.44 545.779)"/></g></g></g><g fill="#5E7F38"><g><g><path d="M 15.203125 -7.640625 C 15.203125 -5.898438 15.546875 -4.597656 16.234375 -3.734375 C 16.929688 -2.867188 18.09375 -2.4375 19.71875 -2.4375 C 21.34375 -2.4375 23.285156 -2.867188 25.546875 -3.734375 L 25.546875 -1.296875 C 22.179688 0.265625 19.164062 1.046875 16.5 1.046875 C 13.84375 1.046875 11.742188 0.304688 10.203125 -1.171875 C 8.671875 -2.648438 7.90625 -4.953125 7.90625 -8.078125 L 7.90625 -36.140625 L 0.875 -37.53125 L 0.875 -39.265625 L 7.90625 -39.265625 L 7.90625 -42.390625 L 15.203125 -47.6875 L 15.203125 -39.265625 L 25.546875 -39.265625 L 25.546875 -36.140625 L 15.203125 -36.140625 Z M 15.203125 -7.640625" transform="translate(491.872 545.779)"/></g></g></g><g fill="#5E7F38"><g><g><path d="M 23.28125 -40.3125 C 28.375 -40.3125 32.585938 -38.570312 35.921875 -35.09375 C 39.253906 -31.625 40.921875 -26.847656 40.921875 -20.765625 C 40.921875 -16.878906 40.253906 -13.457031 38.921875 -10.5 C 37.585938 -7.550781 35.847656 -5.269531 33.703125 -3.65625 C 29.597656 -0.519531 25.007812 1.046875 19.9375 1.046875 C 14.875 1.046875 10.675781 -0.6875 7.34375 -4.15625 C 4.007812 -7.632812 2.34375 -12.414062 2.34375 -18.5 C 2.34375 -22.382812 2.992188 -25.800781 4.296875 -28.75 C 5.597656 -31.707031 7.320312 -34 9.46875 -35.625 C 13.582031 -38.75 18.1875 -40.3125 23.28125 -40.3125 Z M 21.546875 -1.90625 C 24.097656 -1.90625 26.269531 -2.890625 28.0625 -4.859375 C 31.300781 -8.335938 32.921875 -12.957031 32.921875 -18.71875 C 32.921875 -24.476562 31.9375 -28.96875 29.96875 -32.1875 C 28 -35.40625 24.785156 -37.015625 20.328125 -37.015625 C 17.023438 -35.734375 14.519531 -33.484375 12.8125 -30.265625 C 11.101562 -27.054688 10.25 -23.175781 10.25 -18.625 C 10.25 -14.082031 11.175781 -10.160156 13.03125 -6.859375 C 14.882812 -3.554688 17.722656 -1.90625 21.546875 -1.90625 Z M 21.546875 -1.90625" transform="translate(520.45 545.779)"/></g></g></g><path fill="#85CE2F" d="M 624.582031 187.679688 C 624.582031 187.679688 606.878906 191.320312 594.171875 184.785156 C 581.464844 178.257812 573.917969 153.804688 573.917969 153.804688"/><path fill="#74C339" d="M 625.261719 187.640625 C 625.261719 187.640625 621.753906 169.949219 610.78125 160.804688 C 599.808594 151.648438 574.289062 154.265625 574.289062 154.265625"/><path fill="#85CE2F" d="M 626.84375 207.847656 C 626.84375 207.847656 631.042969 187.765625 643.605469 177.515625 C 656.167969 167.269531 685.09375 170.527344 685.09375 170.527344"/><path fill="#74C339" d="M 626.585938 208.570312 C 626.585938 208.570312 646.628906 212.941406 661.132812 205.683594 C 675.625 198.414062 684.484375 170.710938 684.484375 170.710938"/><path fill="#85CE2F" d="M 622.578125 237.167969 C 622.578125 237.167969 599.445312 240.5625 583.550781 231.128906 C 567.664062 221.695312 559.839844 189.507812 559.839844 189.507812"/><path fill="#74C339" d="M 623.476562 237.148438 C 623.476562 237.148438 620.328125 214.011719 606.878906 201.332031 C 593.417969 188.691406 560.292969 190.042969 560.292969 190.042969"/><path fill="#74C339" d="M 625.480469 157.503906 L 620.886719 326.785156 L 630.0625 326.785156 L 625.480469 157.503906"/><path fill="#85CE2F" d="M 627.542969 253.335938 C 652.761719 265.109375 674.59375 251.851562 687.785156 229.910156"/><path fill="#74C339" d="M 626.84375 253.117188 C 633.757812 236.652344 648.457031 223.105469 663.589844 227.40625 C 673.3125 230.136719 678.765625 231.015625 687.289062 230.230469"/><path fill="#85CE2F" d="M 622.269531 269.59375 C 598.828125 284.511719 575.445312 274.242188 559.476562 254.253906"/><path fill="#74C339" d="M 622.949219 269.273438 C 613.917969 253.871094 597.566406 242.335938 583.136719 248.5625 C 573.855469 252.582031 568.570312 254.191406 560.003906 254.519531"/><g clip-path="url(#a)"><path fill="#85CE2F" d="M 624.738281 166.132812 C 622.941406 145.957031 637.445312 134.296875 655.753906 130.738281"/><path fill="#74C339" d="M 624.695312 166.667969 C 637.703125 166.011719 650.644531 159.320312 651.460938 147.945312 C 651.988281 140.597656 652.730469 136.667969 655.394531 130.996094"/></g><g clip-path="url(#b)"><g clip-path="url(#c)"><g clip-path="url(#d)"><g clip-path="url(#e)"><path fill="url(#f)" d="M 669.757812 316.316406 L 581.8125 314.066406 L 580.984375 346.277344 L 668.933594 348.53125 Z M 669.757812 316.316406"/></g></g></g></g><path fill="#85CE2F" d="M 480.945312 275.925781 C 480.945312 275.925781 463.417969 278.472656 451.382812 271.316406 C 439.34375 264.160156 433.410156 239.796875 433.410156 239.796875"/><path fill="#74C339" d="M 481.625 275.882812 C 481.625 275.882812 479.230469 258.398438 469.042969 248.800781 C 458.855469 239.199219 433.75 240.210938 433.75 240.210938"/><path fill="#74C339" d="M 484.496094 229.910156 L 479.902344 326.792969 L 489.078125 326.792969 L 484.496094 229.910156"/><path fill="#85CE2F" d="M 486.910156 285.503906 C 512.128906 297.277344 533.960938 284.027344 547.152344 262.089844"/><path fill="#74C339" d="M 486.21875 285.308594 C 493.125 268.871094 507.824219 255.285156 522.957031 259.574219 C 532.679688 262.335938 538.121094 263.210938 546.667969 262.429688"/><path fill="#85CE2F" d="M 486.292969 254.304688 C 486.292969 254.304688 486.117188 238.425781 493.910156 228.613281 C 501.714844 218.753906 524.125 216.394531 524.125 216.394531"/><path fill="#74C339" d="M 486.21875 254.933594 C 486.21875 254.933594 502.117188 254.882812 511.871094 246.972656 C 521.625 239.054688 523.699219 216.652344 523.699219 216.652344"/><path fill="#85CE2F" d="M 484.433594 236.210938 C 484.433594 236.210938 472.636719 236.117188 465.417969 230.191406 C 458.203125 224.300781 456.757812 207.621094 456.757812 207.621094"/><path fill="#74C339" d="M 484.878906 236.230469 C 484.878906 236.230469 485.074219 224.46875 479.324219 217.097656 C 473.585938 209.777344 456.933594 207.921875 456.933594 207.921875"/><g clip-path="url(#g)"><g clip-path="url(#h)"><g clip-path="url(#i)"><g clip-path="url(#j)"><path fill="url(#k)" d="M 528.785156 316.316406 L 440.816406 314.066406 L 439.988281 346.277344 L 527.957031 348.53125 Z M 528.785156 316.316406"/></g></g></g></g><path fill="#74C339" d="M 343.511719 258.089844 L 338.929688 326.804688 L 348.09375 326.804688 L 343.511719 258.089844"/><path fill="#85CE2F" d="M 345.253906 293.648438 C 365.695312 298.84375 380.0625 285.882812 386.773438 267.675781"/><path fill="#74C339" d="M 344.707031 293.585938 C 347.515625 280.390625 356.539062 268.203125 368.410156 269.265625 C 376.039062 269.902344 380.21875 269.820312 386.464844 268.027344"/><path fill="#85CE2F" d="M 342.148438 284.132812 C 321.214844 290.164062 305.925781 277.273438 298.371094 258.726562"/><path fill="#74C339" d="M 342.714844 284.039062 C 339.351562 270.460938 329.628906 258.210938 317.394531 259.6875 C 309.539062 260.65625 305.214844 260.695312 298.710938 259.046875"/><path fill="#85CE2F" d="M 342.695312 267.523438 C 341.324219 252.160156 352.398438 243.253906 366.375 240.53125"/><path fill="#74C339" d="M 342.664062 267.964844 C 352.585938 267.460938 362.464844 262.386719 363.09375 253.664062 C 363.496094 248.085938 364.0625 245.035156 366.097656 240.746094"/><g clip-path="url(#l)"><g clip-path="url(#m)"><g clip-path="url(#n)"><g clip-path="url(#o)"><path fill="url(#p)" d="M 387.800781 316.316406 L 299.84375 314.066406 L 299.015625 346.277344 L 386.972656 348.53125 Z M 387.800781 316.316406"/></g></g></g></g><path fill="#85CE2F" d="M 201.710938 299.234375 C 201.710938 299.234375 194.320312 300.742188 189.015625 298 C 183.699219 295.285156 180.550781 285.058594 180.550781 285.058594"/><path fill="#74C339" d="M 202 299.203125 C 202 299.203125 200.535156 291.769531 195.953125 287.964844 C 191.359375 284.152344 180.707031 285.253906 180.707031 285.253906"/><path fill="#74C339" d="M 201.960938 292.460938 L 199.304688 326.824219 L 204.601562 326.824219 L 201.960938 292.460938"/><path fill="#85CE2F" d="M 201.855469 299.144531 C 200.566406 284.71875 210.949219 276.398438 224.058594 273.832031"/><path fill="#74C339" d="M 201.824219 299.542969 C 211.136719 299.082031 220.40625 294.308594 220.984375 286.132812 C 221.367188 280.84375 221.890625 278.046875 223.800781 274.007812"/><g clip-path="url(#q)"><g clip-path="url(#r)"><g clip-path="url(#s)"><g clip-path="url(#t)"><path fill="url(#u)" d="M 246.816406 316.316406 L 158.859375 314.066406 L 158.03125 346.277344 L 245.988281 348.53125 Z M 246.816406 316.316406"/></g></g></g></g><path fill="#74C339" d="M 60.882812 299.171875 L 58.652344 323.339844 L 63.113281 323.339844 L 60.882812 299.171875"/><path fill="#85CE2F" d="M 59.972656 304.050781 C 59.179688 295.152344 65.589844 289.976562 73.683594 288.421875"/><path fill="#74C339" d="M 59.953125 304.316406 C 65.703125 304.039062 71.421875 301.058594 71.78125 296.019531 C 72.019531 292.761719 72.351562 291.019531 73.527344 288.542969"/><g clip-path="url(#v)"><g clip-path="url(#w)"><g clip-path="url(#x)"><g clip-path="url(#y)"><path fill="url(#z)" d="M 105.84375 316.316406 L 17.875 314.066406 L 17.046875 346.277344 L 105.015625 348.53125 Z M 105.84375 316.316406"/></g></g></g></g></svg>