<svg xmlns="http://www.w3.org/2000/svg" width="705" viewBox="0 0 705 591" height="591" version="1.0"><defs><clipPath id="a"><path d="M 220.6875 257 L 492.382812 257 L 492.382812 394.75 L 220.6875 394.75 Z M 220.6875 257"/></clipPath><clipPath id="b"><path d="M 356 278 L 492.382812 278 L 492.382812 394.75 L 356 394.75 Z M 356 278"/></clipPath><clipPath id="c"><path d="M 356 265 L 492.382812 265 L 492.382812 347 L 356 347 Z M 356 265"/></clipPath><clipPath id="d"><path d="M 356 257 L 492.382812 257 L 492.382812 334 L 356 334 Z M 356 257"/></clipPath><clipPath id="e"><path d="M 220.6875 189.46875 L 492.382812 189.46875 L 492.382812 326 L 220.6875 326 Z M 220.6875 189.46875"/></clipPath><clipPath id="f"><path d="M 370 304 L 487 304 L 487 394.75 L 370 394.75 Z M 370 304"/></clipPath><clipPath id="g"><path d="M 220.6875 278 L 357 278 L 357 394.75 L 220.6875 394.75 Z M 220.6875 278"/></clipPath><clipPath id="h"><path d="M 220.6875 265 L 357 265 L 357 347 L 220.6875 347 Z M 220.6875 265"/></clipPath><clipPath id="i"><path d="M 220.6875 257 L 357 257 L 357 334 L 220.6875 334 Z M 220.6875 257"/></clipPath><clipPath id="j"><path d="M 226 305 L 351 305 L 351 394.75 L 226 394.75 Z M 226 305"/></clipPath><clipPath id="k"><path d="M 220.6875 160.699219 L 492.382812 160.699219 L 492.382812 296.550781 L 220.6875 296.550781 Z M 220.6875 160.699219"/></clipPath><clipPath id="l"><path d="M 220.6875 131.070312 L 492.382812 131.070312 L 492.382812 266.921875 L 220.6875 266.921875 Z M 220.6875 131.070312"/></clipPath><clipPath id="m"><path d="M 220.6875 131.070312 L 476 131.070312 L 476 259 L 220.6875 259 Z M 220.6875 131.070312"/></clipPath><clipPath id="n"><path d="M 305 139 L 492.382812 139 L 492.382812 266.921875 L 305 266.921875 Z M 305 139"/></clipPath><clipPath id="o"><path d="M 237 139 L 492.382812 139 L 492.382812 266.921875 L 237 266.921875 Z M 237 139"/></clipPath><clipPath id="p"><path d="M 220.6875 98.292969 L 492.382812 98.292969 L 492.382812 234.140625 L 220.6875 234.140625 Z M 220.6875 98.292969"/></clipPath><clipPath id="q"><path d="M 305 106 L 492.382812 106 L 492.382812 234.140625 L 305 234.140625 Z M 305 106"/></clipPath><clipPath id="r"><path d="M 237 106 L 492.382812 106 L 492.382812 234.140625 L 237 234.140625 Z M 237 106"/></clipPath><clipPath id="s"><path d="M 145.058594 37.644531 L 329 37.644531 L 329 331.507812 L 145.058594 331.507812 Z M 145.058594 37.644531"/></clipPath><clipPath id="t"><path d="M 188 360 L 503 360 L 503 454.238281 L 188 454.238281 Z M 188 360"/></clipPath></defs><g fill="#5E7F38"><g><g><path d="M 38.484375 -13.640625 L 57.6875 -57.515625 L 66.546875 -57.515625 L 69.765625 0 L 60.90625 0 L 58.546875 -49.4375 L 58.203125 -49.4375 L 36.3125 0 L 35.09375 0 L 13.640625 -47.4375 L 13.296875 -47.4375 L 10.953125 0 L 7.125 0 L 10.34375 -57.515625 L 18.421875 -57.515625 Z M 38.484375 -13.640625" transform="translate(10.158 539.103)"/></g></g></g><g fill="#5E7F38"><g><g><path d="M 9.125 -21.375 C 9.125 -15.113281 10.523438 -10.609375 13.328125 -7.859375 C 16.140625 -5.109375 19.554688 -3.734375 23.578125 -3.734375 C 27.609375 -3.734375 31.332031 -4.515625 34.75 -6.078125 L 34.75 -3.046875 C 30 -0.316406 25.453125 1.046875 21.109375 1.046875 C 15.492188 1.046875 10.945312 -0.660156 7.46875 -4.078125 C 4 -7.492188 2.265625 -12.445312 2.265625 -18.9375 C 2.265625 -25.425781 4.1875 -30.609375 8.03125 -34.484375 C 11.882812 -38.367188 16.535156 -40.3125 21.984375 -40.3125 C 26.210938 -40.3125 29.742188 -38.644531 32.578125 -35.3125 C 35.410156 -31.976562 36.828125 -27.332031 36.828125 -21.375 Z M 17.546875 -36.234375 C 15.523438 -35.242188 13.789062 -33.660156 12.34375 -31.484375 C 10.894531 -29.316406 9.9375 -26.816406 9.46875 -23.984375 L 29.796875 -23.984375 C 29.617188 -26.410156 29.050781 -28.492188 28.09375 -30.234375 C 27.144531 -31.972656 26.003906 -33.25 24.671875 -34.0625 C 22.296875 -35.507812 19.921875 -36.234375 17.546875 -36.234375 Z M 17.546875 -36.234375" transform="translate(87.387 539.103)"/></g></g></g><g fill="#5E7F38"><g><g><path d="M 14.6875 -51.34375 C 14.6875 -50.070312 14.25 -49 13.375 -48.125 C 12.507812 -47.257812 11.453125 -46.828125 10.203125 -46.828125 C 8.960938 -46.828125 7.90625 -47.257812 7.03125 -48.125 C 6.164062 -49 5.734375 -50.070312 5.734375 -51.34375 C 5.734375 -52.613281 6.164062 -53.679688 7.03125 -54.546875 C 7.90625 -55.421875 8.960938 -55.859375 10.203125 -55.859375 C 11.453125 -55.859375 12.507812 -55.421875 13.375 -54.546875 C 14.25 -53.679688 14.6875 -52.613281 14.6875 -51.34375 Z M 6.515625 -39.265625 L 13.90625 -39.265625 L 13.90625 1.5625 C 13.90625 7.582031 12.570312 12.054688 9.90625 14.984375 C 7.238281 17.910156 3.765625 19.375 -0.515625 19.375 C -2.429688 19.375 -4.632812 18.9375 -7.125 18.0625 L -6.421875 14.6875 C -4.453125 15.144531 -2.539062 15.375 -0.6875 15.375 C 1.96875 15.375 3.832031 14.414062 4.90625 12.5 C 5.976562 10.59375 6.515625 8.367188 6.515625 5.828125 Z M 6.515625 -39.265625" transform="translate(128.13 539.103)"/></g></g></g><g fill="#5E7F38"><g><g><path d="M 23.28125 -40.3125 C 28.375 -40.3125 32.585938 -38.570312 35.921875 -35.09375 C 39.253906 -31.625 40.921875 -26.847656 40.921875 -20.765625 C 40.921875 -16.878906 40.253906 -13.457031 38.921875 -10.5 C 37.585938 -7.550781 35.847656 -5.269531 33.703125 -3.65625 C 29.597656 -0.519531 25.007812 1.046875 19.9375 1.046875 C 14.875 1.046875 10.675781 -0.6875 7.34375 -4.15625 C 4.007812 -7.632812 2.34375 -12.414062 2.34375 -18.5 C 2.34375 -22.382812 2.992188 -25.800781 4.296875 -28.75 C 5.597656 -31.707031 7.320312 -34 9.46875 -35.625 C 13.582031 -38.75 18.1875 -40.3125 23.28125 -40.3125 Z M 21.546875 -1.90625 C 24.097656 -1.90625 26.269531 -2.890625 28.0625 -4.859375 C 31.300781 -8.335938 32.921875 -12.957031 32.921875 -18.71875 C 32.921875 -24.476562 31.9375 -28.96875 29.96875 -32.1875 C 28 -35.40625 24.785156 -37.015625 20.328125 -37.015625 C 17.023438 -35.734375 14.519531 -33.484375 12.8125 -30.265625 C 11.101562 -27.054688 10.25 -23.175781 10.25 -18.625 C 10.25 -14.082031 11.175781 -10.160156 13.03125 -6.859375 C 14.882812 -3.554688 17.722656 -1.90625 21.546875 -1.90625 Z M 21.546875 -1.90625" transform="translate(148.545 539.103)"/></g></g></g><g fill="#5E7F38"><g><g><path d="M 12.859375 0 L 5.5625 0 L 5.5625 -39.265625 L 10.59375 -39.265625 L 12.59375 -31.96875 C 13.75 -34 15.585938 -35.910156 18.109375 -37.703125 C 20.628906 -39.492188 23.222656 -40.59375 25.890625 -41 L 26.75 -35.015625 C 24.613281 -35.015625 22.195312 -34.347656 19.5 -33.015625 C 16.8125 -31.679688 14.597656 -30.203125 12.859375 -28.578125 Z M 12.859375 0" transform="translate(191.981 539.103)"/></g></g></g><g fill="#5E7F38"><g><g><path d="M 24.765625 -9.203125 L 24.765625 -18.15625 C 20.585938 -17.863281 17.164062 -16.9375 14.5 -15.375 C 11.84375 -13.8125 10.515625 -12.128906 10.515625 -10.328125 C 10.515625 -8.535156 10.976562 -6.988281 11.90625 -5.6875 C 12.832031 -4.382812 14.019531 -3.472656 15.46875 -2.953125 C 17.375 -3.296875 19.398438 -4.25 21.546875 -5.8125 C 23.691406 -7.382812 24.765625 -8.515625 24.765625 -9.203125 Z M 31.890625 -11.546875 C 31.890625 -7.441406 33.394531 -4.316406 36.40625 -2.171875 L 31.890625 1.125 L 24.84375 -5.21875 C 20.269531 -1.039062 16.039062 1.046875 12.15625 1.046875 C 9.613281 1.046875 7.425781 0.234375 5.59375 -1.390625 C 3.769531 -3.015625 2.859375 -5.054688 2.859375 -7.515625 C 2.859375 -9.972656 3.597656 -12.015625 5.078125 -13.640625 C 6.554688 -15.265625 8.515625 -16.507812 10.953125 -17.375 C 15.117188 -18.9375 19.722656 -19.921875 24.765625 -20.328125 L 24.765625 -28.5 C 24.765625 -33.300781 21.984375 -35.703125 16.421875 -35.703125 C 13.234375 -35.703125 9.46875 -35.007812 5.125 -33.625 L 4.34375 -35.796875 C 5.5 -36.722656 7.507812 -37.707031 10.375 -38.75 C 13.25 -39.789062 15.988281 -40.3125 18.59375 -40.3125 C 21.195312 -40.3125 23.378906 -39.960938 25.140625 -39.265625 C 26.910156 -38.566406 28.210938 -37.785156 29.046875 -36.921875 C 29.890625 -36.054688 30.539062 -34.867188 31 -33.359375 C 31.46875 -31.847656 31.734375 -30.660156 31.796875 -29.796875 C 31.859375 -28.929688 31.890625 -27.773438 31.890625 -26.328125 Z M 31.890625 -11.546875" transform="translate(219.606 539.103)"/></g></g></g><g fill="#5E7F38"><g><g><path d="M 36.828125 -11.640625 C 36.828125 -7.640625 38.304688 -4.453125 41.265625 -2.078125 L 36.828125 1.125 L 29.71875 -5.21875 C 27.394531 -3.007812 25.304688 -1.410156 23.453125 -0.421875 C 21.597656 0.554688 19.6875 1.046875 17.71875 1.046875 C 15.75 1.046875 14.007812 0.753906 12.5 0.171875 C 11 -0.398438 9.421875 -1.367188 7.765625 -2.734375 C 6.117188 -4.097656 4.789062 -6.238281 3.78125 -9.15625 C 2.769531 -12.082031 2.265625 -15.863281 2.265625 -20.5 C 2.265625 -25.132812 3.640625 -29.578125 6.390625 -33.828125 C 9.140625 -38.085938 12.914062 -40.21875 17.71875 -40.21875 C 21.3125 -40.21875 25.222656 -38.890625 29.453125 -36.234375 L 29.453125 -59.328125 L 36.828125 -59.328125 Z M 29.453125 -8.78125 L 29.453125 -33.015625 C 26.378906 -35.035156 23.570312 -36.046875 21.03125 -36.046875 C 17.664062 -36.046875 14.96875 -34.46875 12.9375 -31.3125 C 10.914062 -28.15625 9.90625 -24.203125 9.90625 -19.453125 C 9.90625 -14.710938 10.640625 -10.90625 12.109375 -8.03125 C 13.585938 -5.164062 15.429688 -3.441406 17.640625 -2.859375 C 19.660156 -3.035156 21.640625 -3.53125 23.578125 -4.34375 C 25.523438 -5.15625 26.988281 -5.976562 27.96875 -6.8125 C 28.957031 -7.65625 29.453125 -8.3125 29.453125 -8.78125 Z M 29.453125 -8.78125" transform="translate(258.177 539.103)"/></g></g></g><g fill="#5E7F38"><g><g><path d="M 23.28125 -40.3125 C 28.375 -40.3125 32.585938 -38.570312 35.921875 -35.09375 C 39.253906 -31.625 40.921875 -26.847656 40.921875 -20.765625 C 40.921875 -16.878906 40.253906 -13.457031 38.921875 -10.5 C 37.585938 -7.550781 35.847656 -5.269531 33.703125 -3.65625 C 29.597656 -0.519531 25.007812 1.046875 19.9375 1.046875 C 14.875 1.046875 10.675781 -0.6875 7.34375 -4.15625 C 4.007812 -7.632812 2.34375 -12.414062 2.34375 -18.5 C 2.34375 -22.382812 2.992188 -25.800781 4.296875 -28.75 C 5.597656 -31.707031 7.320312 -34 9.46875 -35.625 C 13.582031 -38.75 18.1875 -40.3125 23.28125 -40.3125 Z M 21.546875 -1.90625 C 24.097656 -1.90625 26.269531 -2.890625 28.0625 -4.859375 C 31.300781 -8.335938 32.921875 -12.957031 32.921875 -18.71875 C 32.921875 -24.476562 31.9375 -28.96875 29.96875 -32.1875 C 28 -35.40625 24.785156 -37.015625 20.328125 -37.015625 C 17.023438 -35.734375 14.519531 -33.484375 12.8125 -30.265625 C 11.101562 -27.054688 10.25 -23.175781 10.25 -18.625 C 10.25 -14.082031 11.175781 -10.160156 13.03125 -6.859375 C 14.882812 -3.554688 17.722656 -1.90625 21.546875 -1.90625 Z M 21.546875 -1.90625" transform="translate(301.613 539.103)"/></g></g></g><g fill="#5E7F38"><g><g><path d="M 12.859375 0 L 5.5625 0 L 5.5625 -39.265625 L 10.59375 -39.265625 L 12.59375 -31.96875 C 13.75 -34 15.585938 -35.910156 18.109375 -37.703125 C 20.628906 -39.492188 23.222656 -40.59375 25.890625 -41 L 26.75 -35.015625 C 24.613281 -35.015625 22.195312 -34.347656 19.5 -33.015625 C 16.8125 -31.679688 14.597656 -30.203125 12.859375 -28.578125 Z M 12.859375 0" transform="translate(345.05 539.103)"/></g></g></g><g fill="#5E7F38"><g><g><path d="M 36.828125 -11.640625 C 36.828125 -7.640625 38.304688 -4.453125 41.265625 -2.078125 L 36.828125 1.125 L 29.71875 -5.21875 C 27.394531 -3.007812 25.304688 -1.410156 23.453125 -0.421875 C 21.597656 0.554688 19.6875 1.046875 17.71875 1.046875 C 15.75 1.046875 14.007812 0.753906 12.5 0.171875 C 11 -0.398438 9.421875 -1.367188 7.765625 -2.734375 C 6.117188 -4.097656 4.789062 -6.238281 3.78125 -9.15625 C 2.769531 -12.082031 2.265625 -15.863281 2.265625 -20.5 C 2.265625 -25.132812 3.640625 -29.578125 6.390625 -33.828125 C 9.140625 -38.085938 12.914062 -40.21875 17.71875 -40.21875 C 21.3125 -40.21875 25.222656 -38.890625 29.453125 -36.234375 L 29.453125 -59.328125 L 36.828125 -59.328125 Z M 29.453125 -8.78125 L 29.453125 -33.015625 C 26.378906 -35.035156 23.570312 -36.046875 21.03125 -36.046875 C 17.664062 -36.046875 14.96875 -34.46875 12.9375 -31.3125 C 10.914062 -28.15625 9.90625 -24.203125 9.90625 -19.453125 C 9.90625 -14.710938 10.640625 -10.90625 12.109375 -8.03125 C 13.585938 -5.164062 15.429688 -3.441406 17.640625 -2.859375 C 19.660156 -3.035156 21.640625 -3.53125 23.578125 -4.34375 C 25.523438 -5.15625 26.988281 -5.976562 27.96875 -6.8125 C 28.957031 -7.65625 29.453125 -8.3125 29.453125 -8.78125 Z M 29.453125 -8.78125" transform="translate(394.393 539.103)"/></g></g></g><g fill="#5E7F38"><g><g><path d="M 9.125 -21.375 C 9.125 -15.113281 10.523438 -10.609375 13.328125 -7.859375 C 16.140625 -5.109375 19.554688 -3.734375 23.578125 -3.734375 C 27.609375 -3.734375 31.332031 -4.515625 34.75 -6.078125 L 34.75 -3.046875 C 30 -0.316406 25.453125 1.046875 21.109375 1.046875 C 15.492188 1.046875 10.945312 -0.660156 7.46875 -4.078125 C 4 -7.492188 2.265625 -12.445312 2.265625 -18.9375 C 2.265625 -25.425781 4.1875 -30.609375 8.03125 -34.484375 C 11.882812 -38.367188 16.535156 -40.3125 21.984375 -40.3125 C 26.210938 -40.3125 29.742188 -38.644531 32.578125 -35.3125 C 35.410156 -31.976562 36.828125 -27.332031 36.828125 -21.375 Z M 17.546875 -36.234375 C 15.523438 -35.242188 13.789062 -33.660156 12.34375 -31.484375 C 10.894531 -29.316406 9.9375 -26.816406 9.46875 -23.984375 L 29.796875 -23.984375 C 29.617188 -26.410156 29.050781 -28.492188 28.09375 -30.234375 C 27.144531 -31.972656 26.003906 -33.25 24.671875 -34.0625 C 22.296875 -35.507812 19.921875 -36.234375 17.546875 -36.234375 Z M 17.546875 -36.234375" transform="translate(437.828 539.103)"/></g></g></g><g fill="#5E7F38"><g><g><path d="M 14.078125 -47.515625 C 14.078125 -44.972656 15.070312 -42.613281 17.0625 -40.4375 C 19.0625 -38.269531 21.492188 -36.359375 24.359375 -34.703125 C 27.234375 -33.054688 30.085938 -31.378906 32.921875 -29.671875 C 35.765625 -27.960938 38.179688 -25.863281 40.171875 -23.375 C 42.171875 -20.882812 43.171875 -18.128906 43.171875 -15.109375 C 43.171875 -10.367188 41.421875 -6.488281 37.921875 -3.46875 C 34.421875 -0.457031 29.6875 1.046875 23.71875 1.046875 C 17.75 1.046875 11.84375 -0.0820312 6 -2.34375 L 6 -6.421875 C 11.90625 -3.472656 16.925781 -2 21.0625 -2 C 25.207031 -2 28.4375 -3.007812 30.75 -5.03125 C 33.070312 -7.0625 34.234375 -9.875 34.234375 -13.46875 C 34.234375 -15.894531 33.273438 -18.109375 31.359375 -20.109375 C 29.453125 -22.109375 27.132812 -23.847656 24.40625 -25.328125 C 21.6875 -26.804688 18.960938 -28.328125 16.234375 -29.890625 C 13.515625 -31.453125 11.195312 -33.429688 9.28125 -35.828125 C 7.375 -38.234375 6.421875 -41.144531 6.421875 -44.5625 C 6.421875 -47.976562 7.941406 -51.160156 10.984375 -54.109375 C 14.023438 -57.066406 18.554688 -58.546875 24.578125 -58.546875 C 28.523438 -58.546875 33.507812 -57.648438 39.53125 -55.859375 L 38.65625 -49.953125 C 30.84375 -53.304688 24.15625 -54.984375 18.59375 -54.984375 C 15.582031 -53.535156 14.078125 -51.046875 14.078125 -47.515625 Z M 14.078125 -47.515625" transform="translate(500.29 539.103)"/></g></g></g><g fill="#5E7F38"><g><g><path d="M 34.484375 -11.640625 C 34.484375 -7.640625 35.988281 -4.484375 39 -2.171875 L 34.484375 1.046875 L 27.453125 -5.296875 C 25.078125 -3.035156 22.960938 -1.410156 21.109375 -0.421875 C 19.253906 0.554688 17.066406 1.046875 14.546875 1.046875 C 12.023438 1.046875 9.707031 0.078125 7.59375 -1.859375 C 5.488281 -3.804688 4.4375 -7.15625 4.4375 -11.90625 L 4.4375 -39.265625 L 11.8125 -39.265625 L 11.8125 -11.46875 C 11.8125 -8.6875 12.316406 -6.585938 13.328125 -5.171875 C 14.347656 -3.753906 16.113281 -3.046875 18.625 -3.046875 C 21.144531 -3.046875 23.972656 -4.894531 27.109375 -8.59375 L 27.109375 -39.265625 L 34.484375 -39.265625 Z M 34.484375 -11.640625" transform="translate(548.59 539.103)"/></g></g></g><g fill="#5E7F38"><g><g><path d="M 9.125 -21.375 C 9.125 -15.113281 10.523438 -10.609375 13.328125 -7.859375 C 16.140625 -5.109375 19.554688 -3.734375 23.578125 -3.734375 C 27.609375 -3.734375 31.332031 -4.515625 34.75 -6.078125 L 34.75 -3.046875 C 30 -0.316406 25.453125 1.046875 21.109375 1.046875 C 15.492188 1.046875 10.945312 -0.660156 7.46875 -4.078125 C 4 -7.492188 2.265625 -12.445312 2.265625 -18.9375 C 2.265625 -25.425781 4.1875 -30.609375 8.03125 -34.484375 C 11.882812 -38.367188 16.535156 -40.3125 21.984375 -40.3125 C 26.210938 -40.3125 29.742188 -38.644531 32.578125 -35.3125 C 35.410156 -31.976562 36.828125 -27.332031 36.828125 -21.375 Z M 17.546875 -36.234375 C 15.523438 -35.242188 13.789062 -33.660156 12.34375 -31.484375 C 10.894531 -29.316406 9.9375 -26.816406 9.46875 -23.984375 L 29.796875 -23.984375 C 29.617188 -26.410156 29.050781 -28.492188 28.09375 -30.234375 C 27.144531 -31.972656 26.003906 -33.25 24.671875 -34.0625 C 22.296875 -35.507812 19.921875 -36.234375 17.546875 -36.234375 Z M 17.546875 -36.234375" transform="translate(590.289 539.103)"/></g></g></g><g fill="#5E7F38"><g><g><path d="M 13.8125 -59.328125 L 13.8125 0 L 6.515625 0 L 6.515625 -59.328125 Z M 13.8125 -59.328125" transform="translate(631.031 539.103)"/></g></g></g><g fill="#5E7F38"><g><g><path d="M 23.28125 -40.3125 C 28.375 -40.3125 32.585938 -38.570312 35.921875 -35.09375 C 39.253906 -31.625 40.921875 -26.847656 40.921875 -20.765625 C 40.921875 -16.878906 40.253906 -13.457031 38.921875 -10.5 C 37.585938 -7.550781 35.847656 -5.269531 33.703125 -3.65625 C 29.597656 -0.519531 25.007812 1.046875 19.9375 1.046875 C 14.875 1.046875 10.675781 -0.6875 7.34375 -4.15625 C 4.007812 -7.632812 2.34375 -12.414062 2.34375 -18.5 C 2.34375 -22.382812 2.992188 -25.800781 4.296875 -28.75 C 5.597656 -31.707031 7.320312 -34 9.46875 -35.625 C 13.582031 -38.75 18.1875 -40.3125 23.28125 -40.3125 Z M 21.546875 -1.90625 C 24.097656 -1.90625 26.269531 -2.890625 28.0625 -4.859375 C 31.300781 -8.335938 32.921875 -12.957031 32.921875 -18.71875 C 32.921875 -24.476562 31.9375 -28.96875 29.96875 -32.1875 C 28 -35.40625 24.785156 -37.015625 20.328125 -37.015625 C 17.023438 -35.734375 14.519531 -33.484375 12.8125 -30.265625 C 11.101562 -27.054688 10.25 -23.175781 10.25 -18.625 C 10.25 -14.082031 11.175781 -10.160156 13.03125 -6.859375 C 14.882812 -3.554688 17.722656 -1.90625 21.546875 -1.90625 Z M 21.546875 -1.90625" transform="translate(651.36 539.103)"/></g></g></g><g clip-path="url(#a)"><path fill="#744417" d="M 220.6875 257.394531 L 220.6875 393.242188 L 356.535156 461.167969 L 492.382812 393.242188 L 492.382812 257.394531 L 220.6875 257.394531"/></g><g clip-path="url(#b)"><path fill="#4C2D13" d="M 356.535156 461.167969 L 356.535156 346.542969 L 492.382812 278.621094 L 492.382812 393.242188 L 356.535156 461.167969 M 373.082031 431.882812 L 372.671875 432.726562 L 373.082031 433.136719 L 373.515625 432.292969 L 373.082031 431.882812 M 391.339844 424.742188 C 390.957031 424.742188 390.519531 424.839844 390.0625 425.082031 C 388.375 425.925781 387.097656 428.046875 387.097656 429.761719 C 387.097656 431.207031 387.890625 431.859375 388.808594 431.859375 C 389.21875 431.859375 389.675781 431.714844 390.0625 431.449219 C 391.777344 430.605469 393.03125 428.484375 393.03125 426.769531 C 393.03125 425.539062 392.355469 424.742188 391.339844 424.742188 M 377.664062 416.566406 C 377.328125 416.566406 376.941406 416.710938 376.484375 417.023438 C 375.230469 417.433594 374.359375 419.148438 374.359375 419.992188 C 374.359375 420.617188 374.820312 421.003906 375.566406 421.003906 C 375.832031 421.003906 376.144531 420.957031 376.484375 420.835938 C 377.761719 420.402344 378.605469 418.714844 378.605469 417.871094 C 378.605469 417.050781 378.269531 416.566406 377.664062 416.566406 M 396.839844 409.476562 C 396.480469 409.476562 396.046875 409.570312 395.585938 409.789062 C 393.898438 410.65625 392.621094 412.78125 392.621094 414.46875 C 392.621094 415.722656 393.296875 416.496094 394.332031 416.496094 C 394.71875 416.496094 395.128906 416.398438 395.585938 416.15625 C 397.273438 415.3125 398.554688 413.191406 398.554688 411.5 C 398.554688 410.246094 397.878906 409.476562 396.839844 409.476562 M 418.71875 408.171875 C 418.382812 408.171875 418.019531 408.292969 417.679688 408.535156 C 416.402344 409.378906 415.125 411.066406 415.125 412.34375 C 415.125 413.261719 415.777344 413.960938 416.621094 413.960938 C 416.957031 413.960938 417.320312 413.867188 417.679688 413.625 C 418.9375 412.78125 420.214844 411.066406 420.214844 409.789062 C 420.214844 408.871094 419.5625 408.171875 418.71875 408.171875 M 396.863281 405.542969 L 396.019531 406.410156 L 396.863281 406.820312 L 397.710938 405.976562 L 396.863281 405.542969 M 411.121094 400.285156 C 410.902344 400.285156 410.6875 400.332031 410.445312 400.453125 C 409.601562 400.886719 408.757812 401.734375 408.757812 402.578125 C 408.757812 403.203125 409.214844 403.589844 409.792969 403.589844 C 409.988281 403.589844 410.226562 403.542969 410.445312 403.421875 C 411.289062 403.011719 412.15625 402.167969 412.15625 401.296875 C 412.15625 400.695312 411.699219 400.285156 411.121094 400.285156 M 374.554688 394.59375 C 374.214844 394.59375 373.878906 394.714844 373.515625 394.953125 C 372.238281 395.773438 370.984375 397.488281 370.984375 398.765625 C 370.984375 399.683594 371.632812 400.382812 372.480469 400.382812 C 372.816406 400.382812 373.152344 400.261719 373.515625 400.042969 C 374.792969 399.199219 376.046875 397.488281 376.046875 396.207031 C 376.046875 395.292969 375.398438 394.59375 374.554688 394.59375 M 411.628906 389.40625 C 411.289062 389.40625 410.902344 389.550781 410.445312 389.839844 C 409.191406 390.273438 408.324219 391.964844 408.324219 392.808594 C 408.324219 393.433594 408.78125 393.820312 409.527344 393.820312 C 409.792969 393.820312 410.109375 393.773438 410.445312 393.675781 C 411.722656 393.242188 412.566406 391.53125 412.566406 390.710938 C 412.566406 389.863281 412.230469 389.40625 411.628906 389.40625 M 423.375 387.378906 C 423.058594 387.378906 422.699219 387.476562 422.335938 387.71875 C 421.058594 388.5625 419.78125 390.273438 419.78125 391.53125 C 419.78125 392.46875 420.457031 393.167969 421.300781 393.167969 C 421.636719 393.167969 421.976562 393.050781 422.335938 392.808594 C 423.613281 391.964844 424.894531 390.273438 424.894531 388.996094 C 424.894531 388.078125 424.21875 387.378906 423.375 387.378906 M 439.992188 389.261719 C 439.777344 389.261719 439.535156 389.308594 439.316406 389.429688 C 438.472656 389.839844 437.628906 390.710938 437.628906 391.53125 C 437.628906 392.15625 438.0625 392.566406 438.640625 392.566406 C 438.859375 392.566406 439.078125 392.519531 439.316406 392.398438 C 440.160156 391.964844 441.007812 391.121094 441.007812 390.273438 C 441.007812 389.648438 440.570312 389.261719 439.992188 389.261719 M 393.898438 388.152344 L 393.464844 388.996094 L 393.898438 389.429688 L 394.308594 388.5625 L 393.898438 388.152344 M 463.269531 382.460938 C 463.101562 382.460938 462.882812 382.507812 462.667969 382.628906 C 461.824219 383.039062 460.953125 383.90625 460.953125 384.75 C 460.953125 385.378906 461.414062 385.765625 461.992188 385.765625 C 462.207031 385.765625 462.449219 385.714844 462.667969 385.59375 C 463.511719 385.183594 464.378906 384.316406 464.378906 383.472656 C 464.042969 382.847656 463.753906 382.460938 463.269531 382.460938 M 396.429688 374.644531 C 396.046875 374.644531 395.609375 374.765625 395.175781 374.980469 C 393.464844 375.828125 392.210938 377.972656 392.210938 379.660156 C 392.210938 380.890625 392.886719 381.6875 393.898438 381.6875 C 394.285156 381.6875 394.71875 381.589844 395.175781 381.351562 C 396.863281 380.507812 398.144531 378.382812 398.144531 376.695312 C 398.144531 375.441406 397.46875 374.644531 396.429688 374.644531 M 445.878906 372.957031 C 445.542969 372.957031 445.179688 373.054688 444.839844 373.292969 C 443.5625 374.136719 442.285156 375.828125 442.285156 377.105469 C 442.285156 378.023438 442.960938 378.722656 443.804688 378.722656 C 444.117188 378.722656 444.480469 378.625 444.839844 378.382812 C 446.121094 377.539062 447.398438 375.828125 447.398438 374.546875 C 447.398438 373.65625 446.722656 372.957031 445.878906 372.957031 M 459.699219 369.484375 L 458.855469 370.738281 L 459.699219 371.171875 L 460.542969 369.894531 L 459.699219 369.484375 M 430.585938 364.03125 C 430.273438 364.03125 429.910156 364.128906 429.550781 364.371094 C 428.269531 364.804688 426.992188 366.492188 426.992188 368.203125 C 426.992188 369.121094 427.667969 369.820312 428.511719 369.820312 C 428.847656 369.820312 429.210938 369.699219 429.550781 369.484375 C 430.828125 368.613281 432.105469 366.925781 432.105469 365.648438 C 432.105469 364.730469 431.429688 364.03125 430.585938 364.03125 M 413.003906 366.925781 L 412.15625 368.203125 L 413.003906 368.613281 L 413.847656 367.335938 L 413.003906 366.925781 M 409.167969 355.539062 C 408.78125 355.539062 408.347656 355.660156 407.914062 355.878906 C 406.199219 356.746094 404.945312 358.84375 404.945312 360.558594 C 404.945312 362.003906 405.523438 362.65625 406.441406 362.65625 C 406.875 362.65625 407.359375 362.511719 407.914062 362.246094 C 409.601562 361.402344 410.878906 359.28125 410.878906 357.566406 C 410.878906 356.335938 410.203125 355.539062 409.167969 355.539062 M 425.691406 352.574219 C 425.351562 352.574219 424.941406 352.671875 424.460938 352.910156 C 423.179688 353.757812 421.925781 355.46875 421.925781 356.746094 C 421.925781 357.640625 422.578125 358.339844 423.421875 358.339844 C 423.761719 358.339844 424.097656 358.242188 424.460938 358 C 425.738281 357.15625 426.992188 355.46875 426.992188 354.191406 C 426.992188 353.273438 426.558594 352.574219 425.691406 352.574219 M 382.609375 349.535156 C 382.199219 349.535156 381.691406 349.679688 381.164062 349.945312 C 379.472656 350.789062 378.195312 352.910156 378.195312 354.601562 C 378.195312 355.855469 378.871094 356.652344 379.90625 356.652344 C 380.269531 356.652344 380.703125 356.53125 381.164062 356.3125 C 382.851562 355.46875 384.128906 353.320312 384.128906 351.632812 C 384.128906 350.1875 383.527344 349.535156 382.609375 349.535156 M 447.878906 342.660156 C 447.207031 342.660156 446.457031 342.828125 445.6875 343.144531 C 442.71875 344.832031 440.160156 348.257812 440.160156 351.632812 C 440.160156 353.828125 441.5625 355.105469 443.492188 355.105469 C 444.167969 355.105469 444.914062 354.9375 445.6875 354.601562 C 448.652344 352.910156 451.210938 349.078125 451.210938 346.109375 C 451.210938 343.9375 449.808594 342.660156 447.878906 342.660156 M 462.644531 344.082031 C 462.28125 344.082031 461.847656 344.179688 461.386719 344.421875 C 459.699219 345.265625 458.421875 347.386719 458.421875 349.078125 C 458.421875 350.332031 459.097656 351.125 460.132812 351.125 C 460.519531 351.125 460.929688 351.007812 461.386719 350.789062 C 463.101562 349.945312 464.378906 347.824219 464.378906 346.109375 C 464.378906 344.878906 463.679688 344.082031 462.644531 344.082031 M 403.738281 340.441406 C 403.449219 340.441406 403.160156 340.488281 402.800781 340.585938 C 401.519531 341.019531 400.699219 342.734375 400.699219 343.578125 C 400.699219 344.398438 401.039062 344.855469 401.640625 344.855469 C 401.953125 344.855469 402.363281 344.734375 402.800781 344.421875 C 404.078125 344.011719 404.945312 342.296875 404.945312 341.453125 C 404.945312 340.828125 404.488281 340.441406 403.738281 340.441406 M 423.15625 333.46875 C 422.796875 333.46875 422.359375 333.589844 421.925781 333.808594 C 420.214844 334.652344 418.9375 336.773438 418.9375 338.488281 C 418.9375 339.71875 419.636719 340.515625 420.648438 340.515625 C 421.035156 340.515625 421.46875 340.394531 421.925781 340.175781 C 423.613281 339.332031 424.894531 337.210938 424.894531 335.519531 C 424.894531 334.265625 424.195312 333.46875 423.15625 333.46875 M 486.015625 335.519531 L 485.171875 336.773438 L 486.015625 337.210938 L 486.859375 335.929688 L 486.015625 335.519531 M 451.210938 334.242188 L 450.363281 335.519531 L 451.210938 335.929688 L 452.054688 334.652344 L 451.210938 334.242188 M 471.398438 331.515625 C 471.179688 331.515625 470.964844 331.566406 470.722656 331.683594 C 469.878906 332.09375 469.035156 332.964844 469.035156 333.808594 C 469.035156 334.433594 469.492188 334.820312 470.070312 334.820312 C 470.289062 334.820312 470.507812 334.773438 470.722656 334.652344 C 471.589844 334.242188 472.4375 333.375 472.4375 332.53125 C 472.4375 331.902344 471.976562 331.515625 471.398438 331.515625 M 408.324219 324.980469 C 407.9375 324.980469 407.503906 325.101562 407.042969 325.316406 C 405.355469 326.160156 404.078125 328.285156 404.078125 329.996094 C 404.078125 331.226562 404.753906 332.023438 405.789062 332.023438 C 406.175781 332.023438 406.609375 331.925781 407.042969 331.683594 C 408.757812 330.839844 410.011719 328.71875 410.011719 327.007812 C 410.011719 325.777344 409.335938 324.980469 408.324219 324.980469 M 452.464844 327.441406 L 451.644531 328.285156 L 452.464844 328.71875 L 453.332031 327.875 L 452.464844 327.441406 M 426.171875 327.007812 L 425.738281 327.875 L 426.171875 328.285156 L 426.582031 327.441406 L 426.171875 327.007812 M 442.285156 315.210938 C 441.898438 315.210938 441.464844 315.332031 441.007812 315.546875 C 439.316406 316.394531 438.039062 318.515625 438.039062 320.226562 C 438.039062 321.457031 438.714844 322.253906 439.753906 322.253906 C 440.136719 322.253906 440.570312 322.15625 441.007812 321.917969 C 442.71875 321.070312 443.972656 318.949219 443.972656 317.261719 C 443.972656 316.007812 443.296875 315.210938 442.285156 315.210938 M 456.925781 305.875 C 456.589844 305.875 456.226562 305.972656 455.890625 306.214844 C 454.609375 306.648438 453.332031 308.335938 453.332031 310.023438 C 453.332031 310.941406 453.984375 311.640625 454.828125 311.640625 C 455.164062 311.640625 455.527344 311.542969 455.890625 311.304688 C 457.144531 310.460938 458.421875 308.769531 458.421875 307.492188 C 458.421875 306.574219 457.769531 305.875 456.925781 305.875 M 484.160156 304.355469 C 483.84375 304.355469 483.460938 304.40625 483.050781 304.523438 C 481.769531 305.371094 480.492188 307.058594 480.492188 308.335938 C 480.492188 309.253906 481.167969 309.953125 482.011719 309.953125 C 482.324219 309.953125 482.6875 309.855469 483.050781 309.613281 C 484.328125 308.769531 485.605469 307.058594 485.605469 305.78125 C 485.605469 304.839844 485.125 304.355469 484.160156 304.355469"/></g><g clip-path="url(#c)"><path fill="#3A2314" d="M 356.535156 346.542969 L 356.535156 333.808594 L 492.382812 265.882812 L 492.382812 278.621094 L 356.535156 346.542969"/></g><g clip-path="url(#d)"><path fill="#271911" d="M 356.535156 333.808594 L 356.535156 325.316406 L 492.382812 257.394531 L 492.382812 265.882812 L 356.535156 333.808594"/></g><g clip-path="url(#e)" fill="#84CE39"><path d="M 356.535156 189.46875 L 492.382812 257.394531 L 356.535156 325.316406 L 220.6875 257.394531 L 356.535156 189.46875"/><path d="M 356.535156 189.46875 L 492.382812 257.394531 L 356.535156 325.316406 L 220.6875 257.394531 L 356.535156 189.46875"/><path d="M 356.535156 189.46875 L 492.382812 257.394531 L 356.535156 325.316406 L 220.6875 257.394531 L 356.535156 189.46875"/><path d="M 356.535156 189.46875 L 492.382812 257.394531 L 356.535156 325.316406 L 220.6875 257.394531 L 356.535156 189.46875"/></g><g clip-path="url(#f)"><path fill="#322013" d="M 373.082031 433.136719 L 372.671875 432.726562 L 373.082031 431.882812 L 373.515625 432.292969 L 373.082031 433.136719 M 388.808594 431.859375 C 387.890625 431.859375 387.097656 431.207031 387.097656 429.761719 C 387.097656 428.046875 388.375 425.925781 390.0625 425.082031 C 390.519531 424.839844 390.957031 424.742188 391.339844 424.742188 C 392.355469 424.742188 393.03125 425.539062 393.03125 426.769531 C 393.03125 428.484375 391.777344 430.605469 390.0625 431.449219 C 389.675781 431.714844 389.21875 431.859375 388.808594 431.859375 M 375.566406 421.003906 C 374.820312 421.003906 374.359375 420.617188 374.359375 419.992188 C 374.359375 419.148438 375.230469 417.433594 376.484375 417.023438 C 376.941406 416.710938 377.328125 416.566406 377.664062 416.566406 C 378.269531 416.566406 378.605469 417.050781 378.605469 417.871094 C 378.605469 418.714844 377.761719 420.402344 376.484375 420.835938 C 376.144531 420.957031 375.832031 421.003906 375.566406 421.003906 M 394.332031 416.496094 C 393.296875 416.496094 392.621094 415.722656 392.621094 414.46875 C 392.621094 412.78125 393.898438 410.65625 395.585938 409.789062 C 396.046875 409.570312 396.480469 409.476562 396.839844 409.476562 C 397.878906 409.476562 398.554688 410.246094 398.554688 411.5 C 398.554688 413.191406 397.273438 415.3125 395.585938 416.15625 C 395.128906 416.398438 394.71875 416.496094 394.332031 416.496094 M 416.621094 413.960938 C 415.777344 413.960938 415.125 413.261719 415.125 412.34375 C 415.125 411.066406 416.402344 409.378906 417.679688 408.535156 C 418.019531 408.292969 418.382812 408.171875 418.71875 408.171875 C 419.5625 408.171875 420.214844 408.871094 420.214844 409.789062 C 420.214844 411.066406 418.9375 412.78125 417.679688 413.625 C 417.320312 413.867188 416.957031 413.960938 416.621094 413.960938 M 396.863281 406.820312 L 396.019531 406.410156 L 396.863281 405.542969 L 397.710938 405.976562 L 396.863281 406.820312 M 409.792969 403.589844 C 409.214844 403.589844 408.757812 403.203125 408.757812 402.578125 C 408.757812 401.734375 409.601562 400.886719 410.445312 400.453125 C 410.6875 400.332031 410.902344 400.285156 411.121094 400.285156 C 411.699219 400.285156 412.15625 400.695312 412.15625 401.296875 C 412.15625 402.167969 411.289062 403.011719 410.445312 403.421875 C 410.226562 403.542969 409.988281 403.589844 409.792969 403.589844 M 372.480469 400.382812 C 371.632812 400.382812 370.984375 399.683594 370.984375 398.765625 C 370.984375 397.488281 372.238281 395.773438 373.515625 394.953125 C 373.878906 394.714844 374.214844 394.59375 374.554688 394.59375 C 375.398438 394.59375 376.046875 395.292969 376.046875 396.207031 C 376.046875 397.488281 374.792969 399.199219 373.515625 400.042969 C 373.152344 400.261719 372.816406 400.382812 372.480469 400.382812 M 409.527344 393.820312 C 408.78125 393.820312 408.324219 393.433594 408.324219 392.808594 C 408.324219 391.964844 409.191406 390.273438 410.445312 389.839844 C 410.902344 389.550781 411.289062 389.40625 411.628906 389.40625 C 412.230469 389.40625 412.566406 389.863281 412.566406 390.710938 C 412.566406 391.53125 411.722656 393.242188 410.445312 393.675781 C 410.109375 393.773438 409.792969 393.820312 409.527344 393.820312 M 421.300781 393.167969 C 420.457031 393.167969 419.78125 392.46875 419.78125 391.53125 C 419.78125 390.273438 421.058594 388.5625 422.335938 387.71875 C 422.699219 387.476562 423.058594 387.378906 423.375 387.378906 C 424.21875 387.378906 424.894531 388.078125 424.894531 388.996094 C 424.894531 390.273438 423.613281 391.964844 422.335938 392.808594 C 421.976562 393.050781 421.636719 393.167969 421.300781 393.167969 M 438.640625 392.566406 C 438.0625 392.566406 437.628906 392.15625 437.628906 391.53125 C 437.628906 390.710938 438.472656 389.839844 439.316406 389.429688 C 439.535156 389.308594 439.777344 389.261719 439.992188 389.261719 C 440.570312 389.261719 441.007812 389.648438 441.007812 390.273438 C 441.007812 391.121094 440.160156 391.964844 439.316406 392.398438 C 439.078125 392.519531 438.859375 392.566406 438.640625 392.566406 M 393.898438 389.429688 L 393.464844 388.996094 L 393.898438 388.152344 L 394.308594 388.5625 L 393.898438 389.429688 M 461.992188 385.765625 C 461.414062 385.765625 460.953125 385.378906 460.953125 384.75 C 460.953125 383.90625 461.824219 383.039062 462.667969 382.628906 C 462.882812 382.507812 463.101562 382.460938 463.269531 382.460938 C 463.753906 382.460938 464.042969 382.847656 464.378906 383.472656 C 464.378906 384.316406 463.511719 385.183594 462.667969 385.59375 C 462.449219 385.714844 462.207031 385.765625 461.992188 385.765625 M 393.898438 381.6875 C 392.886719 381.6875 392.210938 380.890625 392.210938 379.660156 C 392.210938 377.972656 393.464844 375.828125 395.175781 374.980469 C 395.609375 374.765625 396.046875 374.644531 396.429688 374.644531 C 397.46875 374.644531 398.144531 375.441406 398.144531 376.695312 C 398.144531 378.382812 396.863281 380.507812 395.175781 381.351562 C 394.71875 381.589844 394.285156 381.6875 393.898438 381.6875 M 443.804688 378.722656 C 442.960938 378.722656 442.285156 378.023438 442.285156 377.105469 C 442.285156 375.828125 443.5625 374.136719 444.839844 373.292969 C 445.179688 373.054688 445.542969 372.957031 445.878906 372.957031 C 446.722656 372.957031 447.398438 373.65625 447.398438 374.546875 C 447.398438 375.828125 446.121094 377.539062 444.839844 378.382812 C 444.480469 378.625 444.117188 378.722656 443.804688 378.722656 M 459.699219 371.171875 L 458.855469 370.738281 L 459.699219 369.484375 L 460.542969 369.894531 L 459.699219 371.171875 M 428.511719 369.820312 C 427.667969 369.820312 426.992188 369.121094 426.992188 368.203125 C 426.992188 366.492188 428.269531 364.804688 429.550781 364.371094 C 429.910156 364.128906 430.273438 364.03125 430.585938 364.03125 C 431.429688 364.03125 432.105469 364.730469 432.105469 365.648438 C 432.105469 366.925781 430.828125 368.613281 429.550781 369.484375 C 429.210938 369.699219 428.847656 369.820312 428.511719 369.820312 M 413.003906 368.613281 L 412.15625 368.203125 L 413.003906 366.925781 L 413.847656 367.335938 L 413.003906 368.613281 M 406.441406 362.65625 C 405.523438 362.65625 404.945312 362.003906 404.945312 360.558594 C 404.945312 358.84375 406.199219 356.746094 407.914062 355.878906 C 408.347656 355.660156 408.78125 355.539062 409.167969 355.539062 C 410.203125 355.539062 410.878906 356.335938 410.878906 357.566406 C 410.878906 359.28125 409.601562 361.402344 407.914062 362.246094 C 407.359375 362.511719 406.875 362.65625 406.441406 362.65625 M 423.421875 358.339844 C 422.578125 358.339844 421.925781 357.640625 421.925781 356.746094 C 421.925781 355.46875 423.179688 353.757812 424.460938 352.910156 C 424.941406 352.671875 425.351562 352.574219 425.691406 352.574219 C 426.558594 352.574219 426.992188 353.273438 426.992188 354.191406 C 426.992188 355.46875 425.738281 357.15625 424.460938 358 C 424.097656 358.242188 423.761719 358.339844 423.421875 358.339844 M 379.90625 356.652344 C 378.871094 356.652344 378.195312 355.855469 378.195312 354.601562 C 378.195312 352.910156 379.472656 350.789062 381.164062 349.945312 C 381.691406 349.679688 382.199219 349.535156 382.609375 349.535156 C 383.527344 349.535156 384.128906 350.1875 384.128906 351.632812 C 384.128906 353.320312 382.851562 355.46875 381.164062 356.3125 C 380.703125 356.53125 380.269531 356.652344 379.90625 356.652344 M 443.492188 355.105469 C 441.5625 355.105469 440.160156 353.828125 440.160156 351.632812 C 440.160156 348.257812 442.71875 344.832031 445.6875 343.144531 C 446.457031 342.828125 447.207031 342.660156 447.878906 342.660156 C 449.808594 342.660156 451.210938 343.9375 451.210938 346.109375 C 451.210938 349.078125 448.652344 352.910156 445.6875 354.601562 C 444.914062 354.9375 444.167969 355.105469 443.492188 355.105469 M 460.132812 351.125 C 459.097656 351.125 458.421875 350.332031 458.421875 349.078125 C 458.421875 347.386719 459.699219 345.265625 461.386719 344.421875 C 461.847656 344.179688 462.28125 344.082031 462.644531 344.082031 C 463.679688 344.082031 464.378906 344.878906 464.378906 346.109375 C 464.378906 347.824219 463.101562 349.945312 461.386719 350.789062 C 460.929688 351.007812 460.519531 351.125 460.132812 351.125 M 401.640625 344.855469 C 401.039062 344.855469 400.699219 344.398438 400.699219 343.578125 C 400.699219 342.734375 401.519531 341.019531 402.800781 340.585938 C 403.160156 340.488281 403.449219 340.441406 403.738281 340.441406 C 404.488281 340.441406 404.945312 340.828125 404.945312 341.453125 C 404.945312 342.296875 404.078125 344.011719 402.800781 344.421875 C 402.363281 344.734375 401.953125 344.855469 401.640625 344.855469 M 420.648438 340.515625 C 419.636719 340.515625 418.9375 339.71875 418.9375 338.488281 C 418.9375 336.773438 420.214844 334.652344 421.925781 333.808594 C 422.359375 333.589844 422.796875 333.46875 423.15625 333.46875 C 424.195312 333.46875 424.894531 334.265625 424.894531 335.519531 C 424.894531 337.210938 423.613281 339.332031 421.925781 340.175781 C 421.46875 340.394531 421.035156 340.515625 420.648438 340.515625 M 486.015625 337.210938 L 485.171875 336.773438 L 486.015625 335.519531 L 486.859375 335.929688 L 486.015625 337.210938 M 451.210938 335.929688 L 450.363281 335.519531 L 451.210938 334.242188 L 452.054688 334.652344 L 451.210938 335.929688 M 470.070312 334.820312 C 469.492188 334.820312 469.035156 334.433594 469.035156 333.808594 C 469.035156 332.964844 469.878906 332.09375 470.722656 331.683594 C 470.964844 331.566406 471.179688 331.515625 471.398438 331.515625 C 471.976562 331.515625 472.4375 331.902344 472.4375 332.53125 C 472.4375 333.375 471.589844 334.242188 470.722656 334.652344 C 470.507812 334.773438 470.289062 334.820312 470.070312 334.820312 M 405.789062 332.023438 C 404.753906 332.023438 404.078125 331.226562 404.078125 329.996094 C 404.078125 328.285156 405.355469 326.160156 407.042969 325.316406 C 407.503906 325.101562 407.9375 324.980469 408.324219 324.980469 C 409.335938 324.980469 410.011719 325.777344 410.011719 327.007812 C 410.011719 328.71875 408.757812 330.839844 407.042969 331.683594 C 406.609375 331.925781 406.175781 332.023438 405.789062 332.023438 M 452.464844 328.71875 L 451.644531 328.285156 L 452.464844 327.441406 L 453.332031 327.875 L 452.464844 328.71875 M 426.171875 328.285156 L 425.738281 327.875 L 426.171875 327.007812 L 426.582031 327.441406 L 426.171875 328.285156 M 439.753906 322.253906 C 438.714844 322.253906 438.039062 321.457031 438.039062 320.226562 C 438.039062 318.515625 439.316406 316.394531 441.007812 315.546875 C 441.464844 315.332031 441.898438 315.210938 442.285156 315.210938 C 443.296875 315.210938 443.972656 316.007812 443.972656 317.261719 C 443.972656 318.949219 442.71875 321.070312 441.007812 321.917969 C 440.570312 322.15625 440.136719 322.253906 439.753906 322.253906 M 454.828125 311.640625 C 453.984375 311.640625 453.332031 310.941406 453.332031 310.023438 C 453.332031 308.335938 454.609375 306.648438 455.890625 306.214844 C 456.226562 305.972656 456.589844 305.875 456.925781 305.875 C 457.769531 305.875 458.421875 306.574219 458.421875 307.492188 C 458.421875 308.769531 457.144531 310.460938 455.890625 311.304688 C 455.527344 311.542969 455.164062 311.640625 454.828125 311.640625 M 482.011719 309.953125 C 481.167969 309.953125 480.492188 309.253906 480.492188 308.335938 C 480.492188 307.058594 481.769531 305.371094 483.050781 304.523438 C 483.460938 304.40625 483.84375 304.355469 484.160156 304.355469 C 485.125 304.355469 485.605469 304.839844 485.605469 305.78125 C 485.605469 307.058594 484.328125 308.769531 483.050781 309.613281 C 482.6875 309.855469 482.324219 309.953125 482.011719 309.953125"/></g><g clip-path="url(#g)"><path fill="#653B15" d="M 356.535156 461.167969 L 220.6875 393.242188 L 220.6875 278.621094 L 356.535156 346.542969 L 356.535156 461.167969 M 346.355469 429.832031 C 345.320312 429.832031 344.644531 430.628906 344.644531 431.882812 C 344.644531 433.570312 345.921875 435.695312 347.609375 436.539062 C 347.949219 436.78125 348.332031 436.875 348.695312 436.875 C 349.683594 436.875 350.601562 436.082031 350.601562 434.851562 C 350.601562 433.136719 349.324219 431.015625 347.609375 430.171875 C 347.152344 429.953125 346.742188 429.832031 346.355469 429.832031 M 310.269531 428.890625 L 309.402344 429.328125 L 310.269531 430.605469 L 311.117188 430.171875 L 310.269531 428.890625 M 296.257812 419.21875 C 295.242188 419.21875 294.542969 420.015625 294.542969 421.269531 C 294.542969 422.957031 295.824219 425.082031 297.535156 425.925781 C 297.992188 426.167969 298.402344 426.261719 298.789062 426.261719 C 299.828125 426.261719 300.503906 425.46875 300.503906 424.238281 C 300.503906 422.523438 299.222656 420.835938 297.535156 419.558594 C 297.078125 419.339844 296.644531 419.21875 296.257812 419.21875 M 330.386719 420.257812 C 329.808594 420.257812 329.375 420.644531 329.375 421.269531 C 329.785156 422.113281 330.21875 423.394531 331.0625 423.804688 C 331.28125 423.921875 331.523438 423.972656 331.738281 423.972656 C 332.316406 423.972656 332.75 423.585938 332.75 422.957031 C 332.75 422.113281 331.90625 420.835938 331.0625 420.402344 C 330.847656 420.304688 330.605469 420.257812 330.386719 420.257812 M 310.875 416.011719 C 310.296875 416.011719 309.835938 416.398438 309.835938 417.023438 C 309.835938 417.871094 310.679688 419.148438 311.527344 419.558594 C 311.765625 419.679688 311.984375 419.726562 312.199219 419.726562 C 312.78125 419.726562 313.238281 419.339844 313.238281 418.714844 C 313.238281 417.871094 312.394531 416.589844 311.527344 416.15625 C 311.308594 416.058594 311.089844 416.011719 310.875 416.011719 M 288.417969 397.992188 C 287.574219 397.992188 286.921875 398.691406 286.921875 399.609375 C 286.921875 400.886719 288.175781 403.011719 289.453125 403.421875 C 289.816406 403.664062 290.179688 403.78125 290.492188 403.78125 C 291.335938 403.78125 292.011719 403.082031 292.011719 402.167969 C 292.011719 400.886719 290.734375 399.199219 289.453125 398.332031 C 289.117188 398.089844 288.753906 397.992188 288.417969 397.992188 M 338.710938 396.738281 C 337.695312 396.738281 336.996094 397.511719 336.996094 398.765625 C 336.996094 400.453125 338.277344 402.578125 339.988281 403.421875 C 340.445312 403.664062 340.855469 403.757812 341.242188 403.757812 C 342.28125 403.757812 342.953125 402.988281 342.953125 401.734375 C 342.953125 400.042969 341.675781 397.921875 339.988281 397.054688 C 339.53125 396.835938 339.09375 396.738281 338.710938 396.738281 M 299.199219 389.527344 C 297.292969 389.527344 295.824219 390.855469 295.824219 393.242188 C 295.824219 396.207031 298.378906 400.453125 301.78125 401.734375 C 302.648438 402.238281 303.542969 402.480469 304.363281 402.480469 C 306.242188 402.480469 307.714844 401.152344 307.714844 398.765625 C 307.28125 395.773438 304.746094 391.964844 301.78125 390.273438 C 300.886719 389.769531 299.996094 389.527344 299.199219 389.527344 M 264.851562 389.503906 C 263.8125 389.503906 263.140625 390.300781 263.140625 391.53125 C 263.140625 393.242188 264.417969 395.363281 266.105469 396.207031 C 266.5625 396.449219 267 396.546875 267.359375 396.546875 C 268.398438 396.546875 269.074219 395.75 269.074219 394.519531 C 269.074219 392.808594 267.820312 390.710938 266.105469 389.839844 C 265.648438 389.625 265.238281 389.503906 264.851562 389.503906 M 284.800781 394.085938 L 283.929688 394.519531 L 284.800781 395.773438 L 285.644531 395.363281 C 285.210938 394.519531 285.210938 394.085938 284.800781 394.085938 M 314.105469 377.636719 C 313.070312 377.636719 312.394531 378.40625 312.394531 379.660156 C 312.394531 381.351562 313.648438 383.472656 315.359375 384.316406 C 315.820312 384.558594 316.230469 384.65625 316.613281 384.65625 C 317.652344 384.65625 318.328125 383.882812 318.328125 382.628906 C 318.328125 380.941406 317.050781 378.792969 315.359375 377.972656 C 314.902344 377.730469 314.46875 377.636719 314.105469 377.636719 M 226.621094 380.507812 L 226.210938 380.941406 L 226.621094 381.785156 L 227.054688 381.351562 L 226.621094 380.507812 M 279.445312 377.78125 C 278.867188 377.78125 278.429688 378.191406 278.429688 378.792969 C 278.429688 379.660156 279.277344 380.941406 280.121094 381.351562 C 280.335938 381.472656 280.578125 381.519531 280.796875 381.519531 C 281.351562 381.519531 281.808594 381.132812 281.808594 380.507812 C 281.398438 379.660156 280.964844 378.382812 280.121094 377.972656 C 279.878906 377.851562 279.660156 377.78125 279.445312 377.78125 M 331.304688 375.078125 C 330.460938 375.078125 329.785156 375.753906 329.785156 376.695312 C 329.785156 377.972656 331.0625 380.070312 332.339844 380.507812 C 332.703125 380.746094 333.042969 380.84375 333.378906 380.84375 C 334.222656 380.84375 334.875 380.144531 334.875 379.226562 C 335.308594 377.972656 334.03125 376.261719 332.339844 375.417969 C 331.980469 375.175781 331.617188 375.078125 331.304688 375.078125 M 294.980469 375.828125 L 294.542969 376.261719 L 294.980469 377.105469 L 295.414062 376.695312 L 294.980469 375.828125 M 257.375 370.566406 C 256.796875 370.566406 256.335938 370.976562 256.335938 371.582031 C 256.335938 372.449219 257.207031 373.726562 258.050781 374.136719 C 258.265625 374.257812 258.507812 374.308594 258.699219 374.308594 C 259.28125 374.308594 259.738281 373.921875 259.738281 373.292969 C 259.738281 372.449219 258.894531 371.171875 258.050781 370.738281 C 257.808594 370.640625 257.589844 370.566406 257.375 370.566406 M 237.667969 369.046875 L 237.234375 369.484375 L 237.667969 370.304688 L 238.101562 369.894531 L 237.667969 369.046875 M 300.308594 361.066406 C 299.464844 361.066406 298.789062 361.765625 298.789062 362.679688 C 298.789062 363.960938 300.066406 366.058594 301.347656 366.492188 C 301.707031 366.734375 302.046875 366.828125 302.382812 366.828125 C 303.226562 366.828125 303.902344 366.128906 303.902344 365.238281 C 303.902344 363.960938 302.625 362.246094 301.347656 361.402344 C 300.984375 361.160156 300.648438 361.066406 300.308594 361.066406 M 271.21875 356.410156 C 270.183594 356.410156 269.507812 357.179688 269.507812 358.433594 C 269.507812 360.125 270.785156 362.246094 272.472656 363.089844 C 272.933594 363.332031 273.367188 363.429688 273.726562 363.429688 C 274.765625 363.429688 275.441406 362.65625 275.441406 361.402344 C 275.441406 359.714844 274.1875 357.566406 272.472656 356.746094 C 272.015625 356.503906 271.605469 356.410156 271.21875 356.410156 M 230.261719 353.851562 C 229.417969 353.851562 228.742188 354.527344 228.742188 355.46875 C 228.742188 356.746094 230.019531 358.84375 231.300781 359.28125 C 231.660156 359.519531 232 359.617188 232.335938 359.617188 C 233.179688 359.617188 233.855469 358.917969 233.855469 358 C 233.855469 356.746094 232.578125 355.035156 231.300781 354.191406 C 230.9375 353.949219 230.601562 353.851562 230.261719 353.851562 M 255.925781 358 L 255.492188 358.433594 L 255.925781 359.28125 L 256.335938 358.84375 L 255.925781 358 M 347.539062 353.585938 C 346.789062 353.585938 346.355469 353.996094 346.355469 354.601562 C 346.355469 355.46875 347.199219 357.15625 348.480469 357.566406 C 348.816406 357.6875 349.128906 357.761719 349.394531 357.761719 C 350.144531 357.761719 350.601562 357.351562 350.601562 356.746094 C 350.601562 355.878906 349.734375 354.191406 348.480469 353.757812 C 348.140625 353.660156 347.828125 353.585938 347.539062 353.585938 M 319.097656 348.933594 C 318.351562 348.933594 317.894531 349.316406 317.894531 349.945312 C 317.894531 351.222656 318.761719 352.5 320.015625 352.910156 C 320.472656 353.226562 320.882812 353.347656 321.199219 353.347656 C 321.800781 353.347656 322.136719 352.886719 322.136719 352.066406 C 322.136719 350.789062 321.292969 349.511719 320.015625 349.078125 C 319.679688 348.980469 319.363281 348.933594 319.097656 348.933594 M 286.65625 348.0625 C 286.101562 348.0625 285.644531 348.472656 285.644531 349.078125 C 285.644531 349.945312 286.488281 351.222656 287.332031 351.632812 C 287.574219 351.753906 287.789062 351.800781 288.007812 351.800781 C 288.585938 351.800781 289.042969 351.417969 289.042969 350.789062 C 289.042969 349.945312 288.175781 348.667969 287.332031 348.257812 C 287.113281 348.136719 286.875 348.0625 286.65625 348.0625 M 330.652344 343.238281 C 329.617188 343.238281 328.941406 344.035156 328.941406 345.265625 C 328.941406 346.976562 330.21875 349.078125 331.90625 349.945312 C 332.367188 350.160156 332.800781 350.28125 333.160156 350.28125 C 334.199219 350.28125 334.875 349.488281 334.875 348.257812 C 334.875 346.542969 333.621094 344.421875 331.90625 343.578125 C 331.449219 343.335938 331.039062 343.238281 330.652344 343.238281 M 267.382812 346.542969 L 266.949219 346.976562 L 267.382812 347.824219 L 267.820312 347.386719 L 267.382812 346.542969 M 312.828125 338.992188 C 311.789062 338.992188 311.117188 339.789062 311.117188 341.019531 C 311.117188 342.734375 312.394531 344.832031 314.082031 345.699219 C 314.539062 345.917969 314.976562 346.039062 315.335938 346.039062 C 316.375 346.039062 317.050781 345.242188 317.050781 344.011719 C 317.050781 342.296875 315.769531 340.175781 314.082031 339.332031 C 313.625 339.089844 313.191406 338.992188 312.828125 338.992188 M 244.6875 337.714844 C 243.84375 337.714844 243.191406 338.414062 243.191406 339.332031 C 243.191406 340.585938 244.46875 342.734375 245.722656 343.144531 C 246.085938 343.382812 246.449219 343.480469 246.785156 343.480469 C 247.628906 343.480469 248.28125 342.804688 248.28125 341.863281 C 248.28125 340.585938 247.003906 338.898438 245.722656 338.054688 C 245.386719 337.8125 245.023438 337.714844 244.6875 337.714844 M 252.5 327.125 C 250.597656 327.125 249.125 328.453125 249.125 330.839844 C 249.125 333.808594 251.679688 338.054688 255.082031 339.332031 C 255.949219 339.839844 256.84375 340.078125 257.664062 340.078125 C 259.546875 340.078125 261.015625 338.730469 261.015625 336.339844 C 261.015625 333.375 258.460938 329.5625 255.082031 327.875 C 254.191406 327.367188 253.296875 327.125 252.5 327.125 M 286.296875 326.257812 C 285.449219 326.257812 284.800781 326.957031 284.800781 327.875 C 284.800781 329.128906 286.054688 331.277344 287.332031 331.683594 C 287.695312 331.925781 288.054688 332.023438 288.371094 332.023438 C 289.214844 332.023438 289.890625 331.324219 289.890625 330.40625 C 290.300781 328.71875 289.042969 327.007812 287.332031 326.597656 C 286.96875 326.355469 286.632812 326.257812 286.296875 326.257812 M 230.019531 327.441406 L 229.609375 327.875 L 230.019531 328.71875 L 230.457031 328.285156 L 230.019531 327.441406 M 293.941406 322.855469 C 293.097656 322.855469 292.421875 323.558594 292.421875 324.472656 C 292.421875 325.75 293.699219 327.875 294.980469 328.285156 C 295.339844 328.527344 295.703125 328.621094 296.015625 328.621094 C 296.859375 328.621094 297.535156 327.921875 297.535156 327.007812 C 297.535156 325.75 296.257812 324.039062 294.980469 323.195312 C 294.617188 322.953125 294.253906 322.855469 293.941406 322.855469 M 249.558594 310.964844 C 248.546875 310.964844 247.847656 311.761719 247.847656 313.015625 C 247.847656 314.703125 249.125 316.828125 250.835938 317.671875 C 251.296875 317.914062 251.707031 318.007812 252.089844 318.007812 C 253.105469 318.007812 253.804688 317.214844 253.804688 315.984375 C 253.804688 314.269531 252.527344 312.148438 250.835938 311.304688 C 250.378906 311.085938 249.945312 310.964844 249.558594 310.964844 M 229.105469 305.609375 C 228.355469 305.609375 227.898438 306.019531 227.898438 306.648438 C 227.898438 307.492188 228.742188 309.179688 230.019531 309.613281 C 230.359375 309.710938 230.671875 309.785156 230.960938 309.785156 C 231.683594 309.785156 232.144531 309.375 232.144531 308.769531 C 232.144531 307.902344 231.300781 306.214844 230.019531 305.78125 C 229.683594 305.683594 229.371094 305.609375 229.105469 305.609375"/></g><g clip-path="url(#h)"><path fill="#4D2D13" d="M 356.535156 346.542969 L 220.6875 278.621094 L 220.6875 265.882812 L 356.535156 333.808594 L 356.535156 346.542969"/></g><g clip-path="url(#i)"><path fill="#332013" d="M 356.535156 333.808594 L 220.6875 265.882812 L 220.6875 257.394531 L 356.535156 325.316406 L 356.535156 333.808594"/></g><g clip-path="url(#j)"><path fill="#412714" d="M 348.695312 436.875 C 348.332031 436.875 347.949219 436.78125 347.609375 436.539062 C 345.921875 435.695312 344.644531 433.570312 344.644531 431.882812 C 344.644531 430.628906 345.320312 429.832031 346.355469 429.832031 C 346.742188 429.832031 347.152344 429.953125 347.609375 430.171875 C 349.324219 431.015625 350.601562 433.136719 350.601562 434.851562 C 350.601562 436.082031 349.683594 436.875 348.695312 436.875 M 310.269531 430.605469 L 309.402344 429.328125 L 310.269531 428.890625 L 311.117188 430.171875 L 310.269531 430.605469 M 298.789062 426.261719 C 298.402344 426.261719 297.992188 426.167969 297.535156 425.925781 C 295.824219 425.082031 294.542969 422.957031 294.542969 421.269531 C 294.542969 420.015625 295.242188 419.21875 296.257812 419.21875 C 296.644531 419.21875 297.078125 419.339844 297.535156 419.558594 C 299.222656 420.835938 300.503906 422.523438 300.503906 424.238281 C 300.503906 425.46875 299.828125 426.261719 298.789062 426.261719 M 331.738281 423.972656 C 331.523438 423.972656 331.28125 423.921875 331.0625 423.804688 C 330.21875 423.394531 329.785156 422.113281 329.375 421.269531 C 329.375 420.644531 329.808594 420.257812 330.386719 420.257812 C 330.605469 420.257812 330.847656 420.304688 331.0625 420.402344 C 331.90625 420.835938 332.75 422.113281 332.75 422.957031 C 332.75 423.585938 332.316406 423.972656 331.738281 423.972656 M 312.199219 419.726562 C 311.984375 419.726562 311.765625 419.679688 311.527344 419.558594 C 310.679688 419.148438 309.835938 417.871094 309.835938 417.023438 C 309.835938 416.398438 310.296875 416.011719 310.875 416.011719 C 311.089844 416.011719 311.308594 416.058594 311.527344 416.15625 C 312.394531 416.589844 313.238281 417.871094 313.238281 418.714844 C 313.238281 419.339844 312.78125 419.726562 312.199219 419.726562 M 290.492188 403.78125 C 290.179688 403.78125 289.816406 403.664062 289.453125 403.421875 C 288.175781 403.011719 286.921875 400.886719 286.921875 399.609375 C 286.921875 398.691406 287.574219 397.992188 288.417969 397.992188 C 288.753906 397.992188 289.117188 398.089844 289.453125 398.332031 C 290.734375 399.199219 292.011719 400.886719 292.011719 402.167969 C 292.011719 403.082031 291.335938 403.78125 290.492188 403.78125 M 341.242188 403.757812 C 340.855469 403.757812 340.445312 403.664062 339.988281 403.421875 C 338.277344 402.578125 336.996094 400.453125 336.996094 398.765625 C 336.996094 397.511719 337.695312 396.738281 338.710938 396.738281 C 339.09375 396.738281 339.53125 396.835938 339.988281 397.054688 C 341.675781 397.921875 342.953125 400.042969 342.953125 401.734375 C 342.953125 402.988281 342.28125 403.757812 341.242188 403.757812 M 304.363281 402.480469 C 303.542969 402.480469 302.648438 402.238281 301.78125 401.734375 C 298.378906 400.453125 295.824219 396.207031 295.824219 393.242188 C 295.824219 390.855469 297.292969 389.527344 299.199219 389.527344 C 299.996094 389.527344 300.886719 389.769531 301.78125 390.273438 C 304.746094 391.964844 307.28125 395.773438 307.714844 398.765625 C 307.714844 401.152344 306.242188 402.480469 304.363281 402.480469 M 267.359375 396.546875 C 267 396.546875 266.5625 396.449219 266.105469 396.207031 C 264.417969 395.363281 263.140625 393.242188 263.140625 391.53125 C 263.140625 390.300781 263.8125 389.503906 264.851562 389.503906 C 265.238281 389.503906 265.648438 389.625 266.105469 389.839844 C 267.820312 390.710938 269.074219 392.808594 269.074219 394.519531 C 269.074219 395.75 268.398438 396.546875 267.359375 396.546875 M 284.800781 395.773438 L 283.929688 394.519531 L 284.800781 394.085938 C 285.210938 394.085938 285.210938 394.519531 285.644531 395.363281 L 284.800781 395.773438 M 316.613281 384.65625 C 316.230469 384.65625 315.820312 384.558594 315.359375 384.316406 C 313.648438 383.472656 312.394531 381.351562 312.394531 379.660156 C 312.394531 378.40625 313.070312 377.636719 314.105469 377.636719 C 314.46875 377.636719 314.902344 377.730469 315.359375 377.972656 C 317.050781 378.792969 318.328125 380.941406 318.328125 382.628906 C 318.328125 383.882812 317.652344 384.65625 316.613281 384.65625 M 226.621094 381.785156 L 226.210938 380.941406 L 226.621094 380.507812 L 227.054688 381.351562 L 226.621094 381.785156 M 280.796875 381.519531 C 280.578125 381.519531 280.335938 381.472656 280.121094 381.351562 C 279.277344 380.941406 278.429688 379.660156 278.429688 378.792969 C 278.429688 378.191406 278.867188 377.78125 279.445312 377.78125 C 279.660156 377.78125 279.878906 377.851562 280.121094 377.972656 C 280.964844 378.382812 281.398438 379.660156 281.808594 380.507812 C 281.808594 381.132812 281.351562 381.519531 280.796875 381.519531 M 333.378906 380.84375 C 333.042969 380.84375 332.703125 380.746094 332.339844 380.507812 C 331.0625 380.070312 329.785156 377.972656 329.785156 376.695312 C 329.785156 375.753906 330.460938 375.078125 331.304688 375.078125 C 331.617188 375.078125 331.980469 375.175781 332.339844 375.417969 C 334.03125 376.261719 335.308594 377.972656 334.875 379.226562 C 334.875 380.144531 334.222656 380.84375 333.378906 380.84375 M 294.980469 377.105469 L 294.542969 376.261719 L 294.980469 375.828125 L 295.414062 376.695312 L 294.980469 377.105469 M 258.699219 374.308594 C 258.507812 374.308594 258.265625 374.257812 258.050781 374.136719 C 257.207031 373.726562 256.335938 372.449219 256.335938 371.582031 C 256.335938 370.976562 256.796875 370.566406 257.375 370.566406 C 257.589844 370.566406 257.808594 370.640625 258.050781 370.738281 C 258.894531 371.171875 259.738281 372.449219 259.738281 373.292969 C 259.738281 373.921875 259.28125 374.308594 258.699219 374.308594 M 237.667969 370.304688 L 237.234375 369.484375 L 237.667969 369.046875 L 238.101562 369.894531 L 237.667969 370.304688 M 302.382812 366.828125 C 302.046875 366.828125 301.707031 366.734375 301.347656 366.492188 C 300.066406 366.058594 298.789062 363.960938 298.789062 362.679688 C 298.789062 361.765625 299.464844 361.066406 300.308594 361.066406 C 300.648438 361.066406 300.984375 361.160156 301.347656 361.402344 C 302.625 362.246094 303.902344 363.960938 303.902344 365.238281 C 303.902344 366.128906 303.226562 366.828125 302.382812 366.828125 M 273.726562 363.429688 C 273.367188 363.429688 272.933594 363.332031 272.472656 363.089844 C 270.785156 362.246094 269.507812 360.125 269.507812 358.433594 C 269.507812 357.179688 270.183594 356.410156 271.21875 356.410156 C 271.605469 356.410156 272.015625 356.503906 272.472656 356.746094 C 274.1875 357.566406 275.441406 359.714844 275.441406 361.402344 C 275.441406 362.65625 274.765625 363.429688 273.726562 363.429688 M 232.335938 359.617188 C 232 359.617188 231.660156 359.519531 231.300781 359.28125 C 230.019531 358.84375 228.742188 356.746094 228.742188 355.46875 C 228.742188 354.527344 229.417969 353.851562 230.261719 353.851562 C 230.601562 353.851562 230.9375 353.949219 231.300781 354.191406 C 232.578125 355.035156 233.855469 356.746094 233.855469 358 C 233.855469 358.917969 233.179688 359.617188 232.335938 359.617188 M 255.925781 359.28125 L 255.492188 358.433594 L 255.925781 358 L 256.335938 358.84375 L 255.925781 359.28125 M 349.394531 357.761719 C 349.128906 357.761719 348.816406 357.6875 348.480469 357.566406 C 347.199219 357.15625 346.355469 355.46875 346.355469 354.601562 C 346.355469 353.996094 346.789062 353.585938 347.539062 353.585938 C 347.828125 353.585938 348.140625 353.660156 348.480469 353.757812 C 349.734375 354.191406 350.601562 355.878906 350.601562 356.746094 C 350.601562 357.351562 350.144531 357.761719 349.394531 357.761719 M 321.199219 353.347656 C 320.882812 353.347656 320.472656 353.226562 320.015625 352.910156 C 318.761719 352.5 317.894531 351.222656 317.894531 349.945312 C 317.894531 349.316406 318.351562 348.933594 319.097656 348.933594 C 319.363281 348.933594 319.679688 348.980469 320.015625 349.078125 C 321.292969 349.511719 322.136719 350.789062 322.136719 352.066406 C 322.136719 352.886719 321.800781 353.347656 321.199219 353.347656 M 288.007812 351.800781 C 287.789062 351.800781 287.574219 351.753906 287.332031 351.632812 C 286.488281 351.222656 285.644531 349.945312 285.644531 349.078125 C 285.644531 348.472656 286.101562 348.0625 286.65625 348.0625 C 286.875 348.0625 287.113281 348.136719 287.332031 348.257812 C 288.175781 348.667969 289.042969 349.945312 289.042969 350.789062 C 289.042969 351.417969 288.585938 351.800781 288.007812 351.800781 M 333.160156 350.28125 C 332.800781 350.28125 332.367188 350.160156 331.90625 349.945312 C 330.21875 349.078125 328.941406 346.976562 328.941406 345.265625 C 328.941406 344.035156 329.617188 343.238281 330.652344 343.238281 C 331.039062 343.238281 331.449219 343.335938 331.90625 343.578125 C 333.621094 344.421875 334.875 346.542969 334.875 348.257812 C 334.875 349.488281 334.199219 350.28125 333.160156 350.28125 M 267.382812 347.824219 L 266.949219 346.976562 L 267.382812 346.542969 L 267.820312 347.386719 L 267.382812 347.824219 M 315.335938 346.039062 C 314.976562 346.039062 314.539062 345.917969 314.082031 345.699219 C 312.394531 344.832031 311.117188 342.734375 311.117188 341.019531 C 311.117188 339.789062 311.789062 338.992188 312.828125 338.992188 C 313.191406 338.992188 313.625 339.089844 314.082031 339.332031 C 315.769531 340.175781 317.050781 342.296875 317.050781 344.011719 C 317.050781 345.242188 316.375 346.039062 315.335938 346.039062 M 246.785156 343.480469 C 246.449219 343.480469 246.085938 343.382812 245.722656 343.144531 C 244.46875 342.734375 243.191406 340.585938 243.191406 339.332031 C 243.191406 338.414062 243.84375 337.714844 244.6875 337.714844 C 245.023438 337.714844 245.386719 337.8125 245.722656 338.054688 C 247.003906 338.898438 248.28125 340.585938 248.28125 341.863281 C 248.28125 342.804688 247.628906 343.480469 246.785156 343.480469 M 257.664062 340.078125 C 256.84375 340.078125 255.949219 339.839844 255.082031 339.332031 C 251.679688 338.054688 249.125 333.808594 249.125 330.839844 C 249.125 328.453125 250.597656 327.125 252.5 327.125 C 253.296875 327.125 254.191406 327.367188 255.082031 327.875 C 258.460938 329.5625 261.015625 333.375 261.015625 336.339844 C 261.015625 338.730469 259.546875 340.078125 257.664062 340.078125 M 288.371094 332.023438 C 288.054688 332.023438 287.695312 331.925781 287.332031 331.683594 C 286.054688 331.277344 284.800781 329.128906 284.800781 327.875 C 284.800781 326.957031 285.449219 326.257812 286.296875 326.257812 C 286.632812 326.257812 286.96875 326.355469 287.332031 326.597656 C 289.042969 327.007812 290.300781 328.71875 289.890625 330.40625 C 289.890625 331.324219 289.214844 332.023438 288.371094 332.023438 M 230.019531 328.71875 L 229.609375 327.875 L 230.019531 327.441406 L 230.457031 328.285156 L 230.019531 328.71875 M 296.015625 328.621094 C 295.703125 328.621094 295.339844 328.527344 294.980469 328.285156 C 293.699219 327.875 292.421875 325.75 292.421875 324.472656 C 292.421875 323.558594 293.097656 322.855469 293.941406 322.855469 C 294.253906 322.855469 294.617188 322.953125 294.980469 323.195312 C 296.257812 324.039062 297.535156 325.75 297.535156 327.007812 C 297.535156 327.921875 296.859375 328.621094 296.015625 328.621094 M 252.089844 318.007812 C 251.707031 318.007812 251.296875 317.914062 250.835938 317.671875 C 249.125 316.828125 247.847656 314.703125 247.847656 313.015625 C 247.847656 311.761719 248.546875 310.964844 249.558594 310.964844 C 249.945312 310.964844 250.378906 311.085938 250.835938 311.304688 C 252.527344 312.148438 253.804688 314.269531 253.804688 315.984375 C 253.804688 317.214844 253.105469 318.007812 252.089844 318.007812 M 230.960938 309.785156 C 230.671875 309.785156 230.359375 309.710938 230.019531 309.613281 C 228.742188 309.179688 227.898438 307.492188 227.898438 306.648438 C 227.898438 306.019531 228.355469 305.609375 229.105469 305.609375 C 229.371094 305.609375 229.683594 305.683594 230.019531 305.78125 C 231.300781 306.214844 232.144531 307.902344 232.144531 308.769531 C 232.144531 309.375 231.683594 309.785156 230.960938 309.785156"/></g><g clip-path="url(#k)" fill="#744417"><path d="M 356.535156 160.699219 L 492.382812 228.625 L 356.535156 296.550781 L 220.6875 228.625 L 356.535156 160.699219"/><path d="M 356.535156 160.699219 L 492.382812 228.625 L 356.535156 296.550781 L 220.6875 228.625 L 356.535156 160.699219"/></g><path fill="#FFF" d="M 483.894531 224.378906 L 462.667969 213.765625 L 483.894531 224.378906 M 449.929688 207.398438 L 428.703125 196.785156 L 449.929688 207.398438 M 382.007812 173.4375 L 378.558594 171.722656 L 382.007812 173.4375"/><path fill="#805526" d="M 348.042969 292.304688 L 335.308594 285.9375 L 341.675781 283.8125 L 345.921875 280.628906 L 354.414062 277.445312 L 362.902344 271.078125 L 375.640625 266.832031 L 379.882812 263.648438 L 388.375 260.464844 L 396.863281 254.097656 L 409.601562 249.851562 L 413.847656 246.667969 L 422.335938 243.484375 L 430.828125 237.117188 L 443.5625 232.871094 L 447.808594 229.6875 L 456.300781 226.503906 L 464.789062 220.136719 L 471.15625 218.011719 L 470.480469 217.675781 L 483.894531 224.378906 L 479.648438 226.503906 L 473.28125 228.625 L 469.035156 231.808594 L 462.667969 232.871094 L 460.542969 236.054688 L 454.175781 237.117188 L 454.175781 239.238281 L 445.6875 243.484375 L 439.316406 245.605469 L 435.074219 248.789062 L 428.703125 249.851562 L 426.582031 253.035156 L 420.214844 254.097656 L 420.214844 256.21875 L 411.722656 260.464844 L 405.355469 262.585938 L 401.109375 265.773438 L 394.742188 266.832031 L 392.621094 270.015625 L 386.25 271.078125 L 386.25 273.199219 L 377.761719 277.445312 L 371.394531 279.570312 L 367.148438 282.753906 L 360.78125 283.8125 L 358.65625 286.996094 L 352.289062 288.058594 L 352.289062 290.183594 L 348.042969 292.304688 M 331.0625 283.8125 L 326.816406 281.691406 L 331.0625 279.570312 L 337.429688 277.445312 L 339.554688 275.324219 L 345.921875 273.199219 L 352.289062 268.957031 L 356.535156 264.710938 L 360.78125 264.710938 L 365.027344 262.585938 L 371.394531 260.464844 L 373.515625 258.34375 L 379.882812 256.21875 L 386.25 251.972656 L 390.496094 247.730469 L 394.742188 247.730469 L 398.988281 245.605469 L 405.355469 243.484375 L 407.476562 241.359375 L 413.847656 239.238281 L 420.214844 234.992188 L 424.460938 230.75 L 428.703125 230.75 L 432.949219 228.625 L 439.316406 226.503906 L 441.441406 224.378906 L 447.808594 222.257812 L 454.175781 218.011719 L 458.421875 213.765625 L 462.667969 213.765625 L 466.910156 215.890625 L 460.542969 218.011719 L 454.175781 222.257812 L 441.441406 228.625 L 439.316406 230.75 L 426.582031 234.992188 L 420.214844 239.238281 L 407.476562 245.605469 L 405.355469 247.730469 L 392.621094 251.972656 L 386.25 256.21875 L 373.515625 262.585938 L 371.394531 264.710938 L 358.65625 268.957031 L 352.289062 273.199219 L 339.554688 279.570312 L 337.429688 281.691406 L 331.0625 283.8125 M 314.082031 275.324219 L 301.347656 268.957031 L 307.714844 266.832031 L 311.960938 263.648438 L 320.449219 260.464844 L 328.941406 254.097656 L 341.675781 249.851562 L 345.921875 246.667969 L 354.414062 243.484375 L 362.902344 237.117188 L 375.640625 232.871094 L 379.882812 229.6875 L 388.375 226.503906 L 396.863281 220.136719 L 409.601562 215.890625 L 413.847656 212.707031 L 422.335938 209.523438 L 430.828125 203.152344 L 437.195312 201.03125 L 435.410156 200.140625 L 449.929688 207.398438 L 445.6875 209.523438 L 439.316406 211.644531 L 435.074219 214.828125 L 428.703125 215.890625 L 426.582031 219.074219 L 420.214844 220.136719 L 420.214844 222.257812 L 411.722656 226.503906 L 405.355469 228.625 L 401.109375 231.808594 L 394.742188 232.871094 L 392.621094 236.054688 L 386.25 237.117188 L 386.25 239.238281 L 377.761719 243.484375 L 371.394531 245.605469 L 367.148438 248.789062 L 360.78125 249.851562 L 358.65625 253.035156 L 352.289062 254.097656 L 352.289062 256.21875 L 343.800781 260.464844 L 337.429688 262.585938 L 333.1875 265.773438 L 326.816406 266.832031 L 324.695312 270.015625 L 318.328125 271.078125 L 318.328125 273.199219 L 314.082031 275.324219 M 297.101562 266.832031 L 292.855469 264.710938 L 297.101562 262.585938 L 303.46875 260.464844 L 305.589844 258.34375 L 311.960938 256.21875 L 318.328125 251.972656 L 322.574219 247.730469 L 326.816406 247.730469 L 331.0625 245.605469 L 337.429688 243.484375 L 339.554688 241.359375 L 345.921875 239.238281 L 352.289062 234.992188 L 356.535156 230.75 L 360.78125 230.75 L 365.027344 228.625 L 371.394531 226.503906 L 373.515625 224.378906 L 379.882812 222.257812 L 386.25 218.011719 L 390.496094 213.765625 L 394.742188 213.765625 L 398.988281 211.644531 L 405.355469 209.523438 L 407.476562 207.398438 L 413.847656 205.277344 L 420.214844 201.03125 L 424.460938 196.785156 L 428.703125 196.785156 L 432.949219 198.910156 L 426.582031 201.03125 L 420.214844 205.277344 L 407.476562 211.644531 L 405.355469 213.765625 L 392.621094 218.011719 L 386.25 222.257812 L 373.515625 228.625 L 371.394531 230.75 L 358.65625 234.992188 L 352.289062 239.238281 L 339.554688 245.605469 L 337.429688 247.730469 L 324.695312 251.972656 L 318.328125 256.21875 L 305.589844 262.585938 L 303.46875 264.710938 L 297.101562 266.832031 M 280.121094 258.34375 L 267.382812 251.972656 L 273.753906 249.851562 L 277.996094 246.667969 L 286.488281 243.484375 L 294.980469 237.117188 L 307.714844 232.871094 L 311.960938 229.6875 L 320.449219 226.503906 L 328.941406 220.136719 L 341.675781 215.890625 L 345.921875 212.707031 L 354.414062 209.523438 L 362.902344 203.152344 L 375.640625 198.910156 L 379.882812 195.722656 L 388.375 192.539062 L 396.863281 186.171875 L 403.234375 184.050781 L 415.96875 190.417969 L 411.722656 192.539062 L 405.355469 194.664062 L 401.109375 197.847656 L 394.742188 198.910156 L 392.621094 202.09375 L 386.25 203.152344 L 386.25 205.277344 L 377.761719 209.523438 L 371.394531 211.644531 L 367.148438 214.828125 L 360.78125 215.890625 L 358.65625 219.074219 L 352.289062 220.136719 L 352.289062 222.257812 L 343.800781 226.503906 L 337.429688 228.625 L 333.1875 231.808594 L 326.816406 232.871094 L 324.695312 236.054688 L 318.328125 237.117188 L 318.328125 239.238281 L 309.835938 243.484375 L 303.46875 245.605469 L 299.222656 248.789062 L 292.855469 249.851562 L 290.734375 253.035156 L 284.367188 254.097656 L 284.367188 256.21875 L 280.121094 258.34375 M 263.140625 249.851562 L 258.894531 247.730469 L 263.140625 245.605469 L 269.507812 243.484375 L 271.628906 241.359375 L 277.996094 239.238281 L 284.367188 234.992188 L 288.609375 230.75 L 292.855469 230.75 L 297.101562 228.625 L 303.46875 226.503906 L 305.589844 224.378906 L 311.960938 222.257812 L 318.328125 218.011719 L 322.574219 213.765625 L 326.816406 213.765625 L 331.0625 211.644531 L 337.429688 209.523438 L 339.554688 207.398438 L 345.921875 205.277344 L 352.289062 201.03125 L 356.535156 196.785156 L 360.78125 196.785156 L 365.027344 194.664062 L 371.394531 192.539062 L 373.515625 190.417969 L 379.882812 188.296875 L 386.25 184.050781 L 390.496094 179.804688 L 394.742188 179.804688 L 398.988281 181.925781 L 392.621094 184.050781 L 386.25 188.296875 L 373.515625 194.664062 L 371.394531 196.785156 L 358.65625 201.03125 L 352.289062 205.277344 L 339.554688 211.644531 L 337.429688 213.765625 L 324.695312 218.011719 L 318.328125 222.257812 L 305.589844 228.625 L 303.46875 230.75 L 290.734375 234.992188 L 284.367188 239.238281 L 271.628906 245.605469 L 269.507812 247.730469 L 263.140625 249.851562 M 246.15625 241.359375 L 231.300781 233.933594 L 233.421875 234.992188 L 239.789062 232.871094 L 244.035156 229.6875 L 252.527344 226.503906 L 261.015625 220.136719 L 273.753906 215.890625 L 277.996094 212.707031 L 286.488281 209.523438 L 294.980469 203.152344 L 307.714844 198.910156 L 311.960938 195.722656 L 320.449219 192.539062 L 328.941406 186.171875 L 341.675781 181.925781 L 345.921875 178.742188 L 354.414062 175.558594 L 362.902344 169.191406 L 369.269531 167.070312 L 378.558594 171.722656 L 382.007812 173.4375 L 377.761719 175.558594 L 371.394531 177.683594 L 367.148438 180.867188 L 360.78125 181.925781 L 358.65625 185.113281 L 352.289062 186.171875 L 352.289062 188.296875 L 343.800781 192.539062 L 337.429688 194.664062 L 333.1875 197.847656 L 326.816406 198.910156 L 324.695312 202.09375 L 318.328125 203.152344 L 318.328125 205.277344 L 309.835938 209.523438 L 303.46875 211.644531 L 299.222656 214.828125 L 292.855469 215.890625 L 290.734375 219.074219 L 284.367188 220.136719 L 284.367188 222.257812 L 275.875 226.503906 L 269.507812 228.625 L 265.261719 231.808594 L 258.894531 232.871094 L 256.769531 236.054688 L 250.402344 237.117188 L 250.402344 239.238281 L 246.15625 241.359375 M 229.175781 232.871094 L 224.929688 230.75 L 229.175781 228.625 L 235.542969 226.503906 L 237.667969 224.378906 L 244.035156 222.257812 L 250.402344 218.011719 L 254.648438 213.765625 L 258.894531 213.765625 L 263.140625 211.644531 L 269.507812 209.523438 L 271.628906 207.398438 L 277.996094 205.277344 L 284.367188 201.03125 L 288.609375 196.785156 L 292.855469 196.785156 L 297.101562 194.664062 L 303.46875 192.539062 L 305.589844 190.417969 L 311.960938 188.296875 L 318.328125 184.050781 L 322.574219 179.804688 L 326.816406 179.804688 L 331.0625 177.683594 L 337.429688 175.558594 L 339.554688 173.4375 L 345.921875 171.3125 L 352.289062 167.070312 L 356.535156 162.824219 L 360.78125 162.824219 L 365.027344 164.945312 L 358.65625 167.070312 L 352.289062 171.3125 L 339.554688 177.683594 L 337.429688 179.804688 L 324.695312 184.050781 L 318.328125 188.296875 L 305.589844 194.664062 L 303.46875 196.785156 L 290.734375 201.03125 L 284.367188 205.277344 L 271.628906 211.644531 L 269.507812 213.765625 L 256.769531 218.011719 L 250.402344 222.257812 L 237.667969 228.625 L 235.542969 230.75 L 229.175781 232.871094"/><path fill="#FFF" d="M 334.632812 285.597656 L 331.0625 283.8125 L 334.632812 285.597656 M 299.5625 268.0625 L 297.101562 266.832031 L 299.5625 268.0625 M 264.515625 250.527344 L 263.140625 249.851562 L 264.515625 250.527344 M 229.320312 232.941406 L 229.175781 232.871094 L 229.320312 232.941406 M 403.234375 184.050781 L 398.988281 181.925781 L 403.234375 184.050781 M 369.269531 167.070312 L 365.027344 164.945312 L 369.269531 167.070312"/><path fill="#865C2F" d="M 335.308594 285.9375 L 331.0625 283.8125 L 335.308594 285.9375 M 301.347656 268.957031 L 297.101562 266.832031 L 301.347656 268.957031 M 267.382812 251.972656 L 264.515625 250.527344 L 263.140625 249.851562 L 267.382812 251.972656 M 231.300781 233.933594 L 229.175781 232.871094 L 231.300781 233.933594 M 403.234375 184.050781 L 398.988281 181.925781 L 403.234375 184.050781 M 369.269531 167.070312 L 365.027344 164.945312 L 369.269531 167.070312"/><path fill="#FFF" d="M 470.480469 217.675781 L 466.910156 215.890625 L 470.480469 217.675781 M 435.410156 200.140625 L 432.949219 198.910156 L 435.410156 200.140625"/><path fill="#906B3F" d="M 335.308594 285.9375 L 331.0625 283.8125 L 337.429688 281.691406 L 339.554688 279.570312 L 352.289062 273.199219 L 358.65625 268.957031 L 371.394531 264.710938 L 373.515625 262.585938 L 386.25 256.21875 L 392.621094 251.972656 L 405.355469 247.730469 L 407.476562 245.605469 L 420.214844 239.238281 L 426.582031 234.992188 L 439.316406 230.75 L 441.441406 228.625 L 454.175781 222.257812 L 460.542969 218.011719 L 466.910156 215.890625 L 471.15625 218.011719 L 464.789062 220.136719 L 456.300781 226.503906 L 447.808594 229.6875 L 443.5625 232.871094 L 430.828125 237.117188 L 422.335938 243.484375 L 413.847656 246.667969 L 409.601562 249.851562 L 396.863281 254.097656 L 388.375 260.464844 L 379.882812 263.648438 L 375.640625 266.832031 L 362.902344 271.078125 L 354.414062 277.445312 L 345.921875 280.628906 L 341.675781 283.8125 L 335.308594 285.9375 M 301.347656 268.957031 L 297.101562 266.832031 L 303.46875 264.710938 L 305.589844 262.585938 L 318.328125 256.21875 L 324.695312 251.972656 L 337.429688 247.730469 L 339.554688 245.605469 L 352.289062 239.238281 L 358.65625 234.992188 L 371.394531 230.75 L 373.515625 228.625 L 386.25 222.257812 L 392.621094 218.011719 L 405.355469 213.765625 L 407.476562 211.644531 L 420.214844 205.277344 L 426.582031 201.03125 L 432.949219 198.910156 L 437.195312 201.03125 L 430.828125 203.152344 L 422.335938 209.523438 L 413.847656 212.707031 L 409.601562 215.890625 L 396.863281 220.136719 L 388.375 226.503906 L 379.882812 229.6875 L 375.640625 232.871094 L 362.902344 237.117188 L 354.414062 243.484375 L 345.921875 246.667969 L 341.675781 249.851562 L 328.941406 254.097656 L 320.449219 260.464844 L 311.960938 263.648438 L 307.714844 266.832031 L 301.347656 268.957031 M 267.382812 251.972656 L 263.140625 249.851562 L 269.507812 247.730469 L 271.628906 245.605469 L 284.367188 239.238281 L 290.734375 234.992188 L 303.46875 230.75 L 305.589844 228.625 L 318.328125 222.257812 L 324.695312 218.011719 L 337.429688 213.765625 L 339.554688 211.644531 L 352.289062 205.277344 L 358.65625 201.03125 L 371.394531 196.785156 L 373.515625 194.664062 L 386.25 188.296875 L 392.621094 184.050781 L 398.988281 181.925781 L 403.234375 184.050781 L 396.863281 186.171875 L 388.375 192.539062 L 379.882812 195.722656 L 375.640625 198.910156 L 362.902344 203.152344 L 354.414062 209.523438 L 345.921875 212.707031 L 341.675781 215.890625 L 328.941406 220.136719 L 320.449219 226.503906 L 311.960938 229.6875 L 307.714844 232.871094 L 294.980469 237.117188 L 286.488281 243.484375 L 277.996094 246.667969 L 273.753906 249.851562 L 267.382812 251.972656 M 233.421875 234.992188 L 229.175781 232.871094 L 235.542969 230.75 L 237.667969 228.625 L 250.402344 222.257812 L 256.769531 218.011719 L 269.507812 213.765625 L 271.628906 211.644531 L 284.367188 205.277344 L 290.734375 201.03125 L 303.46875 196.785156 L 305.589844 194.664062 L 318.328125 188.296875 L 324.695312 184.050781 L 337.429688 179.804688 L 339.554688 177.683594 L 352.289062 171.3125 L 358.65625 167.070312 L 365.027344 164.945312 L 369.269531 167.070312 L 362.902344 169.191406 L 354.414062 175.558594 L 345.921875 178.742188 L 341.675781 181.925781 L 328.941406 186.171875 L 320.449219 192.539062 L 311.960938 195.722656 L 307.714844 198.910156 L 294.980469 203.152344 L 286.488281 209.523438 L 277.996094 212.707031 L 273.753906 215.890625 L 261.015625 220.136719 L 252.527344 226.503906 L 244.035156 229.6875 L 239.789062 232.871094 L 233.421875 234.992188"/><g clip-path="url(#l)" fill="#744417"><path d="M 356.535156 131.070312 L 492.382812 198.996094 L 356.535156 266.921875 L 220.6875 198.996094 L 356.535156 131.070312"/><path d="M 356.535156 131.070312 L 492.382812 198.996094 L 356.535156 266.921875 L 220.6875 198.996094 L 356.535156 131.070312"/></g><g clip-path="url(#m)"><path fill="#B96B1B" d="M 339.554688 258.429688 L 317.722656 247.503906 L 322.574219 249.9375 L 458.421875 182.015625 L 475.402344 190.503906 L 339.554688 258.429688 M 305.589844 241.449219 L 220.6875 198.996094 L 356.535156 131.070312 L 373.515625 139.5625 L 237.667969 207.484375 L 254.648438 215.976562 L 390.496094 148.050781 L 407.476562 156.542969 L 271.628906 224.46875 L 288.609375 232.957031 L 424.460938 165.035156 L 441.441406 173.523438 L 305.589844 241.449219"/></g><g clip-path="url(#n)"><path fill="#FBC068" d="M 356.535156 266.921875 L 339.554688 258.429688 L 356.535156 266.921875 L 492.382812 198.996094 L 356.535156 266.921875 M 317.722656 247.503906 L 305.589844 241.449219 L 317.722656 247.503906 M 492.382812 198.996094 L 475.402344 190.503906 L 492.382812 198.996094 M 458.421875 182.015625 L 441.441406 173.523438 L 458.421875 182.015625 M 424.460938 165.035156 L 407.476562 156.542969 L 424.460938 165.035156 M 390.496094 148.050781 L 373.515625 139.5625 L 390.496094 148.050781"/></g><g clip-path="url(#o)"><path fill="#DE7D17" d="M 356.535156 266.921875 L 339.554688 258.429688 L 475.402344 190.503906 L 492.382812 198.996094 L 356.535156 266.921875 M 322.574219 249.9375 L 317.722656 247.503906 L 305.589844 241.449219 L 441.441406 173.523438 L 458.421875 182.015625 L 322.574219 249.9375 M 288.609375 232.957031 L 271.628906 224.46875 L 407.476562 156.542969 L 424.460938 165.035156 L 288.609375 232.957031 M 254.648438 215.976562 L 237.667969 207.484375 L 373.515625 139.5625 L 390.496094 148.050781 L 254.648438 215.976562"/></g><g clip-path="url(#p)" fill="#84CE39"><path d="M 356.535156 98.292969 L 492.382812 166.21875 L 356.535156 234.140625 L 220.6875 166.21875 L 356.535156 98.292969"/><path d="M 356.535156 98.292969 L 492.382812 166.21875 L 356.535156 234.140625 L 220.6875 166.21875 L 356.535156 98.292969"/></g><g clip-path="url(#q)"><path fill="#96D673" d="M 356.535156 234.140625 L 339.554688 225.652344 L 356.535156 234.140625 L 492.382812 166.21875 L 356.535156 234.140625 M 317.722656 214.726562 L 305.589844 208.671875 L 317.722656 214.726562 M 492.382812 166.21875 L 475.402344 157.726562 L 492.382812 166.21875 M 458.421875 149.238281 L 441.441406 140.746094 L 458.421875 149.238281 M 424.460938 132.257812 L 407.476562 123.765625 L 424.460938 132.257812 M 390.496094 115.273438 L 373.515625 106.785156 L 390.496094 115.273438"/></g><g clip-path="url(#r)"><path fill="#65BF31" d="M 356.535156 234.140625 L 339.554688 225.652344 L 475.402344 157.726562 L 492.382812 166.21875 L 356.535156 234.140625 M 322.574219 217.160156 L 317.722656 214.726562 L 305.589844 208.671875 L 441.441406 140.746094 L 458.421875 149.238281 L 322.574219 217.160156 M 288.609375 200.179688 L 271.628906 191.691406 L 407.476562 123.765625 L 424.460938 132.257812 L 288.609375 200.179688 M 254.648438 183.199219 L 237.667969 174.707031 L 373.515625 106.785156 L 390.496094 115.273438 L 254.648438 183.199219"/></g><g clip-path="url(#s)"><path fill="#DE7D17" d="M 174.96875 223.921875 C 185.824219 162.328125 229.300781 111.910156 286.851562 91.132812 L 284.152344 95.8125 C 280.386719 102.328125 282.613281 110.675781 289.140625 114.4375 C 291.289062 115.683594 293.632812 116.269531 295.949219 116.269531 C 300.65625 116.269531 305.246094 113.828125 307.765625 109.449219 L 326.570312 76.902344 C 328.371094 73.769531 328.871094 70.046875 327.929688 66.558594 C 326.996094 63.0625 324.714844 60.085938 321.582031 58.277344 L 289.023438 39.472656 C 282.5 35.707031 274.164062 37.945312 270.390625 44.460938 C 266.625 50.988281 268.863281 59.324219 275.378906 63.089844 L 278.78125 65.050781 C 211.589844 88.84375 160.753906 147.484375 148.113281 219.183594 C 141.996094 253.84375 145.109375 289.558594 157.113281 322.46875 C 159.128906 328.011719 164.359375 331.4375 169.925781 331.4375 C 171.480469 331.4375 173.058594 331.171875 174.59375 330.613281 C 181.679688 328.027344 185.320312 320.199219 182.738281 313.132812 C 172.367188 284.710938 169.683594 253.871094 174.96875 223.921875 Z M 174.96875 223.921875"/></g><g clip-path="url(#t)"><path fill="#DE7D17" d="M 497.15625 363.523438 C 491.382812 358.675781 482.78125 359.421875 477.933594 365.191406 C 438.265625 412.378906 375.960938 435.0625 315.320312 424.355469 C 285.882812 419.160156 258.421875 406.402344 235.5625 387.644531 L 239.945312 387.644531 C 247.484375 387.644531 253.582031 381.535156 253.582031 374.007812 C 253.582031 366.480469 247.484375 360.371094 239.945312 360.371094 L 203.644531 360.371094 C 200.136719 360.042969 196.515625 361.054688 193.601562 363.496094 C 190.761719 365.875 189.144531 369.160156 188.800781 372.570312 C 188.800781 372.585938 188.800781 372.597656 188.800781 372.605469 L 188.800781 372.621094 C 188.753906 373.011719 188.738281 373.402344 188.738281 373.792969 C 188.738281 373.867188 188.730469 373.929688 188.730469 374 L 188.710938 411.578125 C 188.710938 419.117188 194.8125 425.21875 202.347656 425.226562 C 209.875 425.226562 215.984375 419.125 215.984375 411.597656 L 215.984375 406.847656 C 242.886719 429.585938 275.539062 445.03125 310.582031 451.210938 C 322.085938 453.246094 333.636719 454.238281 345.117188 454.238281 C 403.703125 454.238281 460.425781 428.402344 498.816406 382.734375 C 503.664062 376.972656 502.917969 368.371094 497.15625 363.523438 Z M 497.15625 363.523438"/></g><path fill="#DE7D17" d="M 565.160156 294.035156 C 561.398438 287.507812 553.058594 285.269531 546.535156 289.042969 L 542.050781 291.628906 C 542.238281 290.667969 542.449219 289.710938 542.621094 288.742188 C 551.914062 236.042969 540.125 182.890625 509.441406 139.066406 C 478.75 95.234375 432.832031 65.992188 380.148438 56.703125 C 372.726562 55.398438 365.652344 60.355469 364.355469 67.765625 C 363.042969 75.1875 367.996094 82.257812 375.417969 83.570312 C 420.925781 91.585938 460.59375 116.855469 487.105469 154.710938 C 513.5625 192.496094 523.746094 238.296875 515.816406 283.726562 L 513.820312 280.273438 C 510.046875 273.746094 501.710938 271.511719 495.183594 275.273438 C 488.667969 279.039062 486.429688 287.375 490.195312 293.902344 L 508.988281 326.464844 C 510.792969 329.601562 513.773438 331.882812 517.273438 332.824219 C 518.425781 333.132812 519.617188 333.285156 520.796875 333.285156 C 523.167969 333.285156 525.527344 332.664062 527.617188 331.457031 L 560.171875 312.660156 C 566.695312 308.894531 568.925781 300.550781 565.160156 294.035156 Z M 565.160156 294.035156"/></svg>