<?xml version="1.0" encoding="UTF-8"?><svg xmlns="http://www.w3.org/2000/svg" xmlns:xlink="http://www.w3.org/1999/xlink" contentScriptType="text/ecmascript" width="450" zoomAndPan="magnify" contentStyleType="text/css" viewBox="0 0 450 449.999984" height="449.999984" preserveAspectRatio="xMidYMid meet" version="1.0"><path fill="rgb(36.859131%, 49.798584%, 21.958923%)" d="M 225 0 C 100.941406 0 0 100.941406 0 225 C 0 349.058594 100.941406 450 225 450 C 349.058594 450 450 349.058594 450 225 C 450 100.941406 349.058594 0 225 0 Z M 225 431.25 C 111.273438 431.25 18.75 338.726562 18.75 225 C 18.75 111.273438 111.273438 18.75 225 18.75 C 338.726562 18.75 431.25 111.273438 431.25 225 C 431.25 338.726562 338.726562 431.25 225 431.25 Z M 225 431.25 " fill-opacity="1" fill-rule="nonzero"/><path fill="rgb(36.859131%, 49.798584%, 21.958923%)" d="M 171.496094 100.378906 L 296.117188 225 L 171.496094 349.621094 L 184.753906 362.878906 L 322.632812 225 L 184.753906 87.121094 Z M 171.496094 100.378906 " fill-opacity="1" fill-rule="nonzero"/></svg>